SplineFontDB: 3.0
FontName: FreeMono
FullName: FreeMono
FamilyName: FreeMono
Weight: Book
Copyright: Copyright 2002, 2003, 2005, 2008, 2009, 2010, 2012 GNU Freefont contributors.
Version: 0412.2268
ItalicAngle: 0
UnderlinePosition: -150
UnderlineWidth: 50
Ascent: 800
Descent: 200
InvalidEm: 0
sfntRevision: 0x019c3a0f
LayerCount: 2
Layer: 0 1 "Back" 1
Layer: 1 1 "Fore" 0
XUID: [1021 542 582384140 11778628]
StyleMap: 0x0040
FSType: 0
OS2Version: 3
OS2_WeightWidthSlopeOnly: 0
OS2_UseTypoMetrics: 0
CreationTime: 1203284335
ModificationTime: 1465906771
PfmFamily: 17
TTFWeight: 400
TTFWidth: 5
LineGap: 0
VLineGap: 0
Panose: 2 15 4 9 2 2 5 2 4 4
OS2TypoAscent: 800
OS2TypoAOffset: 0
OS2TypoDescent: -200
OS2TypoDOffset: 0
OS2TypoLinegap: 0
OS2WinAscent: 800
OS2WinAOffset: 0
OS2WinDescent: 200
OS2WinDOffset: 0
HheadAscent: 800
HheadAOffset: 0
HheadDescent: -200
HheadDOffset: 0
OS2SubXSize: 650
OS2SubYSize: 699
OS2SubXOff: 47
OS2SubYOff: 140
OS2SupXSize: 650
OS2SupYSize: 699
OS2SupXOff: -163
OS2SupYOff: 479
OS2StrikeYSize: 49
OS2StrikeYPos: 258
OS2CapHeight: 563
OS2XHeight: 417
OS2FamilyClass: 1285
OS2Vendor: 'GNU '
OS2CodePages: 600001ff.ffff0000
OS2UnicodeRanges: e4002eff.c2007fff.00249028.00100000
Lookup: 1 0 0 "'zero' Slashed Zero lookup 0" { "'zero' Slashed Zero lookup 0 subtable"  } ['zero' ('DFLT' <'dflt' > ) ]
Lookup: 4 0 0 "'frac' Diagonal Fractions lookup 1" { "'frac' Diagonal Fractions lookup 1 subtable"  } ['frac' ('DFLT' <'dflt' > ) ]
Lookup: 4 0 0 "'ccmp' Glyph Composition/Decomposition in Latin lookup 2" { "'ccmp' Glyph Composition/Decomposition in Latin lookup 2 per glyph data 0"  "'ccmp' Glyph Composition/Decomposition in Latin lookup 2 per glyph data 1"  } ['ccmp' ('latn' <'dflt' > ) ]
Lookup: 4 0 0 "'ccmp' Glyph Composition/Decomposition in Latin lookup 3" { "'ccmp' Glyph Composition/Decomposition in Latin lookup 3 subtable"  } ['ccmp' ('latn' <'dflt' > ) ]

StartChar: .notdef
Encoding: 1114112 -1 0
Width: 600
Flags: W
LayerCount: 2
Fore
SplineSet
134 529 m 1,0,1
 144 532 144 532 175 546.5 c 128,-1,2
 206 561 206 561 237.5 569 c 128,-1,3
 269 577 269 577 309 577 c 0,4,5
 389 577 389 577 438 534.5 c 128,-1,6
 487 492 487 492 487 423 c 0,7,8
 487 367 487 367 451.5 329 c 128,-1,9
 416 291 416 291 322 247 c 1,10,-1
 322 206 l 2,11,12
 322 179 322 179 302 179 c 0,13,14
 281 179 281 179 281 206 c 2,15,-1
 281 274 l 1,16,17
 369 311 369 311 407.5 345.5 c 128,-1,18
 446 380 446 380 446 423 c 0,19,20
 446 473 446 473 406 504.5 c 128,-1,21
 366 536 366 536 304 536 c 0,22,23
 243 536 243 536 175 502 c 1,24,-1
 175 461 l 2,25,26
 175 434 175 434 155 434 c 0,27,28
 134 434 134 434 134 461 c 2,29,-1
 134 529 l 1,0,1
287 85 m 2,30,-1
 314 85 l 2,31,32
 340 85 340 85 355.5 71 c 128,-1,33
 371 57 371 57 371 35 c 128,-1,34
 371 13 371 13 355 -1 c 128,-1,35
 339 -15 339 -15 314 -15 c 2,36,-1
 287 -15 l 2,37,38
 261 -15 261 -15 245.5 -1 c 128,-1,39
 230 13 230 13 230 35 c 128,-1,40
 230 57 230 57 245.5 71 c 128,-1,41
 261 85 261 85 287 85 c 2,30,-1
40 -80 m 1,42,-1
 40 643 l 1,43,-1
 560 643 l 1,44,-1
 560 -80 l 1,45,-1
 40 -80 l 1,42,-1
73 -47 m 1,46,-1
 527 -47 l 1,47,-1
 527 610 l 1,48,-1
 73 610 l 1,49,-1
 73 -47 l 1,46,-1
EndSplineSet
EndChar

StartChar: exclam
Encoding: 33 33 4
Width: 600
GlyphClass: 2
Flags: W
LayerCount: 2
Fore
SplineSet
338 563 m 2,0,-1
 320 237 l 2,1,2
 318 209 318 209 299 209 c 0,3,4
 281 209 281 209 279 237 c 2,5,-1
 261 563 l 2,6,7
 261 565 261 565 260.5 571 c 128,-1,8
 260 577 260 577 260 579 c 0,9,10
 260 596 260 596 271.5 607 c 128,-1,11
 283 618 283 618 300 618 c 0,12,13
 316 618 316 618 327.5 607 c 128,-1,14
 339 596 339 596 339 579 c 0,15,16
 339 578 339 578 339 576 c 128,-1,17
 339 574 339 574 338.5 570 c 128,-1,18
 338 566 338 566 338 563 c 2,0,-1
293 85 m 2,19,-1
 306 85 l 2,20,21
 329 85 329 85 344.5 70.5 c 128,-1,22
 360 56 360 56 360 35 c 128,-1,23
 360 14 360 14 344.5 -0.5 c 128,-1,24
 329 -15 329 -15 306 -15 c 2,25,-1
 293 -15 l 2,26,27
 271 -15 271 -15 255.5 -0.5 c 128,-1,28
 240 14 240 14 240 35 c 128,-1,29
 240 56 240 56 255.5 70.5 c 128,-1,30
 271 85 271 85 293 85 c 2,19,-1
EndSplineSet
EndChar

StartChar: quotedbl
Encoding: 34 34 5
Width: 600
GlyphClass: 2
Flags: W
LayerCount: 2
Fore
SplineSet
146 604 m 1,0,-1
 274 604 l 1,1,-1
 240 351 l 2,2,3
 236 315 236 315 210 315 c 128,-1,4
 184 315 184 315 180 351 c 2,5,-1
 146 604 l 1,0,-1
326 604 m 1,6,-1
 454 604 l 1,7,-1
 420 351 l 2,8,9
 416 315 416 315 390 315 c 128,-1,10
 364 315 364 315 360 351 c 2,11,-1
 326 604 l 1,6,-1
EndSplineSet
EndChar

StartChar: numbersign
Encoding: 35 35 6
Width: 600
GlyphClass: 2
Flags: W
LayerCount: 2
Fore
SplineSet
321 -36 m 2,0,-1
 337 189 l 1,1,-1
 246 189 l 1,2,-1
 231 -36 l 2,3,4
 228 -62 228 -62 210 -62 c 0,5,6
 202 -62 202 -62 196 -56 c 128,-1,7
 190 -50 190 -50 190 -41 c 0,8,9
 190 -36 190 -36 190 -33 c 2,10,-1
 206 189 l 1,11,-1
 119 189 l 2,12,13
 92 189 92 189 92 210 c 0,14,15
 92 230 92 230 119 230 c 2,16,-1
 208 230 l 1,17,-1
 217 356 l 1,18,-1
 139 356 l 2,19,20
 112 356 112 356 112 377 c 0,21,22
 112 397 112 397 139 397 c 2,23,-1
 220 397 l 1,24,-1
 236 622 l 2,25,26
 238 647 238 647 257 647 c 128,-1,27
 276 647 276 647 276 622 c 0,28,29
 276 621 276 621 276 619 c 2,30,-1
 261 397 l 1,31,-1
 352 397 l 1,32,-1
 368 622 l 2,33,34
 369 647 369 647 388 647 c 0,35,36
 408 647 408 647 408 622 c 0,37,38
 408 620 408 620 408 619 c 2,39,-1
 392 397 l 1,40,-1
 481 397 l 2,41,42
 508 397 508 397 508 377 c 0,43,44
 508 356 508 356 481 356 c 2,45,-1
 390 356 l 1,46,-1
 381 230 l 1,47,-1
 461 230 l 2,48,49
 488 230 488 230 488 210 c 0,50,51
 488 189 488 189 461 189 c 2,52,-1
 378 189 l 1,53,-1
 362 -36 l 2,54,55
 361 -62 361 -62 341 -62 c 0,56,57
 334 -62 334 -62 327.5 -56 c 128,-1,58
 321 -50 321 -50 321 -44 c 0,59,60
 321 -40 321 -40 321 -36 c 2,0,-1
349 356 m 1,61,-1
 258 356 l 1,62,-1
 249 230 l 1,63,-1
 340 230 l 1,64,-1
 349 356 l 1,61,-1
EndSplineSet
EndChar

StartChar: dollar
Encoding: 36 36 7
Width: 600
GlyphClass: 2
Flags: W
LayerCount: 2
Fore
SplineSet
446 201 m 0,0,1
 446 237 446 237 423 259 c 128,-1,2
 400 281 400 281 365.5 288.5 c 128,-1,3
 331 296 331 296 291 305.5 c 128,-1,4
 251 315 251 315 216.5 325.5 c 128,-1,5
 182 336 182 336 159 363.5 c 128,-1,6
 136 391 136 391 136 435 c 0,7,8
 136 489 136 489 176.5 529 c 128,-1,9
 217 569 217 569 280 576 c 1,10,-1
 280 628 l 2,11,12
 280 655 280 655 301 655 c 0,13,14
 321 655 321 655 321 628 c 2,15,-1
 321 576 l 1,16,17
 354 573 354 573 376 564 c 128,-1,18
 398 555 398 555 425 534 c 1,19,20
 427 563 427 563 446 563 c 0,21,22
 466 563 466 563 466 536 c 2,23,-1
 466 476 l 2,24,25
 466 449 466 449 446 449 c 0,26,27
 428 449 428 449 425 471 c 0,28,29
 421 498 421 498 384.5 518 c 128,-1,30
 348 538 348 538 302 538 c 0,31,32
 250 538 250 538 213.5 507.5 c 128,-1,33
 177 477 177 477 177 434 c 0,34,35
 177 401 177 401 200 380.5 c 128,-1,36
 223 360 223 360 257.5 353.5 c 128,-1,37
 292 347 292 347 332 337.5 c 128,-1,38
 372 328 372 328 406.5 317.5 c 128,-1,39
 441 307 441 307 464 277 c 128,-1,40
 487 247 487 247 487 201 c 0,41,42
 487 142 487 142 442 102 c 128,-1,43
 397 62 397 62 321 54 c 1,44,-1
 321 -65 l 2,45,46
 321 -92 321 -92 301 -92 c 0,47,48
 280 -92 280 -92 280 -65 c 2,49,-1
 280 54 l 1,50,51
 245 56 245 56 209 71 c 128,-1,52
 173 86 173 86 154 108 c 1,53,-1
 154 92 l 2,54,55
 154 65 154 65 134 65 c 0,56,57
 113 65 113 65 113 92 c 2,58,-1
 113 171 l 2,59,60
 113 198 113 198 134 198 c 0,61,62
 151 198 151 198 154 173 c 0,63,64
 157 141 157 141 200.5 117 c 128,-1,65
 244 93 244 93 299 93 c 0,66,67
 363 93 363 93 404.5 123.5 c 128,-1,68
 446 154 446 154 446 201 c 0,0,1
EndSplineSet
EndChar

StartChar: percent
Encoding: 37 37 8
Width: 600
GlyphClass: 2
Flags: W
LayerCount: 2
Fore
SplineSet
361 236 m 0,0,1
 413 236 413 236 448.5 199.5 c 128,-1,2
 484 163 484 163 484 110 c 0,3,4
 484 60 484 60 448 24 c 128,-1,5
 412 -12 412 -12 362 -12 c 0,6,7
 311 -12 311 -12 275 24.5 c 128,-1,8
 239 61 239 61 239 112 c 128,-1,9
 239 163 239 163 275 199.5 c 128,-1,10
 311 236 311 236 361 236 c 0,0,1
361 198 m 0,11,12
 326 198 326 198 301.5 173 c 128,-1,13
 277 148 277 148 277 112 c 0,14,15
 277 77 277 77 302 51.5 c 128,-1,16
 327 26 327 26 362 26 c 0,17,18
 396 26 396 26 421 51 c 128,-1,19
 446 76 446 76 446 111 c 0,20,21
 446 148 446 148 421.5 173 c 128,-1,22
 397 198 397 198 361 198 c 0,11,12
237 611 m 0,23,24
 289 611 289 611 324.5 575 c 128,-1,25
 360 539 360 539 360 486 c 0,26,27
 360 436 360 436 324 399.5 c 128,-1,28
 288 363 288 363 238 363 c 0,29,30
 187 363 187 363 151 399.5 c 128,-1,31
 115 436 115 436 115 487 c 128,-1,32
 115 538 115 538 151 574.5 c 128,-1,33
 187 611 187 611 237 611 c 0,23,24
237 573 m 0,34,35
 203 573 203 573 178 547.5 c 128,-1,36
 153 522 153 522 153 487 c 128,-1,37
 153 452 153 452 178 426.5 c 128,-1,38
 203 401 203 401 238 401 c 0,39,40
 272 401 272 401 297 426.5 c 128,-1,41
 322 452 322 452 322 486 c 0,42,43
 322 523 322 523 297.5 548 c 128,-1,44
 273 573 273 573 237 573 c 0,34,35
495 344 m 2,45,-1
 116 222 l 2,46,47
 108 219 108 219 104 219 c 0,48,49
 98 219 98 219 92.5 225 c 128,-1,50
 87 231 87 231 87 238 c 0,51,52
 87 252 87 252 105 258 c 2,53,-1
 484 380 l 2,54,55
 492 382 492 382 496 382 c 0,56,57
 503 382 503 382 508 376.5 c 128,-1,58
 513 371 513 371 513 363 c 0,59,60
 513 350 513 350 495 344 c 2,45,-1
EndSplineSet
EndChar

StartChar: ampersand
Encoding: 38 38 9
Width: 600
GlyphClass: 2
Flags: W
LayerCount: 2
Fore
SplineSet
393 0 m 1,0,-1
 362 48 l 1,1,2
 317 -16 317 -16 250 -16 c 0,3,4
 191 -16 191 -16 148 31 c 128,-1,5
 105 78 105 78 105 142 c 0,6,7
 105 194 105 194 134.5 232.5 c 128,-1,8
 164 271 164 271 216 287 c 1,9,10
 182 342 182 342 174 360 c 128,-1,11
 166 378 166 378 166 400 c 0,12,13
 166 449 166 449 202.5 484 c 128,-1,14
 239 519 239 519 289 519 c 0,15,16
 322 519 322 519 355 499 c 1,17,18
 374 510 374 510 381 510 c 128,-1,19
 388 510 388 510 394 503.5 c 128,-1,20
 400 497 400 497 400 489 c 0,21,22
 400 477 400 477 384 468 c 2,23,-1
 352 452 l 1,24,25
 322 478 322 478 289 478 c 0,26,27
 257 478 257 478 232 453.5 c 128,-1,28
 207 429 207 429 207 398 c 128,-1,29
 207 367 207 367 251 298 c 2,30,-1
 362 121 l 1,31,32
 393 179 393 179 408 249 c 1,33,-1
 451 249 l 2,34,35
 478 249 478 249 478 229 c 0,36,37
 478 208 478 208 451 208 c 2,38,-1
 439 208 l 1,39,40
 417 125 417 125 386 82 c 1,41,-1
 413 41 l 1,42,-1
 451 41 l 2,43,44
 478 41 478 41 478 21 c 0,45,46
 478 0 478 0 451 0 c 2,47,-1
 393 0 l 1,0,-1
338 86 m 1,48,-1
 233 251 l 1,49,50
 193 242 193 242 169.5 212.5 c 128,-1,51
 146 183 146 183 146 142 c 0,52,53
 146 95 146 95 177 60 c 128,-1,54
 208 25 208 25 249 25 c 0,55,56
 304 25 304 25 338 86 c 1,48,-1
EndSplineSet
EndChar

StartChar: quotesingle
Encoding: 39 39 10
Width: 600
GlyphClass: 2
Flags: W
LayerCount: 2
Fore
SplineSet
236 604 m 1,0,-1
 364 604 l 1,1,-1
 330 351 l 2,2,3
 325 315 325 315 300 315 c 128,-1,4
 275 315 275 315 270 351 c 2,5,-1
 236 604 l 1,0,-1
EndSplineSet
EndChar

StartChar: parenleft
Encoding: 40 40 11
Width: 600
GlyphClass: 2
Flags: W
LayerCount: 2
Fore
SplineSet
294 243 m 0,0,1
 294 317 294 317 324.5 405.5 c 128,-1,2
 355 494 355 494 389 549 c 128,-1,3
 423 604 423 604 438 604 c 0,4,5
 446 604 446 604 452 598 c 128,-1,6
 458 592 458 592 458 584 c 0,7,8
 458 573 458 573 442 543.5 c 128,-1,9
 426 514 426 514 406.5 478.5 c 128,-1,10
 387 443 387 443 371 378 c 128,-1,11
 355 313 355 313 355 240 c 0,12,13
 355 87 355 87 455 -93 c 0,14,15
 458 -100 458 -100 458 -104 c 0,16,17
 458 -112 458 -112 451.5 -118 c 128,-1,18
 445 -124 445 -124 437 -124 c 0,19,20
 421 -124 421 -124 387.5 -69.5 c 128,-1,21
 354 -15 354 -15 324 75 c 128,-1,22
 294 165 294 165 294 243 c 0,0,1
EndSplineSet
EndChar

StartChar: parenright
Encoding: 41 41 12
Width: 600
GlyphClass: 2
Flags: W
LayerCount: 2
Fore
SplineSet
147 -104 m 0,0,1
 147 -93 147 -93 163 -63.5 c 128,-1,2
 179 -34 179 -34 198.5 1.5 c 128,-1,3
 218 37 218 37 234 102 c 128,-1,4
 250 167 250 167 250 240 c 0,5,6
 250 394 250 394 150 573 c 0,7,8
 147 580 147 580 147 584 c 0,9,10
 147 592 147 592 153.5 598 c 128,-1,11
 160 604 160 604 168 604 c 0,12,13
 184 604 184 604 217.5 549.5 c 128,-1,14
 251 495 251 495 281 405 c 128,-1,15
 311 315 311 315 311 237 c 0,16,17
 311 163 311 163 280.5 74.5 c 128,-1,18
 250 -14 250 -14 216 -69 c 128,-1,19
 182 -124 182 -124 167 -124 c 0,20,21
 159 -124 159 -124 153 -118 c 128,-1,22
 147 -112 147 -112 147 -104 c 0,0,1
EndSplineSet
EndChar

StartChar: asterisk
Encoding: 42 42 13
Width: 600
GlyphClass: 2
Flags: W
LayerCount: 2
Fore
SplineSet
279 438 m 1,0,-1
 279 577 l 2,1,2
 279 604 279 604 300 604 c 0,3,4
 320 604 320 604 320 577 c 2,5,-1
 320 438 l 1,6,-1
 453 481 l 2,7,8
 460 484 460 484 468 484 c 0,9,10
 475 484 475 484 481 478 c 128,-1,11
 487 472 487 472 487 464 c 0,12,13
 487 449 487 449 466 442 c 2,14,-1
 333 400 l 1,15,-1
 414 288 l 2,16,17
 421 276 421 276 421 270 c 0,18,19
 421 262 421 262 415 256 c 128,-1,20
 409 250 409 250 401 250 c 0,21,22
 391 250 391 250 381 264 c 2,23,-1
 299 376 l 1,24,-1
 218 264 l 2,25,26
 207 250 207 250 197 250 c 0,27,28
 189 250 189 250 183 256 c 128,-1,29
 177 262 177 262 177 271 c 0,30,31
 177 277 177 277 185 288 c 2,32,-1
 266 400 l 1,33,-1
 133 442 l 2,34,35
 113 447 113 447 113 463 c 0,36,37
 113 471 113 471 119 477 c 128,-1,38
 125 483 125 483 133 483 c 0,39,40
 136 483 136 483 146 480 c 2,41,-1
 279 438 l 1,0,-1
EndSplineSet
EndChar

StartChar: plus
Encoding: 43 43 14
Width: 600
GlyphClass: 2
Flags: W
LayerCount: 2
Fore
SplineSet
320 261 m 1,0,-1
 320 59 l 2,1,2
 320 32 320 32 300 32 c 0,3,4
 279 32 279 32 279 59 c 2,5,-1
 279 261 l 1,6,-1
 99 261 l 2,7,8
 72 261 72 261 72 282 c 0,9,10
 72 302 72 302 99 302 c 2,11,-1
 279 302 l 1,12,-1
 279 503 l 2,13,14
 279 530 279 530 300 530 c 0,15,16
 320 530 320 530 320 503 c 2,17,-1
 320 302 l 1,18,-1
 500 302 l 2,19,20
 528 302 528 302 528 282 c 0,21,22
 528 261 528 261 500 261 c 2,23,-1
 320 261 l 1,0,-1
EndSplineSet
EndChar

StartChar: comma
Encoding: 44 44 15
Width: 600
GlyphClass: 2
Flags: W
LayerCount: 2
Fore
SplineSet
207 145 m 1,0,-1
 340 145 l 1,1,-1
 195 -120 l 2,2,3
 182 -145 182 -145 164 -145 c 0,4,5
 152 -145 152 -145 143.5 -136.5 c 128,-1,6
 135 -128 135 -128 135 -116 c 0,7,8
 135 -113 135 -113 137 -105 c 2,9,-1
 207 145 l 1,0,-1
EndSplineSet
EndChar

StartChar: hyphen
Encoding: 45 45 16
Width: 600
GlyphClass: 2
Flags: W
LayerCount: 2
Fore
SplineSet
501 258 m 2,0,-1
 99 258 l 2,1,2
 72 258 72 258 72 279 c 0,3,4
 72 299 72 299 99 299 c 2,5,-1
 501 299 l 2,6,7
 528 299 528 299 528 279 c 0,8,9
 528 258 528 258 501 258 c 2,0,-1
EndSplineSet
EndChar

StartChar: period
Encoding: 46 46 17
Width: 600
GlyphClass: 2
Flags: W
LayerCount: 2
Fore
SplineSet
295 116 m 2,0,-1
 305 116 l 2,1,2
 334 116 334 116 354 97.5 c 128,-1,3
 374 79 374 79 374 51 c 128,-1,4
 374 23 374 23 354 4 c 128,-1,5
 334 -15 334 -15 305 -15 c 2,6,-1
 295 -15 l 2,7,8
 266 -15 266 -15 246 4 c 128,-1,9
 226 23 226 23 226 51 c 128,-1,10
 226 79 226 79 246 97.5 c 128,-1,11
 266 116 266 116 295 116 c 2,0,-1
EndSplineSet
EndChar

StartChar: slash
Encoding: 47 47 18
Width: 600
GlyphClass: 2
Flags: W
LayerCount: 2
Fore
SplineSet
482 633 m 2,0,-1
 155 -63 l 2,1,2
 146 -81 146 -81 133 -81 c 0,3,4
 125 -81 125 -81 119 -75 c 128,-1,5
 113 -69 113 -69 113 -62 c 0,6,7
 113 -57 113 -57 118 -46 c 2,8,-1
 445 650 l 2,9,10
 453 668 453 668 467 668 c 0,11,12
 475 668 475 668 481 662 c 128,-1,13
 487 656 487 656 487 649 c 0,14,15
 487 643 487 643 482 633 c 2,0,-1
EndSplineSet
EndChar

StartChar: zero
Encoding: 48 48 19
Width: 600
GlyphClass: 2
Flags: W
LayerCount: 2
Fore
SplineSet
487 351 m 2,0,-1
 487 251 l 2,1,2
 487 133 487 133 435 59 c 128,-1,3
 383 -15 383 -15 300 -15 c 128,-1,4
 217 -15 217 -15 165 59 c 128,-1,5
 113 133 113 133 113 251 c 2,6,-1
 113 351 l 2,7,8
 113 470 113 470 165 544 c 128,-1,9
 217 618 217 618 300 618 c 128,-1,10
 383 618 383 618 435 544 c 128,-1,11
 487 470 487 470 487 351 c 2,0,-1
300 577 m 0,12,13
 232 577 232 577 193 508.5 c 128,-1,14
 154 440 154 440 154 346 c 2,15,-1
 154 257 l 2,16,17
 154 159 154 159 194.5 92.5 c 128,-1,18
 235 26 235 26 300 26 c 0,19,20
 368 26 368 26 407 94.5 c 128,-1,21
 446 163 446 163 446 257 c 2,22,-1
 446 346 l 2,23,24
 446 444 446 444 405.5 510.5 c 128,-1,25
 365 577 365 577 300 577 c 0,12,13
EndSplineSet
Substitution2: "'zero' Slashed Zero lookup 0 subtable" zeroslashed
EndChar

StartChar: one
Encoding: 49 49 20
Width: 600
GlyphClass: 2
Flags: W
LayerCount: 2
Fore
SplineSet
321 612 m 1,0,-1
 321 41 l 1,1,-1
 460 41 l 2,2,3
 487 41 487 41 487 21 c 0,4,5
 487 0 487 0 460 0 c 2,6,-1
 141 0 l 2,7,8
 113 0 113 0 113 21 c 0,9,10
 113 41 113 41 141 41 c 2,11,-1
 280 41 l 1,12,-1
 280 558 l 1,13,-1
 167 445 l 2,14,15
 159 437 159 437 146 437 c 0,16,17
 138 437 138 437 132.5 443.5 c 128,-1,18
 127 450 127 450 127 460 c 0,19,20
 127 469 127 469 138 480 c 2,21,-1
 270 612 l 1,22,-1
 321 612 l 1,0,-1
EndSplineSet
EndChar

StartChar: two
Encoding: 50 50 21
Width: 600
GlyphClass: 2
Flags: W
LayerCount: 2
Fore
SplineSet
104 470 m 0,0,1
 104 515 104 515 158.5 566.5 c 128,-1,2
 213 618 213 618 290 618 c 0,3,4
 363 618 363 618 418.5 566 c 128,-1,5
 474 514 474 514 474 446 c 0,6,7
 474 401 474 401 447.5 361.5 c 128,-1,8
 421 322 421 322 330 237 c 2,9,-1
 123 44 l 1,10,-1
 123 41 l 1,11,-1
 437 41 l 1,12,-1
 437 77 l 2,13,14
 437 104 437 104 458 104 c 0,15,16
 478 104 478 104 478 77 c 2,17,-1
 478 0 l 1,18,-1
 84 0 l 1,19,-1
 84 60 l 1,20,-1
 320 282 l 2,21,22
 390 351 390 351 411.5 382 c 128,-1,23
 433 413 433 413 433 447 c 0,24,25
 433 499 433 499 390 538 c 128,-1,26
 347 577 347 577 290 577 c 0,27,28
 239 577 239 577 197.5 547 c 128,-1,29
 156 517 156 517 144 472 c 0,30,31
 138 452 138 452 123 452 c 0,32,33
 116 452 116 452 110 457.5 c 128,-1,34
 104 463 104 463 104 470 c 0,0,1
EndSplineSet
EndChar

StartChar: three
Encoding: 51 51 22
Width: 600
GlyphClass: 2
Flags: W
LayerCount: 2
Fore
SplineSet
125 528 m 0,0,1
 125 539 125 539 144.5 559 c 128,-1,2
 164 579 164 579 207 598.5 c 128,-1,3
 250 618 250 618 301 618 c 0,4,5
 376 618 376 618 426.5 573.5 c 128,-1,6
 477 529 477 529 477 464 c 0,7,8
 477 406 477 406 444.5 372 c 128,-1,9
 412 338 412 338 374 328 c 1,10,11
 433 304 433 304 466 261.5 c 128,-1,12
 499 219 499 219 499 168 c 0,13,14
 499 92 499 92 437.5 38.5 c 128,-1,15
 376 -15 376 -15 290 -15 c 0,16,17
 231 -15 231 -15 163.5 14.5 c 128,-1,18
 96 44 96 44 96 69 c 0,19,20
 96 76 96 76 102 82 c 128,-1,21
 108 88 108 88 115 88 c 128,-1,22
 122 88 122 88 143 72.5 c 128,-1,23
 164 57 164 57 203 41.5 c 128,-1,24
 242 26 242 26 291 26 c 0,25,26
 359 26 359 26 408.5 68 c 128,-1,27
 458 110 458 110 458 168 c 0,28,29
 458 227 458 227 405 269.5 c 128,-1,30
 352 312 352 312 279 312 c 0,31,32
 252 312 252 312 252 333 c 0,33,34
 252 353 252 353 279 353 c 0,35,36
 436 353 436 353 436 463 c 0,37,38
 436 512 436 512 397 544.5 c 128,-1,39
 358 577 358 577 300 577 c 0,40,41
 258 577 258 577 228.5 566.5 c 128,-1,42
 199 556 199 556 187.5 543 c 128,-1,43
 176 530 176 530 165 519.5 c 128,-1,44
 154 509 154 509 145 509 c 0,45,46
 137 509 137 509 131 514.5 c 128,-1,47
 125 520 125 520 125 528 c 0,0,1
EndSplineSet
EndChar

StartChar: four
Encoding: 52 52 23
Width: 600
GlyphClass: 2
Flags: W
LayerCount: 2
Fore
SplineSet
376 169 m 1,0,-1
 105 169 l 1,1,-1
 105 216 l 1,2,-1
 333 604 l 1,3,-1
 417 604 l 1,4,-1
 417 210 l 1,5,-1
 451 210 l 2,6,7
 478 210 478 210 478 189 c 0,8,9
 478 169 478 169 451 169 c 2,10,-1
 417 169 l 1,11,-1
 417 41 l 1,12,-1
 451 41 l 2,13,14
 478 41 478 41 478 21 c 0,15,16
 478 0 478 0 451 0 c 2,17,-1
 300 0 l 2,18,19
 273 0 273 0 273 21 c 0,20,21
 273 41 273 41 300 41 c 2,22,-1
 376 41 l 1,23,-1
 376 169 l 1,0,-1
376 210 m 1,24,-1
 376 563 l 1,25,-1
 352 563 l 1,26,-1
 144 210 l 1,27,-1
 376 210 l 1,24,-1
EndSplineSet
EndChar

StartChar: five
Encoding: 53 53 24
Width: 600
GlyphClass: 2
Flags: W
LayerCount: 2
Fore
SplineSet
316 354 m 0,0,1
 277 354 277 354 246 344 c 128,-1,2
 215 334 215 334 196 323.5 c 128,-1,3
 177 313 177 313 168 313 c 0,4,5
 149 313 149 313 149 335 c 2,6,-1
 149 604 l 1,7,-1
 431 604 l 2,8,9
 459 604 459 604 459 584 c 0,10,11
 459 563 459 563 431 563 c 2,12,-1
 190 563 l 1,13,-1
 190 365 l 1,14,15
 263 395 263 395 322 395 c 0,16,17
 399 395 399 395 449 340 c 128,-1,18
 499 285 499 285 499 201 c 0,19,20
 499 106 499 106 441.5 45.5 c 128,-1,21
 384 -15 384 -15 295 -15 c 0,22,23
 256 -15 256 -15 217.5 -3 c 128,-1,24
 179 9 179 9 153.5 25.5 c 128,-1,25
 128 42 128 42 112 58 c 128,-1,26
 96 74 96 74 96 82 c 128,-1,27
 96 90 96 90 102 96 c 128,-1,28
 108 102 108 102 116 102 c 0,29,30
 123 102 123 102 144 83 c 128,-1,31
 165 64 165 64 204 45 c 128,-1,32
 243 26 243 26 293 26 c 0,33,34
 366 26 366 26 412 75 c 128,-1,35
 458 124 458 124 458 203 c 0,36,37
 458 270 458 270 418.5 312 c 128,-1,38
 379 354 379 354 316 354 c 0,0,1
EndSplineSet
EndChar

StartChar: six
Encoding: 54 54 25
Width: 600
GlyphClass: 2
Flags: W
LayerCount: 2
Fore
SplineSet
488 563 m 0,0,1
 485 563 485 563 468.5 570 c 128,-1,2
 452 577 452 577 424 577 c 0,3,4
 384 577 384 577 342 558.5 c 128,-1,5
 300 540 300 540 262 506 c 128,-1,6
 224 472 224 472 199.5 414 c 128,-1,7
 175 356 175 356 175 285 c 0,8,9
 175 280 175 280 177 242 c 1,10,11
 238 364 238 364 343 364 c 0,12,13
 411 364 411 364 460.5 309 c 128,-1,14
 510 254 510 254 510 178 c 0,15,16
 510 97 510 97 460 41 c 128,-1,17
 410 -15 410 -15 337 -15 c 0,18,19
 248 -15 248 -15 192 68 c 128,-1,20
 136 151 136 151 136 282 c 0,21,22
 136 431 136 431 220.5 524.5 c 128,-1,23
 305 618 305 618 428 618 c 0,24,25
 460 618 460 618 483.5 607.5 c 128,-1,26
 507 597 507 597 507 583 c 0,27,28
 507 575 507 575 501.5 569 c 128,-1,29
 496 563 496 563 488 563 c 0,0,1
183 188 m 1,30,31
 204 107 204 107 241 66.5 c 128,-1,32
 278 26 278 26 338 26 c 0,33,34
 394 26 394 26 431.5 70 c 128,-1,35
 469 114 469 114 469 178 c 0,36,37
 469 237 469 237 431.5 280 c 128,-1,38
 394 323 394 323 342 323 c 0,39,40
 317 323 317 323 292.5 311 c 128,-1,41
 268 299 268 299 253 286.5 c 128,-1,42
 238 274 238 274 220.5 249.5 c 128,-1,43
 203 225 203 225 198.5 217 c 128,-1,44
 194 209 194 209 183 188 c 1,30,31
EndSplineSet
EndChar

StartChar: seven
Encoding: 55 55 26
Width: 600
GlyphClass: 2
Flags: W
LayerCount: 2
Fore
SplineSet
437 545 m 1,0,-1
 437 563 l 1,1,-1
 146 563 l 1,2,-1
 146 528 l 2,3,4
 146 500 146 500 126 500 c 0,5,6
 105 500 105 500 105 528 c 2,7,-1
 105 604 l 1,8,-1
 478 604 l 1,9,-1
 478 539 l 1,10,-1
 315 20 l 2,11,12
 308 -1 308 -1 295 -1 c 0,13,14
 287 -1 287 -1 281 5 c 128,-1,15
 275 11 275 11 275 19 c 0,16,17
 275 24 275 24 277 32 c 2,18,-1
 437 545 l 1,0,-1
EndSplineSet
EndChar

StartChar: eight
Encoding: 56 56 27
Width: 600
GlyphClass: 2
Flags: W
LayerCount: 2
Fore
SplineSet
375 313 m 1,0,1
 487 262 487 262 487 161 c 0,2,3
 487 88 487 88 432 36.5 c 128,-1,4
 377 -15 377 -15 300 -15 c 128,-1,5
 223 -15 223 -15 168 36.5 c 128,-1,6
 113 88 113 88 113 161 c 0,7,8
 113 261 113 261 225 313 c 1,9,10
 123 365 123 365 123 453 c 0,11,12
 123 520 123 520 175.5 569 c 128,-1,13
 228 618 228 618 300 618 c 128,-1,14
 372 618 372 618 424.5 569 c 128,-1,15
 477 520 477 520 477 453 c 0,16,17
 477 365 477 365 375 313 c 1,0,1
300 577 m 128,-1,19
 243 577 243 577 203.5 540.5 c 128,-1,20
 164 504 164 504 164 451 c 0,21,22
 164 402 164 402 203.5 367.5 c 128,-1,23
 243 333 243 333 300 333 c 0,24,25
 356 333 356 333 396 367 c 128,-1,26
 436 401 436 401 436 450 c 0,27,28
 436 503 436 503 396.5 540 c 128,-1,18
 357 577 357 577 300 577 c 128,-1,19
300 293 m 0,29,30
 239 293 239 293 196.5 255 c 128,-1,31
 154 217 154 217 154 161 c 128,-1,32
 154 105 154 105 196.5 65.5 c 128,-1,33
 239 26 239 26 300 26 c 0,34,35
 360 26 360 26 403 65.5 c 128,-1,36
 446 105 446 105 446 160 c 0,37,38
 446 217 446 217 404 255 c 128,-1,39
 362 293 362 293 300 293 c 0,29,30
EndSplineSet
EndChar

StartChar: nine
Encoding: 57 57 28
Width: 600
GlyphClass: 2
Flags: W
LayerCount: 2
Fore
SplineSet
158 40 m 0,0,1
 161 40 161 40 177.5 33 c 128,-1,2
 194 26 194 26 222 26 c 0,3,4
 262 26 262 26 304 44.5 c 128,-1,5
 346 63 346 63 384 97 c 128,-1,6
 422 131 422 131 446.5 189 c 128,-1,7
 471 247 471 247 471 318 c 0,8,9
 471 323 471 323 469 361 c 1,10,11
 408 239 408 239 303 239 c 0,12,13
 235 239 235 239 185.5 294 c 128,-1,14
 136 349 136 349 136 425 c 0,15,16
 136 506 136 506 186 562 c 128,-1,17
 236 618 236 618 309 618 c 0,18,19
 398 618 398 618 454 535 c 128,-1,20
 510 452 510 452 510 321 c 0,21,22
 510 172 510 172 425.5 78.5 c 128,-1,23
 341 -15 341 -15 218 -15 c 0,24,25
 186 -15 186 -15 162.5 -4.5 c 128,-1,26
 139 6 139 6 139 20 c 0,27,28
 139 28 139 28 144.5 34 c 128,-1,29
 150 40 150 40 158 40 c 0,0,1
463 415 m 1,30,31
 442 496 442 496 405 536.5 c 128,-1,32
 368 577 368 577 308 577 c 0,33,34
 252 577 252 577 214.5 533 c 128,-1,35
 177 489 177 489 177 425 c 0,36,37
 177 366 177 366 214.5 323 c 128,-1,38
 252 280 252 280 304 280 c 0,39,40
 329 280 329 280 353.5 292 c 128,-1,41
 378 304 378 304 393 316.5 c 128,-1,42
 408 329 408 329 425.5 353.5 c 128,-1,43
 443 378 443 378 447.5 386 c 128,-1,44
 452 394 452 394 463 415 c 1,30,31
EndSplineSet
EndChar

StartChar: colon
Encoding: 58 58 29
Width: 600
GlyphClass: 2
Flags: W
LayerCount: 2
Fore
SplineSet
295 116 m 2,0,-1
 305 116 l 2,1,2
 334 116 334 116 354 97.5 c 128,-1,3
 374 79 374 79 374 51 c 128,-1,4
 374 23 374 23 354 4 c 128,-1,5
 334 -15 334 -15 305 -15 c 2,6,-1
 295 -15 l 2,7,8
 266 -15 266 -15 246 4 c 128,-1,9
 226 23 226 23 226 51 c 128,-1,10
 226 79 226 79 246 97.5 c 128,-1,11
 266 116 266 116 295 116 c 2,0,-1
295 417 m 2,12,-1
 305 417 l 2,13,14
 334 417 334 417 354 398 c 128,-1,15
 374 379 374 379 374 351 c 128,-1,16
 374 323 374 323 354 304 c 128,-1,17
 334 285 334 285 305 285 c 2,18,-1
 295 285 l 2,19,20
 266 285 266 285 246 304 c 128,-1,21
 226 323 226 323 226 351 c 128,-1,22
 226 379 226 379 246 398 c 128,-1,23
 266 417 266 417 295 417 c 2,12,-1
EndSplineSet
EndChar

StartChar: semicolon
Encoding: 59 59 30
Width: 600
GlyphClass: 2
Flags: W
LayerCount: 2
Fore
SplineSet
211 145 m 1,0,-1
 344 145 l 1,1,-1
 199 -120 l 2,2,3
 186 -145 186 -145 168 -145 c 0,4,5
 156 -145 156 -145 147.5 -136.5 c 128,-1,6
 139 -128 139 -128 139 -116 c 0,7,8
 139 -113 139 -113 141 -105 c 2,9,-1
 211 145 l 1,0,-1
271 417 m 2,10,-1
 281 417 l 2,11,12
 310 417 310 417 330 398 c 128,-1,13
 350 379 350 379 350 351 c 128,-1,14
 350 323 350 323 330 304 c 128,-1,15
 310 285 310 285 281 285 c 2,16,-1
 271 285 l 2,17,18
 242 285 242 285 222 304 c 128,-1,19
 202 323 202 323 202 351 c 128,-1,20
 202 379 202 379 222 398 c 128,-1,21
 242 417 242 417 271 417 c 2,10,-1
EndSplineSet
EndChar

StartChar: less
Encoding: 60 60 31
Width: 600
GlyphClass: 2
Flags: W
LayerCount: 2
Fore
SplineSet
522 67 m 0,0,1
 522 60 522 60 516 52 c 128,-1,2
 510 44 510 44 502 44 c 0,3,4
 497 44 497 44 489 49 c 2,5,-1
 72 281 l 1,6,-1
 490 513 l 2,7,8
 498 518 498 518 502 518 c 0,9,10
 509 518 509 518 515.5 511 c 128,-1,11
 522 504 522 504 522 496 c 0,12,13
 522 485 522 485 509 478 c 2,14,-1
 154 281 l 1,15,-1
 509 84 l 2,16,17
 522 77 522 77 522 67 c 0,0,1
EndSplineSet
EndChar

StartChar: equal
Encoding: 61 61 32
Width: 600
GlyphClass: 2
Flags: W
LayerCount: 2
Fore
SplineSet
522 334 m 2,0,-1
 78 334 l 2,1,2
 51 334 51 334 51 355 c 0,3,4
 51 375 51 375 78 375 c 2,5,-1
 522 375 l 2,6,7
 549 375 549 375 549 355 c 0,8,9
 549 334 549 334 522 334 c 2,0,-1
522 190 m 2,10,-1
 78 190 l 2,11,12
 51 190 51 190 51 211 c 0,13,14
 51 231 51 231 78 231 c 2,15,-1
 522 231 l 2,16,17
 549 231 549 231 549 211 c 0,18,19
 549 190 549 190 522 190 c 2,10,-1
EndSplineSet
EndChar

StartChar: greater
Encoding: 62 62 33
Width: 600
GlyphClass: 2
Flags: W
LayerCount: 2
Fore
SplineSet
78 496 m 0,0,1
 78 501 78 501 83.5 509.5 c 128,-1,2
 89 518 89 518 98 518 c 0,3,4
 103 518 103 518 111 513 c 2,5,-1
 528 281 l 1,6,-1
 110 49 l 2,7,8
 102 44 102 44 98 44 c 0,9,10
 90 44 90 44 84 51 c 128,-1,11
 78 58 78 58 78 67 c 0,12,13
 78 77 78 77 91 84 c 2,14,-1
 446 281 l 1,15,-1
 91 478 l 2,16,17
 78 485 78 485 78 496 c 0,0,1
EndSplineSet
EndChar

StartChar: question
Encoding: 63 63 34
Width: 600
GlyphClass: 2
Flags: W
LayerCount: 2
Fore
SplineSet
134 529 m 1,0,1
 144 532 144 532 175 546.5 c 128,-1,2
 206 561 206 561 237.5 569 c 128,-1,3
 269 577 269 577 309 577 c 0,4,5
 389 577 389 577 438 534.5 c 128,-1,6
 487 492 487 492 487 423 c 0,7,8
 487 367 487 367 451.5 329 c 128,-1,9
 416 291 416 291 322 247 c 1,10,-1
 322 206 l 2,11,12
 322 179 322 179 302 179 c 0,13,14
 281 179 281 179 281 206 c 2,15,-1
 281 274 l 1,16,17
 369 311 369 311 407.5 345.5 c 128,-1,18
 446 380 446 380 446 423 c 0,19,20
 446 473 446 473 406 504.5 c 128,-1,21
 366 536 366 536 304 536 c 0,22,23
 243 536 243 536 175 502 c 1,24,-1
 175 461 l 2,25,26
 175 434 175 434 155 434 c 0,27,28
 134 434 134 434 134 461 c 2,29,-1
 134 529 l 1,0,1
287 85 m 2,30,-1
 314 85 l 2,31,32
 340 85 340 85 355.5 71 c 128,-1,33
 371 57 371 57 371 35 c 128,-1,34
 371 13 371 13 355 -1 c 128,-1,35
 339 -15 339 -15 314 -15 c 2,36,-1
 287 -15 l 2,37,38
 261 -15 261 -15 245.5 -1 c 128,-1,39
 230 13 230 13 230 35 c 128,-1,40
 230 57 230 57 245.5 71 c 128,-1,41
 261 85 261 85 287 85 c 2,30,-1
EndSplineSet
EndChar

StartChar: at
Encoding: 64 64 35
Width: 600
GlyphClass: 2
Flags: W
LayerCount: 2
Fore
SplineSet
299 -62 m 0,0,1
 212 -62 212 -62 158.5 12.5 c 128,-1,2
 105 87 105 87 105 198 c 2,3,-1
 105 361 l 2,4,5
 105 475 105 475 160 549.5 c 128,-1,6
 215 624 215 624 300 624 c 0,7,8
 368 624 368 624 413.5 578 c 128,-1,9
 459 532 459 532 459 463 c 2,10,-1
 459 186 l 1,11,12
 478 183 478 183 478 166 c 0,13,14
 478 145 478 145 451 145 c 2,15,-1
 418 145 l 1,16,-1
 418 150 l 1,17,18
 388 147 388 147 378 147 c 0,19,20
 320 147 320 147 281 183 c 128,-1,21
 242 219 242 219 242 272 c 0,22,23
 242 333 242 333 290.5 374.5 c 128,-1,24
 339 416 339 416 418 416 c 1,25,-1
 418 463 l 2,26,27
 418 515 418 515 385 549 c 128,-1,28
 352 583 352 583 301 583 c 0,29,30
 233 583 233 583 189.5 520 c 128,-1,31
 146 457 146 457 146 358 c 2,32,-1
 146 198 l 2,33,34
 146 105 146 105 189 42 c 128,-1,35
 232 -21 232 -21 305 -21 c 0,36,37
 347 -21 347 -21 373.5 -10.5 c 128,-1,38
 400 0 400 0 411.5 10 c 128,-1,39
 423 20 423 20 429 20 c 0,40,41
 437 20 437 20 443 14.5 c 128,-1,42
 449 9 449 9 449 1 c 0,43,44
 449 -22 449 -22 401.5 -42 c 128,-1,45
 354 -62 354 -62 299 -62 c 0,0,1
418 192 m 1,46,-1
 418 376 l 1,47,48
 359 376 359 376 321 347 c 128,-1,49
 283 318 283 318 283 273 c 0,50,51
 283 235 283 235 310.5 211.5 c 128,-1,52
 338 188 338 188 381 188 c 0,53,54
 402 188 402 188 418 192 c 1,46,-1
EndSplineSet
EndChar

StartChar: A
Encoding: 65 65 36
Width: 600
GlyphClass: 2
Flags: W
AnchorPoint: "Anchor-3" 266 563 basechar 0
LayerCount: 2
Fore
SplineSet
428 188 m 1,0,-1
 162 188 l 1,1,-1
 108 41 l 1,2,-1
 187 41 l 2,3,4
 214 41 214 41 214 21 c 0,5,6
 214 0 214 0 187 0 c 2,7,-1
 36 0 l 2,8,9
 9 0 9 0 9 21 c 0,10,11
 9 41 9 41 36 41 c 2,12,-1
 67 41 l 1,13,-1
 246 522 l 1,14,-1
 126 522 l 2,15,16
 99 522 99 522 99 543 c 0,17,18
 99 563 99 563 126 563 c 2,19,-1
 330 563 l 1,20,-1
 527 41 l 1,21,-1
 564 41 l 2,22,23
 591 41 591 41 591 21 c 0,24,25
 591 0 591 0 564 0 c 2,26,-1
 408 0 l 2,27,28
 381 0 381 0 381 21 c 0,29,30
 381 41 381 41 408 41 c 2,31,-1
 484 41 l 1,32,-1
 428 188 l 1,0,-1
413 229 m 1,33,-1
 301 522 l 1,34,-1
 286 522 l 1,35,-1
 178 229 l 1,36,-1
 413 229 l 1,33,-1
EndSplineSet
EndChar

StartChar: B
Encoding: 66 66 37
Width: 600
GlyphClass: 2
Flags: W
AnchorPoint: "Anchor-3" 325 587 basechar 0
LayerCount: 2
Fore
SplineSet
144 604 m 1,0,-1
 144 328 l 1,1,2
 217 431 217 431 324 431 c 0,3,4
 415 431 415 431 478 367 c 128,-1,5
 541 303 541 303 541 210 c 0,6,7
 541 116 541 116 477.5 50 c 128,-1,8
 414 -16 414 -16 324 -16 c 0,9,10
 214 -16 214 -16 144 88 c 1,11,-1
 144 0 l 1,12,-1
 49 0 l 2,13,14
 22 0 22 0 22 21 c 0,15,16
 22 41 22 41 49 41 c 2,17,-1
 103 41 l 1,18,-1
 103 563 l 1,19,-1
 49 563 l 2,20,21
 22 563 22 563 22 584 c 0,22,23
 22 604 22 604 49 604 c 2,24,-1
 144 604 l 1,0,-1
322 390 m 0,25,26
 248 390 248 390 196 337 c 128,-1,27
 144 284 144 284 144 208 c 128,-1,28
 144 132 144 132 196 78.5 c 128,-1,29
 248 25 248 25 322 25 c 0,30,31
 395 25 395 25 447.5 78 c 128,-1,32
 500 131 500 131 500 205 c 0,33,34
 500 283 500 283 448.5 336.5 c 128,-1,35
 397 390 397 390 322 390 c 0,25,26
EndSplineSet
EndChar

StartChar: C
Encoding: 67 67 38
Width: 600
GlyphClass: 2
Flags: W
AnchorPoint: "Anchor-3" 295 437 basechar 0
LayerCount: 2
Fore
SplineSet
535 88 m 0,0,1
 535 79 535 79 518 62.5 c 128,-1,2
 501 46 501 46 473.5 28 c 128,-1,3
 446 10 446 10 401 -3 c 128,-1,4
 356 -16 356 -16 309 -16 c 0,5,6
 211 -16 211 -16 147.5 46 c 128,-1,7
 84 108 84 108 84 204 c 0,8,9
 84 303 84 303 149 367 c 128,-1,10
 214 431 214 431 314 431 c 0,11,12
 407 431 407 431 470 376 c 1,13,-1
 470 389 l 2,14,15
 470 417 470 417 491 417 c 0,16,17
 511 417 511 417 511 389 c 2,18,-1
 511 298 l 2,19,20
 511 271 511 271 491 271 c 0,21,22
 473 271 473 271 470 295 c 0,23,24
 467 335 467 335 420.5 362.5 c 128,-1,25
 374 390 374 390 311 390 c 0,26,27
 228 390 228 390 176.5 338.5 c 128,-1,28
 125 287 125 287 125 205 c 0,29,30
 125 126 125 126 177 75.5 c 128,-1,31
 229 25 229 25 311 25 c 0,32,33
 420 25 420 25 498 97 c 0,34,35
 508 107 508 107 516 107 c 128,-1,36
 524 107 524 107 529.5 101.5 c 128,-1,37
 535 96 535 96 535 88 c 0,0,1
EndSplineSet
EndChar

StartChar: D
Encoding: 68 68 39
Width: 600
GlyphClass: 2
Flags: W
AnchorPoint: "Anchor-3" 281 587 basechar 0
LayerCount: 2
Fore
SplineSet
502 604 m 1,0,-1
 502 41 l 1,1,-1
 556 41 l 2,2,3
 583 41 583 41 583 21 c 0,4,5
 583 0 583 0 556 0 c 2,6,-1
 461 0 l 1,7,-1
 461 89 l 1,8,9
 390 -16 390 -16 279 -16 c 0,10,11
 190 -16 190 -16 126.5 50 c 128,-1,12
 63 116 63 116 63 208 c 128,-1,13
 63 300 63 300 126.5 365.5 c 128,-1,14
 190 431 190 431 279 431 c 0,15,16
 389 431 389 431 461 327 c 1,17,-1
 461 563 l 1,18,-1
 407 563 l 2,19,20
 380 563 380 563 380 584 c 0,21,22
 380 604 380 604 407 604 c 2,23,-1
 502 604 l 1,0,-1
282 390 m 0,24,25
 208 390 208 390 156 337 c 128,-1,26
 104 284 104 284 104 208 c 0,27,28
 104 131 104 131 156 78 c 128,-1,29
 208 25 208 25 283 25 c 0,30,31
 357 25 357 25 409 78 c 128,-1,32
 461 131 461 131 461 206 c 0,33,34
 461 284 461 284 409.5 337 c 128,-1,35
 358 390 358 390 282 390 c 0,24,25
EndSplineSet
EndChar

StartChar: E
Encoding: 69 69 40
Width: 600
GlyphClass: 2
Flags: W
LayerCount: 2
Fore
SplineSet
522 261 m 2,0,-1
 78 261 l 2,1,2
 51 261 51 261 51 282 c 0,3,4
 51 302 51 302 78 302 c 2,5,-1
 522 302 l 2,6,7
 549 302 549 302 549 282 c 0,8,9
 549 261 549 261 522 261 c 2,0,-1
522 405 m 2,10,-1
 78 405 l 2,11,12
 51 405 51 405 51 426 c 0,13,14
 51 446 51 446 78 446 c 2,15,-1
 522 446 l 2,16,17
 549 446 549 446 549 426 c 0,18,19
 549 405 549 405 522 405 c 2,10,-1
522 107 m 2,20,-1
 78 107 l 2,21,22
 51 107 51 107 51 128 c 0,23,24
 51 148 51 148 78 148 c 2,25,-1
 522 148 l 2,26,27
 549 148 549 148 549 128 c 0,28,29
 549 107 549 107 522 107 c 2,20,-1
EndSplineSet
EndChar

StartChar: F
Encoding: 70 70 41
Width: 600
GlyphClass: 2
Flags: W
LayerCount: 2
Fore
SplineSet
332 167 m 0,0,1
 324 167 324 167 318 175 c 128,-1,2
 312 183 312 183 312 190 c 0,3,4
 312 200 312 200 325 207 c 2,5,-1
 423 261 l 1,6,-1
 81 261 l 2,7,8
 54 261 54 261 54 282 c 0,9,10
 54 302 54 302 81 302 c 2,11,-1
 421 302 l 1,12,-1
 325 355 l 2,13,14
 312 362 312 362 312 373 c 0,15,16
 312 380 312 380 318.5 387.5 c 128,-1,17
 325 395 325 395 332 395 c 0,18,19
 336 395 336 395 344 390 c 2,20,-1
 541 281 l 1,21,-1
 345 172 l 2,22,23
 337 167 337 167 332 167 c 0,0,1
EndSplineSet
EndChar

StartChar: G
Encoding: 71 71 42
Width: 600
GlyphClass: 2
Flags: W
AnchorPoint: "Anchor-3" 275 437 basechar 0
LayerCount: 2
Fore
SplineSet
440 334 m 1,0,-1
 440 417 l 1,1,-1
 535 417 l 2,2,3
 562 417 562 417 562 397 c 0,4,5
 562 376 562 376 535 376 c 2,6,-1
 481 376 l 1,7,-1
 481 -28 l 2,8,9
 481 -92 481 -92 433 -139 c 128,-1,10
 385 -186 385 -186 316 -186 c 2,11,-1
 202 -186 l 2,12,13
 175 -186 175 -186 175 -165 c 0,14,15
 175 -145 175 -145 202 -145 c 2,16,-1
 318 -145 l 2,17,18
 369 -145 369 -145 404.5 -109 c 128,-1,19
 440 -73 440 -73 440 -22 c 2,20,-1
 440 107 l 1,21,22
 374 10 374 10 269 10 c 0,23,24
 184 10 184 10 123.5 72 c 128,-1,25
 63 134 63 134 63 221 c 128,-1,26
 63 308 63 308 123.5 369.5 c 128,-1,27
 184 431 184 431 269 431 c 0,28,29
 375 431 375 431 440 334 c 1,0,-1
272 390 m 0,30,31
 202 390 202 390 153 341 c 128,-1,32
 104 292 104 292 104 221 c 128,-1,33
 104 150 104 150 153 100.5 c 128,-1,34
 202 51 202 51 272 51 c 128,-1,35
 342 51 342 51 391 100 c 128,-1,36
 440 149 440 149 440 219 c 0,37,38
 440 292 440 292 391.5 341 c 128,-1,39
 343 390 343 390 272 390 c 0,30,31
EndSplineSet
EndChar

StartChar: H
Encoding: 72 72 43
Width: 600
GlyphClass: 2
Flags: W
LayerCount: 2
Fore
SplineSet
501 262 m 2,0,-1
 99 262 l 2,1,2
 72 262 72 262 72 282 c 128,-1,3
 72 302 72 302 99 302 c 2,4,-1
 501 302 l 2,5,6
 528 302 528 302 528 282 c 128,-1,7
 528 262 528 262 501 262 c 2,0,-1
300 124 m 0,8,9
 321 124 321 124 335.5 109.5 c 128,-1,10
 350 95 350 95 350 74 c 0,11,12
 350 54 350 54 335 39.5 c 128,-1,13
 320 25 320 25 300 25 c 128,-1,14
 280 25 280 25 265.5 39.5 c 128,-1,15
 251 54 251 54 251 75 c 0,16,17
 251 95 251 95 265.5 109.5 c 128,-1,18
 280 124 280 124 300 124 c 0,8,9
300 540 m 0,19,20
 321 540 321 540 335.5 525.5 c 128,-1,21
 350 511 350 511 350 490 c 0,22,23
 350 470 350 470 335 455.5 c 128,-1,24
 320 441 320 441 300 441 c 128,-1,25
 280 441 280 441 265.5 455.5 c 128,-1,26
 251 470 251 470 251 491 c 0,27,28
 251 511 251 511 265.5 525.5 c 128,-1,29
 280 540 280 540 300 540 c 0,19,20
EndSplineSet
EndChar

StartChar: I
Encoding: 73 73 44
Width: 600
GlyphClass: 2
Flags: W
LayerCount: 2
Fore
SplineSet
231 190 m 1,0,-1
 78 190 l 2,1,2
 51 190 51 190 51 210 c 128,-1,3
 51 230 51 230 78 230 c 2,4,-1
 251 230 l 1,5,-1
 303 334 l 1,6,-1
 78 334 l 2,7,8
 51 334 51 334 51 354 c 128,-1,9
 51 374 51 374 78 374 c 2,10,-1
 323 374 l 1,11,-1
 363 453 l 2,12,13
 369 464 369 464 380 464 c 0,14,15
 389 464 389 464 396 458 c 128,-1,16
 403 452 403 452 403 444 c 0,17,18
 403 441 403 441 401 437 c 2,19,-1
 369 374 l 1,20,-1
 522 374 l 2,21,22
 549 374 549 374 549 354 c 128,-1,23
 549 334 549 334 522 334 c 2,24,-1
 349 334 l 1,25,-1
 297 230 l 1,26,-1
 522 230 l 2,27,28
 549 230 549 230 549 210 c 128,-1,29
 549 190 549 190 522 190 c 2,30,-1
 276 190 l 1,31,-1
 233 105 l 2,32,33
 227 94 227 94 216 94 c 0,34,35
 207 94 207 94 200.5 99.5 c 128,-1,36
 194 105 194 105 194 113 c 0,37,38
 194 115 194 115 196 121 c 2,39,-1
 231 190 l 1,0,-1
EndSplineSet
EndChar

StartChar: J
Encoding: 74 74 45
Width: 600
GlyphClass: 2
Flags: W
AnchorPoint: "Anchor-3" 353 633 basechar 0
LayerCount: 2
Fore
SplineSet
387 376 m 1,0,-1
 146 376 l 2,1,2
 119 376 119 376 119 397 c 0,3,4
 119 417 119 417 146 417 c 2,5,-1
 428 417 l 1,6,-1
 428 -28 l 2,7,8
 428 -98 428 -98 384.5 -142 c 128,-1,9
 341 -186 341 -186 273 -186 c 2,10,-1
 144 -186 l 2,11,12
 117 -186 117 -186 117 -165 c 0,13,14
 117 -145 117 -145 144 -145 c 2,15,-1
 272 -145 l 2,16,17
 322 -145 322 -145 354.5 -112 c 128,-1,18
 387 -79 387 -79 387 -28 c 2,19,-1
 387 376 l 1,0,-1
384 624 m 1,20,-1
 384 520 l 1,21,-1
 325 520 l 1,22,-1
 325 624 l 1,23,-1
 384 624 l 1,20,-1
EndSplineSet
EndChar

StartChar: L
Encoding: 76 76 47
Width: 600
GlyphClass: 2
Flags: W
AnchorPoint: "Anchor-3" 310 563 basechar 0
LayerCount: 2
Fore
SplineSet
227 522 m 1,0,-1
 227 41 l 1,1,-1
 500 41 l 1,2,-1
 500 201 l 2,3,4
 500 228 500 228 521 228 c 0,5,6
 541 228 541 228 541 201 c 2,7,-1
 541 0 l 1,8,-1
 90 0 l 2,9,10
 63 0 63 0 63 21 c 0,11,12
 63 41 63 41 90 41 c 2,13,-1
 186 41 l 1,14,-1
 186 522 l 1,15,-1
 90 522 l 2,16,17
 63 522 63 522 63 543 c 0,18,19
 63 563 63 563 90 563 c 2,20,-1
 323 563 l 2,21,22
 350 563 350 563 350 543 c 0,23,24
 350 522 350 522 323 522 c 2,25,-1
 227 522 l 1,0,-1
EndSplineSet
EndChar

StartChar: N
Encoding: 78 78 49
Width: 600
GlyphClass: 2
Flags: W
AnchorPoint: "Anchor-3" 315 437 basechar 0
LayerCount: 2
Fore
SplineSet
319 390 m 0,0,1
 301 390 301 390 284.5 386.5 c 128,-1,2
 268 383 268 383 253.5 375.5 c 128,-1,3
 239 368 239 368 229 361.5 c 128,-1,4
 219 355 219 355 207.5 343 c 128,-1,5
 196 331 196 331 191.5 325.5 c 128,-1,6
 187 320 187 320 177.5 307.5 c 128,-1,7
 168 295 168 295 167 294 c 2,8,-1
 167 41 l 1,9,-1
 212 41 l 2,10,11
 239 41 239 41 239 21 c 0,12,13
 239 0 239 0 212 0 c 2,14,-1
 81 0 l 2,15,16
 53 0 53 0 53 21 c 0,17,18
 53 41 53 41 81 41 c 2,19,-1
 126 41 l 1,20,-1
 126 376 l 1,21,-1
 92 376 l 2,22,23
 65 376 65 376 65 397 c 0,24,25
 65 417 65 417 92 417 c 2,26,-1
 167 417 l 1,27,-1
 167 348 l 1,28,29
 210 396 210 396 243 413.5 c 128,-1,30
 276 431 276 431 323 431 c 0,31,32
 390 431 390 431 435 392 c 128,-1,33
 480 353 480 353 480 295 c 2,34,-1
 480 41 l 1,35,-1
 514 41 l 2,36,37
 541 41 541 41 541 21 c 0,38,39
 541 0 541 0 514 0 c 2,40,-1
 405 0 l 2,41,42
 378 0 378 0 378 21 c 0,43,44
 378 41 378 41 405 41 c 2,45,-1
 439 41 l 1,46,-1
 439 288 l 2,47,48
 439 331 439 331 406.5 360.5 c 128,-1,49
 374 390 374 390 319 390 c 0,0,1
EndSplineSet
EndChar

StartChar: P
Encoding: 80 80 51
Width: 600
GlyphClass: 2
Flags: W
LayerCount: 2
Fore
SplineSet
270 190 m 0,0,1
 270 183 270 183 264 175 c 128,-1,2
 258 167 258 167 250 167 c 0,3,4
 245 167 245 167 237 172 c 2,5,-1
 41 281 l 1,6,-1
 238 390 l 2,7,8
 246 395 246 395 250 395 c 0,9,10
 257 395 257 395 263.5 388 c 128,-1,11
 270 381 270 381 270 373 c 0,12,13
 270 362 270 362 257 355 c 2,14,-1
 161 302 l 1,15,-1
 501 302 l 2,16,17
 528 302 528 302 528 282 c 0,18,19
 528 261 528 261 501 261 c 2,20,-1
 159 261 l 1,21,-1
 257 207 l 2,22,23
 270 200 270 200 270 190 c 0,0,1
EndSplineSet
EndChar

StartChar: Q
Encoding: 81 81 52
Width: 600
GlyphClass: 2
Flags: W
AnchorPoint: "Anchor-3" 285 437 basechar 0
LayerCount: 2
Fore
SplineSet
461 335 m 1,0,-1
 461 417 l 1,1,-1
 556 417 l 2,2,3
 583 417 583 417 583 397 c 0,4,5
 583 376 583 376 556 376 c 2,6,-1
 502 376 l 1,7,-1
 502 -145 l 1,8,-1
 556 -145 l 2,9,10
 583 -145 583 -145 583 -165 c 0,11,12
 583 -186 583 -186 556 -186 c 2,13,-1
 363 -186 l 2,14,15
 336 -186 336 -186 336 -165 c 0,16,17
 336 -145 336 -145 363 -145 c 2,18,-1
 461 -145 l 1,19,-1
 461 106 l 1,20,21
 394 10 394 10 281 10 c 0,22,23
 189 10 189 10 126 71 c 128,-1,24
 63 132 63 132 63 221 c 128,-1,25
 63 310 63 310 126 370.5 c 128,-1,26
 189 431 189 431 282 431 c 0,27,28
 393 431 393 431 461 335 c 1,0,-1
282 390 m 0,29,30
 207 390 207 390 155.5 341 c 128,-1,31
 104 292 104 292 104 221 c 128,-1,32
 104 150 104 150 155.5 100.5 c 128,-1,33
 207 51 207 51 282 51 c 0,34,35
 356 51 356 51 408.5 100 c 128,-1,36
 461 149 461 149 461 219 c 0,37,38
 461 292 461 292 409.5 341 c 128,-1,39
 358 390 358 390 282 390 c 0,29,30
EndSplineSet
EndChar

StartChar: R
Encoding: 82 82 53
Width: 600
GlyphClass: 2
Flags: W
AnchorPoint: "Anchor-3" 315 437 basechar 0
LayerCount: 2
Fore
SplineSet
520 344 m 0,0,1
 515 344 515 344 489 365 c 128,-1,2
 463 386 463 386 438 386 c 0,3,4
 404 386 404 386 367.5 362 c 128,-1,5
 331 338 331 338 248 262 c 1,6,-1
 248 41 l 1,7,-1
 427 41 l 2,8,9
 454 41 454 41 454 20 c 0,10,11
 454 0 454 0 427 0 c 2,12,-1
 111 0 l 2,13,14
 84 0 84 0 84 21 c 0,15,16
 84 41 84 41 111 41 c 2,17,-1
 207 41 l 1,18,-1
 207 376 l 1,19,-1
 132 376 l 2,20,21
 105 376 105 376 105 397 c 0,22,23
 105 417 105 417 132 417 c 2,24,-1
 248 417 l 1,25,-1
 248 315 l 1,26,27
 317 378 317 378 360 402.5 c 128,-1,28
 403 427 403 427 441 427 c 0,29,30
 481 427 481 427 511 403 c 128,-1,31
 541 379 541 379 541 365 c 0,32,33
 541 356 541 356 535 350 c 128,-1,34
 529 344 529 344 520 344 c 0,0,1
EndSplineSet
EndChar

StartChar: S
Encoding: 83 83 54
Width: 600
GlyphClass: 2
Flags: W
AnchorPoint: "Anchor-3" 295 437 basechar 0
LayerCount: 2
Fore
SplineSet
452 117 m 0,0,1
 452 154 452 154 418 174 c 128,-1,2
 384 194 384 194 336 201 c 128,-1,3
 288 208 288 208 240 216 c 128,-1,4
 192 224 192 224 158 249 c 128,-1,5
 124 274 124 274 124 318 c 0,6,7
 124 367 124 367 172.5 399 c 128,-1,8
 221 431 221 431 295 431 c 0,9,10
 380 431 380 431 432 385 c 1,11,-1
 432 389 l 2,12,13
 432 417 432 417 453 417 c 0,14,15
 473 417 473 417 473 389 c 2,16,-1
 473 320 l 2,17,18
 473 293 473 293 453 293 c 0,19,20
 435 293 435 293 432 316 c 0,21,22
 428 350 428 350 392 370 c 128,-1,23
 356 390 356 390 299 390 c 0,24,25
 243 390 243 390 206 368.5 c 128,-1,26
 169 347 169 347 169 315 c 0,27,28
 169 285 169 285 203 269 c 128,-1,29
 237 253 237 253 285 246.5 c 128,-1,30
 333 240 333 240 381 230.5 c 128,-1,31
 429 221 429 221 463 192.5 c 128,-1,32
 497 164 497 164 497 116 c 0,33,34
 497 59 497 59 441.5 21.5 c 128,-1,35
 386 -16 386 -16 301 -16 c 0,36,37
 205 -16 205 -16 144 38 c 1,38,-1
 144 27 l 2,39,40
 144 0 144 0 124 0 c 0,41,42
 103 0 103 0 103 27 c 2,43,-1
 103 110 l 2,44,45
 103 137 103 137 124 137 c 0,46,47
 144 137 144 137 144 115 c 2,48,-1
 144 108 l 2,49,50
 144 74 144 74 189 49.5 c 128,-1,51
 234 25 234 25 298 25 c 0,52,53
 364 25 364 25 408 51 c 128,-1,54
 452 77 452 77 452 117 c 0,0,1
EndSplineSet
EndChar

StartChar: T
Encoding: 84 84 55
Width: 600
GlyphClass: 2
Flags: W
AnchorPoint: "Anchor-3" 315 587 basechar 0
LayerCount: 2
Fore
SplineSet
186 417 m 1,0,-1
 406 417 l 2,1,2
 433 417 433 417 433 397 c 0,3,4
 433 376 433 376 406 376 c 2,5,-1
 186 376 l 1,6,-1
 186 109 l 2,7,8
 186 71 186 71 216 48 c 128,-1,9
 246 25 246 25 298 25 c 0,10,11
 340 25 340 25 387.5 36.5 c 128,-1,12
 435 48 435 48 464 65 c 0,13,14
 474 71 474 71 480 71 c 0,15,16
 487 71 487 71 493 65 c 128,-1,17
 499 59 499 59 499 51 c 0,18,19
 499 29 499 29 431.5 6.5 c 128,-1,20
 364 -16 364 -16 300 -16 c 0,21,22
 229 -16 229 -16 187 17.5 c 128,-1,23
 145 51 145 51 145 107 c 2,24,-1
 145 376 l 1,25,-1
 71 376 l 2,26,27
 43 376 43 376 43 397 c 0,28,29
 43 417 43 417 71 417 c 2,30,-1
 145 417 l 1,31,-1
 145 536 l 2,32,33
 145 563 145 563 166 563 c 0,34,35
 186 563 186 563 186 536 c 2,36,-1
 186 417 l 1,0,-1
EndSplineSet
EndChar

StartChar: U
Encoding: 85 85 56
Width: 600
GlyphClass: 2
Flags: W
LayerCount: 2
Fore
SplineSet
414 316 m 0,0,1
 414 310 414 310 407.5 303 c 128,-1,2
 401 296 401 296 392 296 c 128,-1,3
 383 296 383 296 374 308 c 2,4,-1
 322 404 l 1,5,-1
 322 64 l 2,6,7
 322 38 322 38 302 38 c 0,8,9
 280 38 280 38 280 64 c 2,10,-1
 280 406 l 1,11,-1
 226 308 l 2,12,13
 220 296 220 296 210 296 c 0,14,15
 198 296 198 296 192 303.5 c 128,-1,16
 186 311 186 311 186 316 c 0,17,18
 186 322 186 322 192 328 c 2,19,-1
 300 524 l 1,20,-1
 410 328 l 2,21,22
 411 326 411 326 412 323 c 128,-1,23
 413 320 413 320 413.5 318.5 c 128,-1,24
 414 317 414 317 414 316 c 0,0,1
EndSplineSet
EndChar

StartChar: V
Encoding: 86 86 57
Width: 600
GlyphClass: 2
Flags: W
LayerCount: 2
Fore
SplineSet
186 246 m 0,0,1
 186 251 186 251 192 258.5 c 128,-1,2
 198 266 198 266 210 266 c 0,3,4
 220 266 220 266 226 254 c 2,5,-1
 280 156 l 1,6,-1
 280 498 l 2,7,8
 280 524 280 524 302 524 c 0,9,10
 322 524 322 524 322 498 c 2,11,-1
 322 158 l 1,12,-1
 374 254 l 2,13,14
 383 266 383 266 392 266 c 128,-1,15
 401 266 401 266 407.5 259.5 c 128,-1,16
 414 253 414 253 414 246 c 2,17,-1
 410 234 l 1,18,-1
 300 38 l 1,19,-1
 192 234 l 2,20,21
 186 240 186 240 186 246 c 0,0,1
EndSplineSet
EndChar

StartChar: W
Encoding: 87 87 58
Width: 600
GlyphClass: 2
Flags: W
AnchorPoint: "Anchor-3" 270 563 basechar 0
LayerCount: 2
Fore
SplineSet
104 41 m 1,0,-1
 104 522 l 1,1,-1
 70 522 l 2,2,3
 43 522 43 522 43 543 c 0,4,5
 43 563 43 563 70 563 c 2,6,-1
 290 563 l 2,7,8
 387 563 387 563 453.5 489.5 c 128,-1,9
 520 416 520 416 520 310 c 2,10,-1
 520 254 l 2,11,12
 520 147 520 147 453.5 73.5 c 128,-1,13
 387 0 387 0 290 0 c 2,14,-1
 70 0 l 2,15,16
 43 0 43 0 43 21 c 0,17,18
 43 41 43 41 70 41 c 2,19,-1
 104 41 l 1,0,-1
479 318 m 2,20,21
 479 338 479 338 470 368 c 128,-1,22
 461 398 461 398 441.5 434.5 c 128,-1,23
 422 471 422 471 381.5 496.5 c 128,-1,24
 341 522 341 522 288 522 c 2,25,-1
 145 522 l 1,26,-1
 145 41 l 1,27,-1
 295 41 l 2,28,29
 367 41 367 41 423 103 c 128,-1,30
 479 165 479 165 479 245 c 2,31,-1
 479 318 l 2,20,21
EndSplineSet
EndChar

StartChar: X
Encoding: 88 88 59
Width: 600
GlyphClass: 2
Flags: W
AnchorPoint: "Anchor-3" 302 563 basechar 0
LayerCount: 2
Fore
SplineSet
321 41 m 1,0,-1
 426 41 l 2,1,2
 453 41 453 41 453 21 c 0,3,4
 453 0 453 0 426 0 c 2,5,-1
 175 0 l 2,6,7
 148 0 148 0 148 21 c 0,8,9
 148 41 148 41 175 41 c 2,10,-1
 280 41 l 1,11,-1
 280 522 l 1,12,-1
 113 522 l 1,13,-1
 113 449 l 2,14,15
 113 422 113 422 92 422 c 0,16,17
 72 422 72 422 72 449 c 2,18,-1
 72 563 l 1,19,-1
 528 563 l 1,20,-1
 528 449 l 2,21,22
 528 422 528 422 508 422 c 0,23,24
 499 422 499 422 493 429.5 c 128,-1,25
 487 437 487 437 487 449 c 2,26,-1
 487 522 l 1,27,-1
 321 522 l 1,28,-1
 321 41 l 1,0,-1
EndSplineSet
EndChar

StartChar: Y
Encoding: 89 89 60
Width: 600
GlyphClass: 2
Flags: W
AnchorPoint: "Anchor-3" 295 437 basechar 0
AnchorPoint: "Anchor-2" 454 0 basechar 0
LayerCount: 2
Fore
SplineSet
282 0 m 1,0,-1
 94 376 l 1,1,-1
 78 376 l 2,2,3
 51 376 51 376 51 397 c 0,4,5
 51 417 51 417 78 417 c 2,6,-1
 193 417 l 2,7,8
 220 417 220 417 220 397 c 0,9,10
 220 376 220 376 193 376 c 2,11,-1
 141 376 l 1,12,-1
 305 45 l 1,13,-1
 466 376 l 1,14,-1
 412 376 l 2,15,16
 385 376 385 376 385 397 c 0,17,18
 385 417 385 417 412 417 c 2,19,-1
 522 417 l 2,20,21
 549 417 549 417 549 397 c 0,22,23
 549 376 549 376 522 376 c 2,24,-1
 508 376 l 1,25,-1
 252 -145 l 1,26,-1
 317 -145 l 2,27,28
 344 -145 344 -145 344 -165 c 0,29,30
 344 -186 344 -186 317 -186 c 2,31,-1
 84 -186 l 2,32,33
 57 -186 57 -186 57 -165 c 0,34,35
 57 -145 57 -145 84 -145 c 2,36,-1
 211 -145 l 1,37,-1
 282 0 l 1,0,-1
EndSplineSet
EndChar

StartChar: Z
Encoding: 90 90 61
Width: 600
GlyphClass: 2
Flags: W
LayerCount: 2
Fore
SplineSet
454 583 m 1,0,-1
 162 583 l 1,1,-1
 336 327 l 2,2,3
 342 320 342 320 342 314 c 0,4,5
 342 310 342 310 338 302 c 2,6,-1
 156 -27 l 1,7,-1
 464 -27 l 1,8,-1
 469 87 l 2,9,10
 471 108 471 108 485 108 c 2,11,-1
 491 108 l 2,12,13
 507 108 507 108 507 86 c 2,14,-1
 507 -45 l 2,15,16
 507 -67 507 -67 485 -67 c 2,17,-1
 135 -67 l 2,18,19
 113 -67 113 -67 113 -48 c 2,20,-1
 113 -32 l 2,21,22
 113 -24 113 -24 117 -16 c 2,23,-1
 298 317 l 1,24,-1
 119 573 l 2,25,26
 113 581 113 581 113 591 c 2,27,-1
 113 604 l 2,28,29
 113 623 113 623 135 623 c 2,30,-1
 478 623 l 2,31,32
 500 623 500 623 500 601 c 2,33,-1
 500 471 l 2,34,35
 500 449 500 449 484 449 c 2,36,-1
 479 449 l 2,37,38
 465 449 465 449 463 470 c 2,39,-1
 454 583 l 1,0,-1
EndSplineSet
EndChar

StartChar: bracketleft
Encoding: 91 91 62
Width: 600
GlyphClass: 2
Flags: W
LayerCount: 2
Fore
SplineSet
321 563 m 1,0,-1
 321 -83 l 1,1,-1
 418 -83 l 2,2,3
 445 -83 445 -83 445 -103 c 0,4,5
 445 -124 445 -124 418 -124 c 2,6,-1
 280 -124 l 1,7,-1
 280 604 l 1,8,-1
 418 604 l 2,9,10
 445 604 445 604 445 584 c 0,11,12
 445 563 445 563 418 563 c 2,13,-1
 321 563 l 1,0,-1
EndSplineSet
EndChar

StartChar: backslash
Encoding: 92 92 63
Width: 600
GlyphClass: 2
Flags: W
LayerCount: 2
Fore
SplineSet
155 650 m 2,0,-1
 482 -46 l 2,1,2
 487 -55 487 -55 487 -62 c 128,-1,3
 487 -69 487 -69 481 -75 c 128,-1,4
 475 -81 475 -81 467 -81 c 0,5,6
 454 -81 454 -81 445 -63 c 2,7,-1
 118 633 l 2,8,9
 113 643 113 643 113 649 c 0,10,11
 113 656 113 656 119.5 662 c 128,-1,12
 126 668 126 668 134 668 c 0,13,14
 146 668 146 668 155 650 c 2,0,-1
EndSplineSet
EndChar

StartChar: bracketright
Encoding: 93 93 64
Width: 600
GlyphClass: 2
Flags: W
LayerCount: 2
Fore
SplineSet
279 -83 m 1,0,-1
 279 563 l 1,1,-1
 182 563 l 2,2,3
 155 563 155 563 155 583 c 0,4,5
 155 604 155 604 182 604 c 2,6,-1
 320 604 l 1,7,-1
 320 -124 l 1,8,-1
 182 -124 l 2,9,10
 155 -124 155 -124 155 -104 c 0,11,12
 155 -83 155 -83 182 -83 c 2,13,-1
 279 -83 l 1,0,-1
EndSplineSet
EndChar

StartChar: asciicircum
Encoding: 94 94 65
Width: 600
GlyphClass: 2
Flags: W
LayerCount: 2
Fore
SplineSet
300 615 m 1,0,-1
 478 392 l 2,1,2
 487 382 487 382 487 374 c 256,3,4
 487 366 487 366 481 360 c 128,-1,5
 475 354 475 354 467 354 c 0,6,7
 457 354 457 354 447 367 c 2,8,-1
 300 552 l 1,9,-1
 153 367 l 2,10,11
 144 354 144 354 133 354 c 0,12,13
 125 354 125 354 119 360 c 128,-1,14
 113 366 113 366 113 374 c 128,-1,15
 113 382 113 382 122 392 c 2,16,-1
 300 615 l 1,0,-1
EndSplineSet
EndChar

StartChar: underscore
Encoding: 95 95 66
Width: 600
GlyphClass: 2
Flags: W
LayerCount: 2
Fore
SplineSet
600 -75 m 1,0,-1
 600 -125 l 1,1,-1
 0 -125 l 1,2,-1
 0 -75 l 1,3,-1
 600 -75 l 1,0,-1
EndSplineSet
EndChar

StartChar: grave
Encoding: 96 96 67
Width: 600
GlyphClass: 2
Flags: W
LayerCount: 2
Fore
SplineSet
194 630 m 2,0,-1
 308 530 l 2,1,2
 320 519 320 519 320 511 c 0,3,4
 320 502 320 502 314 496 c 128,-1,5
 308 490 308 490 299 490 c 0,6,7
 292 490 292 490 281 499 c 2,8,-1
 167 599 l 2,9,10
 155 610 155 610 155 619 c 0,11,12
 155 627 155 627 161 633 c 128,-1,13
 167 639 167 639 175 639 c 0,14,15
 182 639 182 639 194 630 c 2,0,-1
EndSplineSet
EndChar

StartChar: a
Encoding: 97 97 68
Width: 600
GlyphClass: 2
Flags: W
AnchorPoint: "Anchor-3" 295 437 basechar 0
LayerCount: 2
Fore
SplineSet
125 378 m 0,0,1
 125 400 125 400 193 415.5 c 128,-1,2
 261 431 261 431 299 431 c 0,3,4
 369 431 369 431 414.5 396 c 128,-1,5
 460 361 460 361 460 308 c 2,6,-1
 460 41 l 1,7,-1
 514 41 l 2,8,9
 541 41 541 41 541 21 c 0,10,11
 541 0 541 0 514 0 c 2,12,-1
 419 0 l 1,13,-1
 419 67 l 1,14,15
 330 -16 330 -16 228 -16 c 0,16,17
 158 -16 158 -16 115 19.5 c 128,-1,18
 72 55 72 55 72 112 c 0,19,20
 72 177 72 177 130.5 217.5 c 128,-1,21
 189 258 189 258 283 258 c 0,22,23
 342 258 342 258 419 237 c 1,24,-1
 419 308 l 2,25,26
 419 345 419 345 385 367.5 c 128,-1,27
 351 390 351 390 296 390 c 0,28,29
 250 390 250 390 201 374 c 128,-1,30
 152 358 152 358 144 358 c 128,-1,31
 136 358 136 358 130.5 364 c 128,-1,32
 125 370 125 370 125 378 c 0,0,1
419 112 m 1,33,-1
 419 202 l 1,34,35
 359 217 359 217 291 217 c 0,36,37
 212 217 212 217 162.5 187.5 c 128,-1,38
 113 158 113 158 113 111 c 0,39,40
 113 72 113 72 144 48.5 c 128,-1,41
 175 25 175 25 227 25 c 0,42,43
 280 25 280 25 324.5 45 c 128,-1,44
 369 65 369 65 419 112 c 1,33,-1
EndSplineSet
EndChar

StartChar: b
Encoding: 98 98 69
Width: 600
GlyphClass: 2
Flags: W
AnchorPoint: "Anchor-3" 325 587 basechar 0
LayerCount: 2
Fore
SplineSet
144 604 m 1,0,-1
 144 328 l 1,1,2
 217 431 217 431 324 431 c 0,3,4
 415 431 415 431 478 367 c 128,-1,5
 541 303 541 303 541 210 c 0,6,7
 541 116 541 116 477.5 50 c 128,-1,8
 414 -16 414 -16 324 -16 c 0,9,10
 214 -16 214 -16 144 88 c 1,11,-1
 144 0 l 1,12,-1
 49 0 l 2,13,14
 22 0 22 0 22 21 c 0,15,16
 22 41 22 41 49 41 c 2,17,-1
 103 41 l 1,18,-1
 103 563 l 1,19,-1
 49 563 l 2,20,21
 22 563 22 563 22 584 c 0,22,23
 22 604 22 604 49 604 c 2,24,-1
 144 604 l 1,0,-1
322 390 m 0,25,26
 248 390 248 390 196 337 c 128,-1,27
 144 284 144 284 144 208 c 128,-1,28
 144 132 144 132 196 78.5 c 128,-1,29
 248 25 248 25 322 25 c 0,30,31
 395 25 395 25 447.5 78 c 128,-1,32
 500 131 500 131 500 205 c 0,33,34
 500 283 500 283 448.5 336.5 c 128,-1,35
 397 390 397 390 322 390 c 0,25,26
EndSplineSet
EndChar

StartChar: c
Encoding: 99 99 70
Width: 600
GlyphClass: 2
Flags: W
AnchorPoint: "Anchor-3" 295 437 basechar 0
LayerCount: 2
Fore
SplineSet
535 88 m 0,0,1
 535 79 535 79 518 62.5 c 128,-1,2
 501 46 501 46 473.5 28 c 128,-1,3
 446 10 446 10 401 -3 c 128,-1,4
 356 -16 356 -16 309 -16 c 0,5,6
 211 -16 211 -16 147.5 46 c 128,-1,7
 84 108 84 108 84 204 c 0,8,9
 84 303 84 303 149 367 c 128,-1,10
 214 431 214 431 314 431 c 0,11,12
 407 431 407 431 470 376 c 1,13,-1
 470 389 l 2,14,15
 470 417 470 417 491 417 c 0,16,17
 511 417 511 417 511 389 c 2,18,-1
 511 298 l 2,19,20
 511 271 511 271 491 271 c 0,21,22
 473 271 473 271 470 295 c 0,23,24
 467 335 467 335 420.5 362.5 c 128,-1,25
 374 390 374 390 311 390 c 0,26,27
 228 390 228 390 176.5 338.5 c 128,-1,28
 125 287 125 287 125 205 c 0,29,30
 125 126 125 126 177 75.5 c 128,-1,31
 229 25 229 25 311 25 c 0,32,33
 420 25 420 25 498 97 c 0,34,35
 508 107 508 107 516 107 c 128,-1,36
 524 107 524 107 529.5 101.5 c 128,-1,37
 535 96 535 96 535 88 c 0,0,1
EndSplineSet
EndChar

StartChar: d
Encoding: 100 100 71
Width: 600
GlyphClass: 2
Flags: W
AnchorPoint: "Anchor-3" 281 587 basechar 0
LayerCount: 2
Fore
SplineSet
502 604 m 1,0,-1
 502 41 l 1,1,-1
 556 41 l 2,2,3
 583 41 583 41 583 21 c 0,4,5
 583 0 583 0 556 0 c 2,6,-1
 461 0 l 1,7,-1
 461 89 l 1,8,9
 390 -16 390 -16 279 -16 c 0,10,11
 190 -16 190 -16 126.5 50 c 128,-1,12
 63 116 63 116 63 208 c 128,-1,13
 63 300 63 300 126.5 365.5 c 128,-1,14
 190 431 190 431 279 431 c 0,15,16
 389 431 389 431 461 327 c 1,17,-1
 461 563 l 1,18,-1
 407 563 l 2,19,20
 380 563 380 563 380 584 c 0,21,22
 380 604 380 604 407 604 c 2,23,-1
 502 604 l 1,0,-1
282 390 m 0,24,25
 208 390 208 390 156 337 c 128,-1,26
 104 284 104 284 104 208 c 0,27,28
 104 131 104 131 156 78 c 128,-1,29
 208 25 208 25 283 25 c 0,30,31
 357 25 357 25 409 78 c 128,-1,32
 461 131 461 131 461 206 c 0,33,34
 461 284 461 284 409.5 337 c 128,-1,35
 358 390 358 390 282 390 c 0,24,25
EndSplineSet
EndChar

StartChar: e
Encoding: 101 101 72
Width: 600
GlyphClass: 2
Flags: W
AnchorPoint: "Anchor-3" 295 437 basechar 0
LayerCount: 2
Fore
SplineSet
520 199 m 1,0,-1
 104 199 l 1,1,2
 115 120 115 120 170 72.5 c 128,-1,3
 225 25 225 25 306 25 c 0,4,5
 353 25 353 25 402 40 c 128,-1,6
 451 55 451 55 481 79 c 0,7,8
 491 86 491 86 497 86 c 0,9,10
 505 86 505 86 510.5 80 c 128,-1,11
 516 74 516 74 516 66 c 0,12,13
 516 40 516 40 444.5 12 c 128,-1,14
 373 -16 373 -16 305 -16 c 0,15,16
 204 -16 204 -16 133.5 52 c 128,-1,17
 63 120 63 120 63 217 c 0,18,19
 63 308 63 308 129 369.5 c 128,-1,20
 195 431 195 431 291 431 c 0,21,22
 392 431 392 431 456 367.5 c 128,-1,23
 520 304 520 304 520 199 c 1,0,-1
104 240 m 1,24,-1
 478 240 l 1,25,26
 466 308 466 308 415 349 c 128,-1,27
 364 390 364 390 291 390 c 128,-1,28
 218 390 218 390 168 349.5 c 128,-1,29
 118 309 118 309 104 240 c 1,24,-1
EndSplineSet
EndChar

StartChar: f
Encoding: 102 102 73
Width: 600
GlyphClass: 2
Flags: W
AnchorPoint: "Anchor-3" 295 587 basechar 0
LayerCount: 2
Fore
SplineSet
520 551 m 0,0,1
 518 551 518 551 495 554 c 128,-1,2
 472 557 472 557 439.5 560 c 128,-1,3
 407 563 407 563 382 563 c 0,4,5
 333 563 333 563 302 539.5 c 128,-1,6
 271 516 271 516 271 478 c 2,7,-1
 271 417 l 1,8,-1
 460 417 l 2,9,10
 487 417 487 417 487 397 c 0,11,12
 487 376 487 376 460 376 c 2,13,-1
 271 376 l 1,14,-1
 271 41 l 1,15,-1
 449 41 l 2,16,17
 476 41 476 41 476 21 c 0,18,19
 476 0 476 0 449 0 c 2,20,-1
 132 0 l 2,21,22
 105 0 105 0 105 21 c 0,23,24
 105 41 105 41 132 41 c 2,25,-1
 230 41 l 1,26,-1
 230 376 l 1,27,-1
 142 376 l 2,28,29
 115 376 115 376 115 397 c 0,30,31
 115 417 115 417 142 417 c 2,32,-1
 230 417 l 1,33,-1
 230 478 l 2,34,35
 230 533 230 533 273.5 568.5 c 128,-1,36
 317 604 317 604 384 604 c 0,37,38
 454 604 454 604 523 591 c 0,39,40
 541 586 541 586 541 571 c 0,41,42
 541 551 541 551 520 551 c 0,0,1
EndSplineSet
EndChar

StartChar: g
Encoding: 103 103 74
Width: 600
GlyphClass: 2
Flags: W
AnchorPoint: "Anchor-3" 275 437 basechar 0
LayerCount: 2
Fore
SplineSet
440 334 m 1,0,-1
 440 417 l 1,1,-1
 535 417 l 2,2,3
 562 417 562 417 562 397 c 0,4,5
 562 376 562 376 535 376 c 2,6,-1
 481 376 l 1,7,-1
 481 -28 l 2,8,9
 481 -92 481 -92 433 -139 c 128,-1,10
 385 -186 385 -186 316 -186 c 2,11,-1
 202 -186 l 2,12,13
 175 -186 175 -186 175 -165 c 0,14,15
 175 -145 175 -145 202 -145 c 2,16,-1
 318 -145 l 2,17,18
 369 -145 369 -145 404.5 -109 c 128,-1,19
 440 -73 440 -73 440 -22 c 2,20,-1
 440 107 l 1,21,22
 374 10 374 10 269 10 c 0,23,24
 184 10 184 10 123.5 72 c 128,-1,25
 63 134 63 134 63 221 c 128,-1,26
 63 308 63 308 123.5 369.5 c 128,-1,27
 184 431 184 431 269 431 c 0,28,29
 375 431 375 431 440 334 c 1,0,-1
272 390 m 0,30,31
 202 390 202 390 153 341 c 128,-1,32
 104 292 104 292 104 221 c 128,-1,33
 104 150 104 150 153 100.5 c 128,-1,34
 202 51 202 51 272 51 c 128,-1,35
 342 51 342 51 391 100 c 128,-1,36
 440 149 440 149 440 219 c 0,37,38
 440 292 440 292 391.5 341 c 128,-1,39
 343 390 343 390 272 390 c 0,30,31
EndSplineSet
EndChar

StartChar: h
Encoding: 104 104 75
Width: 600
GlyphClass: 2
Flags: W
AnchorPoint: "Anchor-3" 304 563 basechar 0
LayerCount: 2
Fore
SplineSet
437 272 m 1,0,-1
 167 272 l 1,1,-1
 167 41 l 1,2,-1
 221 41 l 2,3,4
 248 41 248 41 248 21 c 0,5,6
 248 0 248 0 221 0 c 2,7,-1
 81 0 l 2,8,9
 53 0 53 0 53 21 c 0,10,11
 53 41 53 41 81 41 c 2,12,-1
 126 41 l 1,13,-1
 126 522 l 1,14,-1
 101 522 l 2,15,16
 74 522 74 522 74 543 c 0,17,18
 74 563 74 563 101 563 c 2,19,-1
 221 563 l 2,20,21
 248 563 248 563 248 543 c 0,22,23
 248 522 248 522 221 522 c 2,24,-1
 167 522 l 1,25,-1
 167 313 l 1,26,-1
 437 313 l 1,27,-1
 437 522 l 1,28,-1
 383 522 l 2,29,30
 356 522 356 522 356 543 c 0,31,32
 356 563 356 563 383 563 c 2,33,-1
 503 563 l 2,34,35
 530 563 530 563 530 543 c 0,36,37
 530 522 530 522 503 522 c 2,38,-1
 478 522 l 1,39,-1
 478 41 l 1,40,-1
 524 41 l 2,41,42
 551 41 551 41 551 21 c 0,43,44
 551 0 551 0 524 0 c 2,45,-1
 383 0 l 2,46,47
 356 0 356 0 356 21 c 0,48,49
 356 41 356 41 383 41 c 2,50,-1
 437 41 l 1,51,-1
 437 272 l 1,0,-1
EndSplineSet
EndChar

StartChar: i
Encoding: 105 105 76
Width: 600
GlyphClass: 2
Flags: W
AnchorPoint: "Anchor-3" 291 633 basechar 0
LayerCount: 2
Fore
SplineSet
320 417 m 1,0,-1
 320 41 l 1,1,-1
 480 41 l 2,2,3
 508 41 508 41 508 21 c 0,4,5
 508 0 508 0 480 0 c 2,6,-1
 119 0 l 2,7,8
 92 0 92 0 92 21 c 0,9,10
 92 41 92 41 119 41 c 2,11,-1
 279 41 l 1,12,-1
 279 376 l 1,13,-1
 161 376 l 2,14,15
 134 376 134 376 134 397 c 0,16,17
 134 417 134 417 161 417 c 2,18,-1
 320 417 l 1,0,-1
318 624 m 1,19,-1
 318 520 l 1,20,-1
 259 520 l 1,21,-1
 259 624 l 1,22,-1
 318 624 l 1,19,-1
EndSplineSet
EndChar

StartChar: j
Encoding: 106 106 77
Width: 600
GlyphClass: 2
Flags: W
AnchorPoint: "Anchor-3" 353 633 basechar 0
LayerCount: 2
Fore
SplineSet
387 376 m 1,0,-1
 146 376 l 2,1,2
 119 376 119 376 119 397 c 0,3,4
 119 417 119 417 146 417 c 2,5,-1
 428 417 l 1,6,-1
 428 -28 l 2,7,8
 428 -98 428 -98 384.5 -142 c 128,-1,9
 341 -186 341 -186 273 -186 c 2,10,-1
 144 -186 l 2,11,12
 117 -186 117 -186 117 -165 c 0,13,14
 117 -145 117 -145 144 -145 c 2,15,-1
 272 -145 l 2,16,17
 322 -145 322 -145 354.5 -112 c 128,-1,18
 387 -79 387 -79 387 -28 c 2,19,-1
 387 376 l 1,0,-1
384 624 m 1,20,-1
 384 520 l 1,21,-1
 325 520 l 1,22,-1
 325 624 l 1,23,-1
 384 624 l 1,20,-1
EndSplineSet
EndChar

StartChar: l
Encoding: 108 108 79
Width: 600
GlyphClass: 2
Flags: W
AnchorPoint: "Anchor-3" 302 588 basechar 0
LayerCount: 2
Fore
SplineSet
320 604 m 1,0,-1
 320 41 l 1,1,-1
 480 41 l 2,2,3
 508 41 508 41 508 21 c 0,4,5
 508 0 508 0 480 0 c 2,6,-1
 119 0 l 2,7,8
 92 0 92 0 92 21 c 0,9,10
 92 41 92 41 119 41 c 2,11,-1
 279 41 l 1,12,-1
 279 563 l 1,13,-1
 162 563 l 2,14,15
 135 563 135 563 135 584 c 0,16,17
 135 604 135 604 162 604 c 2,18,-1
 320 604 l 1,0,-1
EndSplineSet
EndChar

StartChar: m
Encoding: 109 109 80
Width: 600
GlyphClass: 2
Flags: W
AnchorPoint: "Anchor-3" 295 437 basechar 0
LayerCount: 2
Fore
SplineSet
112 417 m 1,0,-1
 112 365 l 1,1,2
 137 401 137 401 161 416 c 128,-1,3
 185 431 185 431 217 431 c 0,4,5
 281 431 281 431 314 360 c 1,6,7
 369 431 369 431 427 431 c 0,8,9
 470 431 470 431 501 399 c 128,-1,10
 532 367 532 367 532 323 c 2,11,-1
 532 41 l 1,12,-1
 566 41 l 2,13,14
 593 41 593 41 593 21 c 0,15,16
 593 0 593 0 566 0 c 2,17,-1
 492 0 l 1,18,-1
 492 319 l 2,19,20
 492 347 492 347 472 368.5 c 128,-1,21
 452 390 452 390 426 390 c 0,22,23
 376 390 376 390 322 308 c 1,24,-1
 322 41 l 1,25,-1
 356 41 l 2,26,27
 383 41 383 41 383 21 c 0,28,29
 383 0 383 0 356 0 c 2,30,-1
 282 0 l 1,31,-1
 282 316 l 2,32,33
 282 345 282 345 262.5 367.5 c 128,-1,34
 243 390 243 390 217 390 c 0,35,36
 167 390 167 390 112 308 c 1,37,-1
 112 41 l 1,38,-1
 146 41 l 2,39,40
 173 41 173 41 173 21 c 0,41,42
 173 0 173 0 146 0 c 2,43,-1
 37 0 l 2,44,45
 11 0 11 0 11 21 c 0,46,47
 11 41 11 41 38 41 c 2,48,-1
 72 41 l 1,49,-1
 72 376 l 1,50,-1
 38 376 l 2,51,52
 11 376 11 376 11 397 c 0,53,54
 11 417 11 417 38 417 c 2,55,-1
 112 417 l 1,0,-1
EndSplineSet
EndChar

StartChar: n
Encoding: 110 110 81
Width: 600
GlyphClass: 2
Flags: W
AnchorPoint: "Anchor-3" 315 437 basechar 0
LayerCount: 2
Fore
SplineSet
319 390 m 0,0,1
 301 390 301 390 284.5 386.5 c 128,-1,2
 268 383 268 383 253.5 375.5 c 128,-1,3
 239 368 239 368 229 361.5 c 128,-1,4
 219 355 219 355 207.5 343 c 128,-1,5
 196 331 196 331 191.5 325.5 c 128,-1,6
 187 320 187 320 177.5 307.5 c 128,-1,7
 168 295 168 295 167 294 c 2,8,-1
 167 41 l 1,9,-1
 212 41 l 2,10,11
 239 41 239 41 239 21 c 0,12,13
 239 0 239 0 212 0 c 2,14,-1
 81 0 l 2,15,16
 53 0 53 0 53 21 c 0,17,18
 53 41 53 41 81 41 c 2,19,-1
 126 41 l 1,20,-1
 126 376 l 1,21,-1
 92 376 l 2,22,23
 65 376 65 376 65 397 c 0,24,25
 65 417 65 417 92 417 c 2,26,-1
 167 417 l 1,27,-1
 167 348 l 1,28,29
 210 396 210 396 243 413.5 c 128,-1,30
 276 431 276 431 323 431 c 0,31,32
 390 431 390 431 435 392 c 128,-1,33
 480 353 480 353 480 295 c 2,34,-1
 480 41 l 1,35,-1
 514 41 l 2,36,37
 541 41 541 41 541 21 c 0,38,39
 541 0 541 0 514 0 c 2,40,-1
 405 0 l 2,41,42
 378 0 378 0 378 21 c 0,43,44
 378 41 378 41 405 41 c 2,45,-1
 439 41 l 1,46,-1
 439 288 l 2,47,48
 439 331 439 331 406.5 360.5 c 128,-1,49
 374 390 374 390 319 390 c 0,0,1
EndSplineSet
EndChar

StartChar: o
Encoding: 111 111 82
Width: 600
GlyphClass: 2
Flags: W
AnchorPoint: "Anchor-3" 300 437 basechar 0
LayerCount: 2
Fore
SplineSet
300 431 m 0,0,1
 396 431 396 431 462 365.5 c 128,-1,2
 528 300 528 300 528 205 c 0,3,4
 528 113 528 113 461 48.5 c 128,-1,5
 394 -16 394 -16 300 -16 c 0,6,7
 205 -16 205 -16 138.5 49 c 128,-1,8
 72 114 72 114 72 208 c 0,9,10
 72 300 72 300 138.5 365.5 c 128,-1,11
 205 431 205 431 300 431 c 0,0,1
300 390 m 0,12,13
 222 390 222 390 167.5 337 c 128,-1,14
 113 284 113 284 113 208 c 128,-1,15
 113 132 113 132 167.5 78.5 c 128,-1,16
 222 25 222 25 300 25 c 0,17,18
 377 25 377 25 432 78 c 128,-1,19
 487 131 487 131 487 205 c 0,20,21
 487 284 487 284 433 337 c 128,-1,22
 379 390 379 390 300 390 c 0,12,13
EndSplineSet
EndChar

StartChar: p
Encoding: 112 112 83
Width: 600
GlyphClass: 2
Flags: W
AnchorPoint: "Anchor-3" 325 437 basechar 0
LayerCount: 2
Fore
SplineSet
144 417 m 1,0,-1
 144 335 l 1,1,2
 184 387 184 387 225 409 c 128,-1,3
 266 431 266 431 323 431 c 0,4,5
 416 431 416 431 478.5 370.5 c 128,-1,6
 541 310 541 310 541 221 c 128,-1,7
 541 132 541 132 478 71 c 128,-1,8
 415 10 415 10 323 10 c 0,9,10
 211 10 211 10 144 106 c 1,11,-1
 144 -145 l 1,12,-1
 242 -145 l 2,13,14
 269 -145 269 -145 269 -165 c 0,15,16
 269 -186 269 -186 242 -186 c 2,17,-1
 49 -186 l 2,18,19
 22 -186 22 -186 22 -165 c 0,20,21
 22 -145 22 -145 49 -145 c 2,22,-1
 103 -145 l 1,23,-1
 103 376 l 1,24,-1
 49 376 l 2,25,26
 22 376 22 376 22 397 c 0,27,28
 22 417 22 417 49 417 c 2,29,-1
 144 417 l 1,0,-1
322 390 m 0,30,31
 248 390 248 390 196 340.5 c 128,-1,32
 144 291 144 291 144 221 c 0,33,34
 144 150 144 150 196 100.5 c 128,-1,35
 248 51 248 51 322 51 c 128,-1,36
 396 51 396 51 448 100 c 128,-1,37
 500 149 500 149 500 219 c 0,38,39
 500 292 500 292 449 341 c 128,-1,40
 398 390 398 390 322 390 c 0,30,31
EndSplineSet
EndChar

StartChar: q
Encoding: 113 113 84
Width: 600
GlyphClass: 2
Flags: W
AnchorPoint: "Anchor-3" 285 437 basechar 0
LayerCount: 2
Fore
SplineSet
461 335 m 1,0,-1
 461 417 l 1,1,-1
 556 417 l 2,2,3
 583 417 583 417 583 397 c 0,4,5
 583 376 583 376 556 376 c 2,6,-1
 502 376 l 1,7,-1
 502 -145 l 1,8,-1
 556 -145 l 2,9,10
 583 -145 583 -145 583 -165 c 0,11,12
 583 -186 583 -186 556 -186 c 2,13,-1
 363 -186 l 2,14,15
 336 -186 336 -186 336 -165 c 0,16,17
 336 -145 336 -145 363 -145 c 2,18,-1
 461 -145 l 1,19,-1
 461 106 l 1,20,21
 394 10 394 10 281 10 c 0,22,23
 189 10 189 10 126 71 c 128,-1,24
 63 132 63 132 63 221 c 128,-1,25
 63 310 63 310 126 370.5 c 128,-1,26
 189 431 189 431 282 431 c 0,27,28
 393 431 393 431 461 335 c 1,0,-1
282 390 m 0,29,30
 207 390 207 390 155.5 341 c 128,-1,31
 104 292 104 292 104 221 c 128,-1,32
 104 150 104 150 155.5 100.5 c 128,-1,33
 207 51 207 51 282 51 c 0,34,35
 356 51 356 51 408.5 100 c 128,-1,36
 461 149 461 149 461 219 c 0,37,38
 461 292 461 292 409.5 341 c 128,-1,39
 358 390 358 390 282 390 c 0,29,30
EndSplineSet
EndChar

StartChar: r
Encoding: 114 114 85
Width: 600
GlyphClass: 2
Flags: W
AnchorPoint: "Anchor-3" 315 437 basechar 0
LayerCount: 2
Fore
SplineSet
520 344 m 0,0,1
 515 344 515 344 489 365 c 128,-1,2
 463 386 463 386 438 386 c 0,3,4
 404 386 404 386 367.5 362 c 128,-1,5
 331 338 331 338 248 262 c 1,6,-1
 248 41 l 1,7,-1
 427 41 l 2,8,9
 454 41 454 41 454 20 c 0,10,11
 454 0 454 0 427 0 c 2,12,-1
 111 0 l 2,13,14
 84 0 84 0 84 21 c 0,15,16
 84 41 84 41 111 41 c 2,17,-1
 207 41 l 1,18,-1
 207 376 l 1,19,-1
 132 376 l 2,20,21
 105 376 105 376 105 397 c 0,22,23
 105 417 105 417 132 417 c 2,24,-1
 248 417 l 1,25,-1
 248 315 l 1,26,27
 317 378 317 378 360 402.5 c 128,-1,28
 403 427 403 427 441 427 c 0,29,30
 481 427 481 427 511 403 c 128,-1,31
 541 379 541 379 541 365 c 0,32,33
 541 356 541 356 535 350 c 128,-1,34
 529 344 529 344 520 344 c 0,0,1
EndSplineSet
EndChar

StartChar: s
Encoding: 115 115 86
Width: 600
GlyphClass: 2
Flags: W
AnchorPoint: "Anchor-3" 295 437 basechar 0
LayerCount: 2
Fore
SplineSet
452 117 m 0,0,1
 452 154 452 154 418 174 c 128,-1,2
 384 194 384 194 336 201 c 128,-1,3
 288 208 288 208 240 216 c 128,-1,4
 192 224 192 224 158 249 c 128,-1,5
 124 274 124 274 124 318 c 0,6,7
 124 367 124 367 172.5 399 c 128,-1,8
 221 431 221 431 295 431 c 0,9,10
 380 431 380 431 432 385 c 1,11,-1
 432 389 l 2,12,13
 432 417 432 417 453 417 c 0,14,15
 473 417 473 417 473 389 c 2,16,-1
 473 320 l 2,17,18
 473 293 473 293 453 293 c 0,19,20
 435 293 435 293 432 316 c 0,21,22
 428 350 428 350 392 370 c 128,-1,23
 356 390 356 390 299 390 c 0,24,25
 243 390 243 390 206 368.5 c 128,-1,26
 169 347 169 347 169 315 c 0,27,28
 169 285 169 285 203 269 c 128,-1,29
 237 253 237 253 285 246.5 c 128,-1,30
 333 240 333 240 381 230.5 c 128,-1,31
 429 221 429 221 463 192.5 c 128,-1,32
 497 164 497 164 497 116 c 0,33,34
 497 59 497 59 441.5 21.5 c 128,-1,35
 386 -16 386 -16 301 -16 c 0,36,37
 205 -16 205 -16 144 38 c 1,38,-1
 144 27 l 2,39,40
 144 0 144 0 124 0 c 0,41,42
 103 0 103 0 103 27 c 2,43,-1
 103 110 l 2,44,45
 103 137 103 137 124 137 c 0,46,47
 144 137 144 137 144 115 c 2,48,-1
 144 108 l 2,49,50
 144 74 144 74 189 49.5 c 128,-1,51
 234 25 234 25 298 25 c 0,52,53
 364 25 364 25 408 51 c 128,-1,54
 452 77 452 77 452 117 c 0,0,1
EndSplineSet
EndChar

StartChar: t
Encoding: 116 116 87
Width: 600
GlyphClass: 2
Flags: W
AnchorPoint: "Anchor-3" 315 587 basechar 0
LayerCount: 2
Fore
SplineSet
186 417 m 1,0,-1
 406 417 l 2,1,2
 433 417 433 417 433 397 c 0,3,4
 433 376 433 376 406 376 c 2,5,-1
 186 376 l 1,6,-1
 186 109 l 2,7,8
 186 71 186 71 216 48 c 128,-1,9
 246 25 246 25 298 25 c 0,10,11
 340 25 340 25 387.5 36.5 c 128,-1,12
 435 48 435 48 464 65 c 0,13,14
 474 71 474 71 480 71 c 0,15,16
 487 71 487 71 493 65 c 128,-1,17
 499 59 499 59 499 51 c 0,18,19
 499 29 499 29 431.5 6.5 c 128,-1,20
 364 -16 364 -16 300 -16 c 0,21,22
 229 -16 229 -16 187 17.5 c 128,-1,23
 145 51 145 51 145 107 c 2,24,-1
 145 376 l 1,25,-1
 71 376 l 2,26,27
 43 376 43 376 43 397 c 0,28,29
 43 417 43 417 71 417 c 2,30,-1
 145 417 l 1,31,-1
 145 536 l 2,32,33
 145 563 145 563 166 563 c 0,34,35
 186 563 186 563 186 536 c 2,36,-1
 186 417 l 1,0,-1
EndSplineSet
EndChar

StartChar: u
Encoding: 117 117 88
Width: 600
GlyphClass: 2
Flags: W
LayerCount: 2
Fore
SplineSet
433 375 m 1,0,-1
 492 522 l 1,1,-1
 414 522 l 2,2,3
 387 522 387 522 387 543 c 0,4,5
 387 563 387 563 414 563 c 2,6,-1
 564 563 l 2,7,8
 591 563 591 563 591 543 c 0,9,10
 591 522 591 522 564 522 c 2,11,-1
 533 522 l 1,12,-1
 324 0 l 1,13,-1
 267 0 l 1,14,-1
 67 522 l 1,15,-1
 36 522 l 2,16,17
 9 522 9 522 9 543 c 0,18,19
 9 563 9 563 36 563 c 2,20,-1
 187 563 l 2,21,22
 214 563 214 563 214 543 c 0,23,24
 214 522 214 522 187 522 c 2,25,-1
 110 522 l 1,26,-1
 167 375 l 1,27,-1
 433 375 l 1,0,-1
417 334 m 1,28,-1
 183 334 l 1,29,-1
 296 41 l 1,30,-1
 299 41 l 1,31,-1
 417 334 l 1,28,-1
EndSplineSet
EndChar

StartChar: v
Encoding: 118 118 89
Width: 600
GlyphClass: 2
Flags: W
AnchorPoint: "Anchor-3" 295 437 basechar 0
LayerCount: 2
Fore
SplineSet
336 0 m 1,0,-1
 266 0 l 1,1,-1
 98 376 l 1,2,-1
 57 376 l 2,3,4
 30 376 30 376 30 397 c 0,5,6
 30 417 30 417 57 417 c 2,7,-1
 208 417 l 2,8,9
 236 417 236 417 236 397 c 0,10,11
 236 376 236 376 208 376 c 2,12,-1
 143 376 l 1,13,-1
 293 41 l 1,14,-1
 312 41 l 1,15,-1
 459 376 l 1,16,-1
 391 376 l 2,17,18
 364 376 364 376 364 397 c 0,19,20
 364 417 364 417 391 417 c 2,21,-1
 543 417 l 2,22,23
 570 417 570 417 570 397 c 0,24,25
 570 376 570 376 543 376 c 2,26,-1
 502 376 l 1,27,-1
 336 0 l 1,0,-1
EndSplineSet
EndChar

StartChar: w
Encoding: 119 119 90
Width: 600
GlyphClass: 2
Flags: W
AnchorPoint: "Anchor-3" 270 563 basechar 0
LayerCount: 2
Fore
SplineSet
104 41 m 1,0,-1
 104 522 l 1,1,-1
 70 522 l 2,2,3
 43 522 43 522 43 543 c 0,4,5
 43 563 43 563 70 563 c 2,6,-1
 290 563 l 2,7,8
 387 563 387 563 453.5 489.5 c 128,-1,9
 520 416 520 416 520 310 c 2,10,-1
 520 254 l 2,11,12
 520 147 520 147 453.5 73.5 c 128,-1,13
 387 0 387 0 290 0 c 2,14,-1
 70 0 l 2,15,16
 43 0 43 0 43 21 c 0,17,18
 43 41 43 41 70 41 c 2,19,-1
 104 41 l 1,0,-1
479 318 m 2,20,21
 479 338 479 338 470 368 c 128,-1,22
 461 398 461 398 441.5 434.5 c 128,-1,23
 422 471 422 471 381.5 496.5 c 128,-1,24
 341 522 341 522 288 522 c 2,25,-1
 145 522 l 1,26,-1
 145 41 l 1,27,-1
 295 41 l 2,28,29
 367 41 367 41 423 103 c 128,-1,30
 479 165 479 165 479 245 c 2,31,-1
 479 318 l 2,20,21
EndSplineSet
EndChar

StartChar: x
Encoding: 120 120 91
Width: 600
GlyphClass: 2
Flags: W
AnchorPoint: "Anchor-3" 302 563 basechar 0
LayerCount: 2
Fore
SplineSet
321 41 m 1,0,-1
 426 41 l 2,1,2
 453 41 453 41 453 21 c 0,3,4
 453 0 453 0 426 0 c 2,5,-1
 175 0 l 2,6,7
 148 0 148 0 148 21 c 0,8,9
 148 41 148 41 175 41 c 2,10,-1
 280 41 l 1,11,-1
 280 522 l 1,12,-1
 113 522 l 1,13,-1
 113 449 l 2,14,15
 113 422 113 422 92 422 c 0,16,17
 72 422 72 422 72 449 c 2,18,-1
 72 563 l 1,19,-1
 528 563 l 1,20,-1
 528 449 l 2,21,22
 528 422 528 422 508 422 c 0,23,24
 499 422 499 422 493 429.5 c 128,-1,25
 487 437 487 437 487 449 c 2,26,-1
 487 522 l 1,27,-1
 321 522 l 1,28,-1
 321 41 l 1,0,-1
EndSplineSet
EndChar

StartChar: y
Encoding: 121 121 92
Width: 600
GlyphClass: 2
Flags: W
AnchorPoint: "Anchor-3" 295 437 basechar 0
AnchorPoint: "Anchor-2" 454 0 basechar 0
LayerCount: 2
Fore
SplineSet
282 0 m 1,0,-1
 94 376 l 1,1,-1
 78 376 l 2,2,3
 51 376 51 376 51 397 c 0,4,5
 51 417 51 417 78 417 c 2,6,-1
 193 417 l 2,7,8
 220 417 220 417 220 397 c 0,9,10
 220 376 220 376 193 376 c 2,11,-1
 141 376 l 1,12,-1
 305 45 l 1,13,-1
 466 376 l 1,14,-1
 412 376 l 2,15,16
 385 376 385 376 385 397 c 0,17,18
 385 417 385 417 412 417 c 2,19,-1
 522 417 l 2,20,21
 549 417 549 417 549 397 c 0,22,23
 549 376 549 376 522 376 c 2,24,-1
 508 376 l 1,25,-1
 252 -145 l 1,26,-1
 317 -145 l 2,27,28
 344 -145 344 -145 344 -165 c 0,29,30
 344 -186 344 -186 317 -186 c 2,31,-1
 84 -186 l 2,32,33
 57 -186 57 -186 57 -165 c 0,34,35
 57 -145 57 -145 84 -145 c 2,36,-1
 211 -145 l 1,37,-1
 282 0 l 1,0,-1
EndSplineSet
EndChar

StartChar: z
Encoding: 122 122 93
Width: 600
GlyphClass: 2
Flags: W
LayerCount: 2
Fore
SplineSet
454 583 m 1,0,-1
 162 583 l 1,1,-1
 336 327 l 2,2,3
 342 320 342 320 342 314 c 0,4,5
 342 310 342 310 338 302 c 2,6,-1
 156 -27 l 1,7,-1
 464 -27 l 1,8,-1
 469 87 l 2,9,10
 471 108 471 108 485 108 c 2,11,-1
 491 108 l 2,12,13
 507 108 507 108 507 86 c 2,14,-1
 507 -45 l 2,15,16
 507 -67 507 -67 485 -67 c 2,17,-1
 135 -67 l 2,18,19
 113 -67 113 -67 113 -48 c 2,20,-1
 113 -32 l 2,21,22
 113 -24 113 -24 117 -16 c 2,23,-1
 298 317 l 1,24,-1
 119 573 l 2,25,26
 113 581 113 581 113 591 c 2,27,-1
 113 604 l 2,28,29
 113 623 113 623 135 623 c 2,30,-1
 478 623 l 2,31,32
 500 623 500 623 500 601 c 2,33,-1
 500 471 l 2,34,35
 500 449 500 449 484 449 c 2,36,-1
 479 449 l 2,37,38
 465 449 465 449 463 470 c 2,39,-1
 454 583 l 1,0,-1
EndSplineSet
EndChar

StartChar: braceleft
Encoding: 123 123 94
Width: 600
GlyphClass: 2
Flags: W
LayerCount: 2
Fore
SplineSet
410 -104 m 0,0,1
 410 -124 410 -124 389 -124 c 0,2,3
 337 -124 337 -124 309 -94.5 c 128,-1,4
 281 -65 281 -65 281 -14 c 2,5,-1
 281 134 l 2,6,7
 281 177 281 177 247.5 199 c 128,-1,8
 214 221 214 221 178 221 c 0,9,10
 157 221 157 221 157 240 c 0,11,12
 157 261 157 261 178 261 c 0,13,14
 214 261 214 261 247.5 282.5 c 128,-1,15
 281 304 281 304 281 346 c 2,16,-1
 281 493 l 2,17,18
 281 545 281 545 309 574.5 c 128,-1,19
 337 604 337 604 389 604 c 0,20,21
 398 604 398 604 404 598.5 c 128,-1,22
 410 593 410 593 410 584 c 0,23,24
 410 576 410 576 403.5 570 c 128,-1,25
 397 564 397 564 388 564 c 0,26,27
 363 564 363 564 342.5 547.5 c 128,-1,28
 322 531 322 531 322 493 c 2,29,-1
 322 346 l 2,30,31
 322 270 322 270 244 240 c 1,32,33
 322 216 322 216 322 134 c 2,34,-1
 322 -14 l 2,35,36
 322 -51 322 -51 342.5 -67.5 c 128,-1,37
 363 -84 363 -84 389 -84 c 0,38,39
 398 -84 398 -84 404 -90 c 128,-1,40
 410 -96 410 -96 410 -104 c 0,0,1
EndSplineSet
EndChar

StartChar: bar
Encoding: 124 124 95
Width: 600
GlyphClass: 2
Flags: W
LayerCount: 2
Fore
SplineSet
320 577 m 2,0,-1
 320 -97 l 2,1,2
 320 -124 320 -124 300 -124 c 128,-1,3
 280 -124 280 -124 280 -97 c 2,4,-1
 280 577 l 2,5,6
 280 604 280 604 300 604 c 128,-1,7
 320 604 320 604 320 577 c 2,0,-1
EndSplineSet
EndChar

StartChar: braceright
Encoding: 125 125 96
Width: 600
GlyphClass: 2
Flags: W
LayerCount: 2
Fore
SplineSet
190 -104 m 0,0,1
 190 -96 190 -96 196 -90 c 128,-1,2
 202 -84 202 -84 211 -84 c 0,3,4
 237 -84 237 -84 257.5 -67.5 c 128,-1,5
 278 -51 278 -51 278 -14 c 2,6,-1
 278 134 l 2,7,8
 278 216 278 216 356 240 c 1,9,10
 278 270 278 270 278 346 c 2,11,-1
 278 493 l 2,12,13
 278 531 278 531 257.5 547.5 c 128,-1,14
 237 564 237 564 212 564 c 0,15,16
 203 564 203 564 196.5 570 c 128,-1,17
 190 576 190 576 190 584 c 0,18,19
 190 593 190 593 196 598.5 c 128,-1,20
 202 604 202 604 211 604 c 0,21,22
 263 604 263 604 291 574.5 c 128,-1,23
 319 545 319 545 319 493 c 2,24,-1
 319 346 l 2,25,26
 319 304 319 304 352.5 282.5 c 128,-1,27
 386 261 386 261 422 261 c 0,28,29
 443 261 443 261 443 240 c 0,30,31
 443 221 443 221 422 221 c 0,32,33
 386 221 386 221 352.5 199 c 128,-1,34
 319 177 319 177 319 134 c 2,35,-1
 319 -14 l 2,36,37
 319 -65 319 -65 291 -94.5 c 128,-1,38
 263 -124 263 -124 211 -124 c 0,39,40
 190 -124 190 -124 190 -104 c 0,0,1
EndSplineSet
EndChar

StartChar: asciitilde
Encoding: 126 126 97
Width: 600
GlyphClass: 2
Flags: W
LayerCount: 2
Fore
SplineSet
386 253 m 0,0,1
 408 253 408 253 429 272.5 c 128,-1,2
 450 292 450 292 465 311 c 128,-1,3
 480 330 480 330 488 330 c 128,-1,4
 496 330 496 330 502 324.5 c 128,-1,5
 508 319 508 319 508 311 c 0,6,7
 508 292 508 292 467 252 c 128,-1,8
 426 212 426 212 389 212 c 0,9,10
 359 212 359 212 326 236 c 128,-1,11
 293 260 293 260 263.5 283.5 c 128,-1,12
 234 307 234 307 212 307 c 0,13,14
 193 307 193 307 177 295 c 128,-1,15
 161 283 161 283 152 268.5 c 128,-1,16
 143 254 143 254 132 242 c 128,-1,17
 121 230 121 230 111 230 c 0,18,19
 104 230 104 230 98 236 c 128,-1,20
 92 242 92 242 92 249 c 0,21,22
 92 266 92 266 130 307 c 128,-1,23
 168 348 168 348 212 348 c 0,24,25
 242 348 242 348 276.5 324 c 128,-1,26
 311 300 311 300 340.5 276.5 c 128,-1,27
 370 253 370 253 386 253 c 0,0,1
EndSplineSet
EndChar

StartChar: paragraph
Encoding: 182 182 99
Width: 600
GlyphClass: 2
Flags: W
LayerCount: 2
Fore
SplineSet
284 260 m 1,0,1
 192 266 192 266 135.5 306 c 128,-1,2
 79 346 79 346 79 406 c 2,3,-1
 79 453 l 2,4,5
 79 520 79 520 139.5 562 c 128,-1,6
 200 604 200 604 298 604 c 2,7,-1
 498 604 l 2,8,9
 523 604 523 604 523 584 c 0,10,11
 523 563 523 563 498 563 c 2,12,-1
 437 563 l 1,13,-1
 437 -21 l 1,14,-1
 499 -21 l 2,15,16
 525 -21 525 -21 525 -41 c 0,17,18
 525 -62 525 -62 499 -62 c 2,19,-1
 401 -62 l 2,20,21
 376 -62 376 -62 376 -41 c 0,22,23
 376 -23 376 -23 397 -21 c 1,24,-1
 397 563 l 1,25,-1
 325 563 l 1,26,-1
 325 -21 l 1,27,28
 346 -23 346 -23 346 -41 c 0,29,30
 346 -62 346 -62 321 -62 c 2,31,-1
 187 -62 l 2,32,33
 161 -62 161 -62 161 -41 c 0,34,35
 161 -21 161 -21 187 -21 c 2,36,-1
 284 -21 l 1,37,-1
 284 260 l 1,0,1
284 307 m 1,38,-1
 284 558 l 1,39,40
 226 552 226 552 187.5 521.5 c 128,-1,41
 149 491 149 491 149 451 c 2,42,-1
 149 414 l 2,43,44
 149 374 149 374 187.5 343.5 c 128,-1,45
 226 313 226 313 284 307 c 1,38,-1
EndSplineSet
EndChar

StartChar: middot
Encoding: 183 183 100
Width: 600
GlyphClass: 2
Flags: W
LayerCount: 2
Fore
SplineSet
300 280 m 0,0,1
 321 280 321 280 335.5 265 c 128,-1,2
 350 250 350 250 350 229 c 0,3,4
 350 209 350 209 335 194.5 c 128,-1,5
 320 180 320 180 300 180 c 128,-1,6
 280 180 280 180 265 195 c 128,-1,7
 250 210 250 210 250 230 c 128,-1,8
 250 250 250 250 265 265 c 128,-1,9
 280 280 280 280 300 280 c 0,0,1
EndSplineSet
EndChar

StartChar: cedilla
Encoding: 184 184 101
Width: 600
GlyphClass: 2
Flags: W
LayerCount: 2
Fore
SplineSet
230 -114 m 0,0,1
 234 -114 234 -114 256 -124.5 c 128,-1,2
 278 -135 278 -135 296 -135 c 0,3,4
 315 -135 315 -135 327.5 -127 c 128,-1,5
 340 -119 340 -119 340 -106 c 0,6,7
 340 -81 340 -81 294 -81 c 2,8,-1
 274 -81 l 1,9,-1
 274 0 l 1,10,-1
 312 0 l 1,11,-1
 312 -47 l 1,12,13
 377 -49 377 -49 377 -108 c 0,14,15
 377 -137 377 -137 355 -155 c 128,-1,16
 333 -173 333 -173 298 -173 c 0,17,18
 272 -173 272 -173 241 -161.5 c 128,-1,19
 210 -150 210 -150 210 -133 c 0,20,21
 210 -125 210 -125 216 -119.5 c 128,-1,22
 222 -114 222 -114 230 -114 c 0,0,1
EndSplineSet
EndChar

StartChar: onesuperior
Encoding: 185 185 102
Width: 600
GlyphClass: 2
Flags: W
LayerCount: 2
Fore
SplineSet
319 728 m 1,0,-1
 319 411 l 1,1,-1
 390 411 l 2,2,3
 410 411 410 411 410 393 c 128,-1,4
 410 375 410 375 390 375 c 2,5,-1
 212 375 l 2,6,7
 191 375 191 375 191 393 c 0,8,9
 191 412 191 412 222 412 c 0,10,11
 261 412 261 412 283 411 c 1,12,-1
 283 679 l 1,13,-1
 218 658 l 2,14,15
 210 656 210 656 209 656 c 0,16,17
 203 656 203 656 197.5 661.5 c 128,-1,18
 192 667 192 667 192 674 c 0,19,20
 192 685 192 685 208 692 c 128,-1,21
 224 699 224 699 319 728 c 1,0,-1
EndSplineSet
EndChar

StartChar: ordmasculine
Encoding: 186 186 103
Width: 600
GlyphClass: 2
Flags: W
LayerCount: 2
Fore
SplineSet
420 188 m 2,0,-1
 181 188 l 2,1,2
 154 188 154 188 154 209 c 0,3,4
 154 229 154 229 181 229 c 2,5,-1
 420 229 l 2,6,7
 447 229 447 229 447 209 c 0,8,9
 447 188 447 188 420 188 c 2,0,-1
301 577 m 0,10,11
 363 577 363 577 405.5 534 c 128,-1,12
 448 491 448 491 448 429 c 0,13,14
 448 370 448 370 404.5 327 c 128,-1,15
 361 284 361 284 301 284 c 0,16,17
 240 284 240 284 197 327 c 128,-1,18
 154 370 154 370 154 431 c 0,19,20
 154 491 154 491 197 534 c 128,-1,21
 240 577 240 577 301 577 c 0,10,11
301 540 m 128,-1,23
 255 540 255 540 223 508 c 128,-1,24
 191 476 191 476 191 431 c 0,25,26
 191 385 191 385 223.5 353 c 128,-1,27
 256 321 256 321 301 321 c 128,-1,28
 346 321 346 321 378.5 353 c 128,-1,29
 411 385 411 385 411 429 c 0,30,31
 411 476 411 476 379 508 c 128,-1,22
 347 540 347 540 301 540 c 128,-1,23
EndSplineSet
EndChar

StartChar: guillemotright
Encoding: 187 187 104
Width: 600
GlyphClass: 2
Flags: W
LayerCount: 2
Fore
SplineSet
311 208 m 1,0,-1
 104 11 l 2,1,2
 93 0 93 0 83 0 c 0,3,4
 75 0 75 0 69 6 c 128,-1,5
 63 12 63 12 63 20 c 128,-1,6
 63 28 63 28 74 40 c 2,7,-1
 216 208 l 1,8,-1
 74 377 l 2,9,10
 63 389 63 389 63 397 c 128,-1,11
 63 405 63 405 69 411 c 128,-1,12
 75 417 75 417 83 417 c 128,-1,13
 91 417 91 417 104 406 c 2,14,-1
 311 208 l 1,0,-1
541 208 m 1,15,-1
 334 11 l 2,16,17
 323 0 323 0 313 0 c 0,18,19
 305 0 305 0 299 6 c 128,-1,20
 293 12 293 12 293 20 c 128,-1,21
 293 28 293 28 304 40 c 2,22,-1
 446 208 l 1,23,-1
 304 377 l 2,24,25
 293 389 293 389 293 397 c 128,-1,26
 293 405 293 405 299 411 c 128,-1,27
 305 417 305 417 313 417 c 128,-1,28
 321 417 321 417 334 406 c 2,29,-1
 541 208 l 1,15,-1
EndSplineSet
EndChar

StartChar: onequarter
Encoding: 188 188 105
Width: 600
GlyphClass: 3
Flags: W
LayerCount: 2
Fore
SplineSet
144 612 m 1,0,-1
 144 295 l 1,1,-1
 215 295 l 2,2,3
 236 295 236 295 236 277 c 128,-1,4
 236 259 236 259 215 259 c 2,5,-1
 37 259 l 2,6,7
 16 259 16 259 16 277 c 0,8,9
 16 296 16 296 47 296 c 0,10,11
 86 296 86 296 108 295 c 1,12,-1
 108 563 l 1,13,-1
 43 542 l 2,14,15
 35 540 35 540 34 540 c 0,16,17
 28 540 28 540 22.5 545.5 c 128,-1,18
 17 551 17 551 17 558 c 0,19,20
 17 569 17 569 33 576 c 128,-1,21
 49 583 49 583 144 612 c 1,0,-1
492 477 m 2,22,-1
 141 63 l 2,23,24
 131 51 131 51 123 51 c 128,-1,25
 115 51 115 51 109 57 c 128,-1,26
 103 63 103 63 103 71 c 0,27,28
 103 78 103 78 112 88 c 2,29,-1
 462 502 l 2,30,31
 473 514 473 514 480 514 c 0,32,33
 488 514 488 514 494 508 c 128,-1,34
 500 502 500 502 500 494 c 0,35,36
 500 487 500 487 492 477 c 2,22,-1
453 18 m 0,37,38
 453 30 453 30 462 33 c 128,-1,39
 471 36 471 36 499 36 c 2,40,-1
 510 36 l 1,41,-1
 510 93 l 1,42,-1
 361 93 l 1,43,-1
 361 127 l 1,44,-1
 489 345 l 1,45,-1
 546 345 l 1,46,-1
 546 129 l 1,47,-1
 559 129 l 2,48,49
 580 129 580 129 580 111 c 128,-1,50
 580 93 580 93 555 93 c 2,51,-1
 546 93 l 1,52,-1
 546 36 l 1,53,-1
 559 36 l 2,54,55
 580 36 580 36 580 18 c 128,-1,56
 580 0 580 0 559 0 c 2,57,-1
 474 0 l 2,58,59
 453 0 453 0 453 18 c 0,37,38
510 129 m 1,60,-1
 510 309 l 1,61,-1
 508 309 l 1,62,-1
 401 129 l 1,63,-1
 510 129 l 1,60,-1
EndSplineSet
Ligature2: "'frac' Diagonal Fractions lookup 1 subtable" one slash four
EndChar

StartChar: onehalf
Encoding: 189 189 106
Width: 600
GlyphClass: 3
Flags: W
LayerCount: 2
Fore
SplineSet
485 477 m 2,0,-1
 134 63 l 2,1,2
 124 51 124 51 116 51 c 128,-1,3
 108 51 108 51 102 57 c 128,-1,4
 96 63 96 63 96 71 c 0,5,6
 96 78 96 78 105 88 c 2,7,-1
 455 502 l 2,8,9
 466 514 466 514 473 514 c 0,10,11
 481 514 481 514 487 508 c 128,-1,12
 493 502 493 502 493 494 c 0,13,14
 493 487 493 487 485 477 c 2,0,-1
151 612 m 1,15,-1
 151 295 l 1,16,-1
 222 295 l 2,17,18
 242 295 242 295 242 277 c 128,-1,19
 242 259 242 259 222 259 c 2,20,-1
 44 259 l 2,21,22
 23 259 23 259 23 277 c 0,23,24
 23 296 23 296 54 296 c 0,25,26
 93 296 93 296 115 295 c 1,27,-1
 115 563 l 1,28,-1
 50 542 l 2,29,30
 42 540 42 540 41 540 c 0,31,32
 35 540 35 540 29.5 545.5 c 128,-1,33
 24 551 24 551 24 558 c 0,34,35
 24 569 24 569 40 576 c 128,-1,36
 56 583 56 583 151 612 c 1,15,-1
354 266 m 0,37,38
 354 292 354 292 386 322.5 c 128,-1,39
 418 353 418 353 463 353 c 0,40,41
 506 353 506 353 538.5 323 c 128,-1,42
 571 293 571 293 571 252 c 0,43,44
 571 220 571 220 541.5 185.5 c 128,-1,45
 512 151 512 151 387 36 c 1,46,-1
 537 36 l 1,47,-1
 537 39 l 2,48,49
 537 59 537 59 555 59 c 128,-1,50
 573 59 573 59 573 39 c 2,51,-1
 573 0 l 1,52,-1
 343 0 l 1,53,-1
 343 43 l 1,54,-1
 475 166 l 2,55,56
 513 204 513 204 524 220 c 128,-1,57
 535 236 535 236 535 252 c 0,58,59
 535 278 535 278 513.5 297.5 c 128,-1,60
 492 317 492 317 463 317 c 0,61,62
 437 317 437 317 416.5 302.5 c 128,-1,63
 396 288 396 288 389 265 c 0,64,65
 385 249 385 249 371 249 c 0,66,67
 364 249 364 249 359 254 c 128,-1,68
 354 259 354 259 354 266 c 0,37,38
EndSplineSet
Ligature2: "'frac' Diagonal Fractions lookup 1 subtable" one slash two
EndChar

StartChar: threequarters
Encoding: 190 190 107
Width: 600
GlyphClass: 3
Flags: W
LayerCount: 2
Fore
SplineSet
125 576 m 0,0,1
 104 576 104 576 88 570 c 128,-1,2
 72 564 72 564 65.5 557.5 c 128,-1,3
 59 551 59 551 52.5 545 c 128,-1,4
 46 539 46 539 40 539 c 0,5,6
 33 539 33 539 27.5 544 c 128,-1,7
 22 549 22 549 22 556 c 0,8,9
 22 575 22 575 56.5 593.5 c 128,-1,10
 91 612 91 612 125 612 c 0,11,12
 169 612 169 612 199 585.5 c 128,-1,13
 229 559 229 559 229 520 c 0,14,15
 229 477 229 477 183 446 c 1,16,17
 241 410 241 410 241 358 c 0,18,19
 241 314 241 314 205.5 282.5 c 128,-1,20
 170 251 170 251 120 251 c 0,21,22
 83 251 83 251 44.5 269 c 128,-1,23
 6 287 6 287 6 304 c 0,24,25
 6 311 6 311 11 316 c 128,-1,26
 16 321 16 321 23 321 c 0,27,28
 26 321 26 321 55 304 c 128,-1,29
 84 287 84 287 120 287 c 0,30,31
 154 287 154 287 179.5 308 c 128,-1,32
 205 329 205 329 205 358 c 0,33,34
 205 388 205 388 179 409 c 128,-1,35
 153 430 153 430 113 431 c 0,36,37
 92 433 92 433 92 449 c 0,38,39
 92 460 92 460 100 463.5 c 128,-1,40
 108 467 108 467 129 467 c 0,41,42
 157 467 157 467 175 482 c 128,-1,43
 193 497 193 497 193 520 c 0,44,45
 193 544 193 544 173.5 560 c 128,-1,46
 154 576 154 576 125 576 c 0,0,1
491 477 m 2,47,-1
 140 63 l 2,48,49
 130 51 130 51 122 51 c 128,-1,50
 114 51 114 51 108 57 c 128,-1,51
 102 63 102 63 102 71 c 0,52,53
 102 78 102 78 111 88 c 2,54,-1
 461 502 l 2,55,56
 472 514 472 514 479 514 c 0,57,58
 487 514 487 514 493 508 c 128,-1,59
 499 502 499 502 499 494 c 0,60,61
 499 487 499 487 491 477 c 2,47,-1
453 18 m 0,62,63
 453 30 453 30 462 33 c 128,-1,64
 471 36 471 36 499 36 c 2,65,-1
 510 36 l 1,66,-1
 510 93 l 1,67,-1
 361 93 l 1,68,-1
 361 127 l 1,69,-1
 489 345 l 1,70,-1
 546 345 l 1,71,-1
 546 129 l 1,72,-1
 559 129 l 2,73,74
 580 129 580 129 580 111 c 128,-1,75
 580 93 580 93 555 93 c 2,76,-1
 546 93 l 1,77,-1
 546 36 l 1,78,-1
 559 36 l 2,79,80
 580 36 580 36 580 18 c 128,-1,81
 580 0 580 0 559 0 c 2,82,-1
 474 0 l 2,83,84
 453 0 453 0 453 18 c 0,62,63
510 129 m 1,85,-1
 510 309 l 1,86,-1
 508 309 l 1,87,-1
 401 129 l 1,88,-1
 510 129 l 1,85,-1
EndSplineSet
Ligature2: "'frac' Diagonal Fractions lookup 1 subtable" three slash four
EndChar

StartChar: questiondown
Encoding: 191 191 108
Width: 600
GlyphClass: 2
Flags: W
LayerCount: 2
Fore
SplineSet
466 -126 m 1,0,1
 367 -175 367 -175 291 -175 c 0,2,3
 211 -175 211 -175 162 -132.5 c 128,-1,4
 113 -90 113 -90 113 -21 c 0,5,6
 113 35 113 35 148.5 73 c 128,-1,7
 184 111 184 111 278 155 c 1,8,-1
 278 196 l 2,9,10
 278 223 278 223 298 223 c 0,11,12
 319 223 319 223 319 196 c 2,13,-1
 319 128 l 1,14,15
 232 92 232 92 193 57 c 128,-1,16
 154 22 154 22 154 -21 c 0,17,18
 154 -71 154 -71 194 -102.5 c 128,-1,19
 234 -134 234 -134 296 -134 c 0,20,21
 356 -134 356 -134 425 -100 c 1,22,-1
 425 -59 l 2,23,24
 425 -32 425 -32 445 -32 c 0,25,26
 466 -32 466 -32 466 -59 c 2,27,-1
 466 -126 l 1,0,1
313 317 m 2,28,-1
 286 317 l 2,29,30
 261 317 261 317 245 331 c 128,-1,31
 229 345 229 345 229 367 c 128,-1,32
 229 389 229 389 245 403 c 128,-1,33
 261 417 261 417 286 417 c 2,34,-1
 313 417 l 2,35,36
 339 417 339 417 354.5 403 c 128,-1,37
 370 389 370 389 370 367 c 128,-1,38
 370 345 370 345 354.5 331 c 128,-1,39
 339 317 339 317 313 317 c 2,28,-1
EndSplineSet
EndChar

StartChar: Adieresis
Encoding: 196 196 113
Width: 600
GlyphClass: 2
Flags: W
LayerCount: 2
Fore
SplineSet
187 709 m 0
 208 709 208 709 222.5 694 c 0
 237 679 237 679 237 658 c 0
 237 638 237 638 222 623.5 c 0
 207 609 207 609 187 609 c 0
 167 609 167 609 152 624 c 0
 137 639 137 639 137 659 c 0
 137 679 137 679 152 694 c 0
 167 709 167 709 187 709 c 0
408 709 m 0
 429 709 429 709 443.5 694 c 0
 458 679 458 679 458 658 c 0
 458 638 458 638 443 623.5 c 0
 428 609 428 609 408 609 c 0
 388 609 388 609 373 624 c 0
 358 639 358 639 358 659 c 0
 358 679 358 679 373 694 c 0
 388 709 388 709 408 709 c 0
EndSplineSet
Refer: 36 65 N 1 0 0 1 0 0 1
EndChar

StartChar: AE
Encoding: 198 198 115
Width: 600
GlyphClass: 2
Flags: W
LayerCount: 2
Fore
SplineSet
297 189 m 1,0,-1
 156 189 l 1,1,-1
 115 41 l 1,2,-1
 141 41 l 2,3,4
 168 41 168 41 168 21 c 0,5,6
 168 0 168 0 141 0 c 2,7,-1
 37 0 l 2,8,9
 10 0 10 0 10 21 c 0,10,11
 10 41 10 41 37 41 c 2,12,-1
 74 41 l 1,13,-1
 207 522 l 1,14,-1
 144 522 l 2,15,16
 117 522 117 522 117 543 c 0,17,18
 117 563 117 563 144 563 c 2,19,-1
 570 563 l 1,20,-1
 570 411 l 2,21,22
 570 384 570 384 549 384 c 0,23,24
 529 384 529 384 529 411 c 2,25,-1
 529 522 l 1,26,-1
 338 522 l 1,27,-1
 338 314 l 1,28,-1
 416 314 l 1,29,-1
 416 342 l 2,30,31
 416 369 416 369 436 369 c 128,-1,32
 456 369 456 369 456 342 c 2,33,-1
 456 246 l 2,34,35
 456 219 456 219 436 219 c 128,-1,36
 416 219 416 219 416 246 c 2,37,-1
 416 273 l 1,38,-1
 338 273 l 1,39,-1
 338 41 l 1,40,-1
 549 41 l 1,41,-1
 549 134 l 2,42,43
 549 160 549 160 569 160 c 0,44,45
 590 160 590 160 590 134 c 2,46,-1
 590 0 l 1,47,-1
 245 0 l 2,48,49
 218 0 218 0 218 21 c 0,50,51
 218 41 218 41 245 41 c 2,52,-1
 297 41 l 1,53,-1
 297 189 l 1,0,-1
297 230 m 1,54,-1
 297 522 l 1,55,-1
 247 522 l 1,56,-1
 167 230 l 1,57,-1
 297 230 l 1,54,-1
EndSplineSet
EndChar

StartChar: Ccedilla
Encoding: 199 199 116
Width: 600
GlyphClass: 2
Flags: W
LayerCount: 2
Fore
SplineSet
63 325 m 2,0,1
 63 344 63 344 68.5 371.5 c 128,-1,2
 74 399 74 399 91 436 c 128,-1,3
 108 473 108 473 133 503 c 128,-1,4
 158 533 158 533 203 554.5 c 128,-1,5
 248 576 248 576 305 576 c 0,6,7
 406 576 406 576 478 507 c 1,8,-1
 478 536 l 2,9,10
 478 563 478 563 499 563 c 0,11,12
 519 563 519 563 519 536 c 2,13,-1
 519 424 l 2,14,15
 519 397 519 397 498 397 c 0,16,17
 480 397 480 397 478 421 c 0,18,19
 475 467 475 467 423.5 501 c 128,-1,20
 372 535 372 535 305 535 c 0,21,22
 222 535 222 535 163 471.5 c 128,-1,23
 104 408 104 408 104 319 c 2,24,-1
 104 248 l 2,25,26
 104 158 104 158 169 91.5 c 128,-1,27
 234 25 234 25 322 25 c 0,28,29
 374 25 374 25 415 46 c 128,-1,30
 456 67 456 67 496 115 c 0,31,32
 505 125 505 125 514 125 c 0,33,34
 534 125 534 125 534 106 c 0,35,36
 534 90 534 90 496 55 c 0,37,38
 461 23 461 23 416 3.5 c 128,-1,39
 371 -16 371 -16 330 -16 c 2,40,-1
 317 -16 l 1,41,-1
 317 -47 l 1,42,43
 382 -49 382 -49 382 -108 c 0,44,45
 382 -137 382 -137 360 -155 c 128,-1,46
 338 -173 338 -173 303 -173 c 0,47,48
 277 -173 277 -173 246 -161.5 c 128,-1,49
 215 -150 215 -150 215 -133 c 0,50,51
 215 -125 215 -125 221 -119.5 c 128,-1,52
 227 -114 227 -114 235 -114 c 0,53,54
 239 -114 239 -114 261 -124.5 c 128,-1,55
 283 -135 283 -135 301 -135 c 0,56,57
 320 -135 320 -135 332.5 -127 c 128,-1,58
 345 -119 345 -119 345 -106 c 0,59,60
 345 -81 345 -81 299 -81 c 2,61,-1
 279 -81 l 1,62,-1
 279 -12 l 1,63,64
 171 15 171 15 117 90 c 128,-1,65
 63 165 63 165 63 242 c 2,66,-1
 63 325 l 2,0,1
EndSplineSet
EndChar

StartChar: Edieresis
Encoding: 203 203 120
Width: 600
GlyphClass: 2
Flags: W
LayerCount: 2
Fore
SplineSet
180 706 m 0
 201 706 201 706 215.5 691 c 0
 230 676 230 676 230 655 c 0
 230 635 230 635 215 620.5 c 0
 200 606 200 606 180 606 c 0
 160 606 160 606 145 621 c 0
 130 636 130 636 130 656 c 0
 130 676 130 676 145 691 c 0
 160 706 160 706 180 706 c 0
401 706 m 0
 422 706 422 706 436.5 691 c 0
 451 676 451 676 451 655 c 0
 451 635 451 635 436 620.5 c 0
 421 606 421 606 401 606 c 0
 381 606 381 606 366 621 c 0
 351 636 351 636 351 656 c 0
 351 676 351 676 366 691 c 0
 381 706 381 706 401 706 c 0
EndSplineSet
Refer: 40 69 N 1 0 0 1 0 0 1
EndChar

StartChar: Idieresis
Encoding: 207 207 124
Width: 600
GlyphClass: 2
Flags: W
LayerCount: 2
Fore
SplineSet
189 708 m 0
 210 708 210 708 224.5 693 c 0
 239 678 239 678 239 657 c 0
 239 637 239 637 224 622.5 c 0
 209 608 209 608 189 608 c 0
 169 608 169 608 154 623 c 0
 139 638 139 638 139 658 c 0
 139 678 139 678 154 693 c 0
 169 708 169 708 189 708 c 0
410 708 m 0
 431 708 431 708 445.5 693 c 0
 460 678 460 678 460 657 c 0
 460 637 460 637 445 622.5 c 0
 430 608 430 608 410 608 c 0
 390 608 390 608 375 623 c 0
 360 638 360 638 360 658 c 0
 360 678 360 678 375 693 c 0
 390 708 390 708 410 708 c 0
EndSplineSet
Refer: 44 73 N 1 0 0 1 0 0 1
EndChar

StartChar: Eth
Encoding: 208 208 125
Width: 600
GlyphClass: 2
Flags: W
LayerCount: 2
Fore
SplineSet
104 272 m 1,0,-1
 27 272 l 2,1,2
 0 272 0 272 0 293 c 0,3,4
 0 313 0 313 27 313 c 2,5,-1
 104 313 l 1,6,-1
 104 522 l 1,7,-1
 70 522 l 2,8,9
 43 522 43 522 43 543 c 0,10,11
 43 563 43 563 70 563 c 2,12,-1
 290 563 l 2,13,14
 384 563 384 563 452 488.5 c 128,-1,15
 520 414 520 414 520 310 c 2,16,-1
 520 254 l 2,17,18
 520 150 520 150 452 75 c 128,-1,19
 384 0 384 0 290 0 c 2,20,-1
 70 0 l 2,21,22
 43 0 43 0 43 21 c 0,23,24
 43 41 43 41 70 41 c 2,25,-1
 104 41 l 1,26,-1
 104 272 l 1,0,-1
479 319 m 2,27,28
 479 334 479 334 474 356 c 128,-1,29
 469 378 469 378 455.5 408 c 128,-1,30
 442 438 442 438 421.5 462.5 c 128,-1,31
 401 487 401 487 366 504.5 c 128,-1,32
 331 522 331 522 288 522 c 2,33,-1
 145 522 l 1,34,-1
 145 313 l 1,35,-1
 307 313 l 2,36,37
 334 313 334 313 334 293 c 0,38,39
 334 272 334 272 307 272 c 2,40,-1
 145 272 l 1,41,-1
 145 41 l 1,42,-1
 295 41 l 2,43,44
 366 41 366 41 422.5 103.5 c 128,-1,45
 479 166 479 166 479 245 c 2,46,-1
 479 319 l 2,27,28
EndSplineSet
EndChar

StartChar: Odieresis
Encoding: 214 214 131
Width: 600
GlyphClass: 2
Flags: W
LayerCount: 2
Fore
SplineSet
190 707 m 0
 211 707 211 707 225.5 692 c 0
 240 677 240 677 240 656 c 0
 240 636 240 636 225 621.5 c 0
 210 607 210 607 190 607 c 0
 170 607 170 607 155 622 c 0
 140 637 140 637 140 657 c 0
 140 677 140 677 155 692 c 0
 170 707 170 707 190 707 c 0
411 707 m 0
 432 707 432 707 446.5 692 c 0
 461 677 461 677 461 656 c 0
 461 636 461 636 446 621.5 c 0
 431 607 431 607 411 607 c 0
 391 607 391 607 376 622 c 0
 361 637 361 637 361 657 c 0
 361 677 361 677 376 692 c 0
 391 707 391 707 411 707 c 0
EndSplineSet
Refer: 50 79 N 1 0 0 1 0 0 1
EndChar

StartChar: multiply
Encoding: 215 215 132
Width: 600
GlyphClass: 2
Flags: W
LayerCount: 2
Fore
SplineSet
300 311 m 1,0,-1
 442 453 l 2,1,2
 453 464 453 464 461 464 c 128,-1,3
 469 464 469 464 475.5 458 c 128,-1,4
 482 452 482 452 482 443 c 0,5,6
 482 435 482 435 471 424 c 2,7,-1
 329 282 l 1,8,-1
 471 139 l 2,9,10
 482 129 482 129 482 120 c 0,11,12
 482 112 482 112 476 106 c 128,-1,13
 470 100 470 100 461 100 c 128,-1,14
 452 100 452 100 442 110 c 2,15,-1
 300 253 l 1,16,-1
 158 110 l 2,17,18
 147 100 147 100 139 100 c 0,19,20
 130 100 130 100 124 106 c 128,-1,21
 118 112 118 112 118 120 c 0,22,23
 118 129 118 129 128 139 c 2,24,-1
 271 282 l 1,25,-1
 128 424 l 2,26,27
 118 435 118 435 118 443 c 0,28,29
 118 452 118 452 124 458 c 128,-1,30
 130 464 130 464 139 464 c 0,31,32
 146 464 146 464 157 453 c 2,33,-1
 300 311 l 1,0,-1
EndSplineSet
EndChar

StartChar: Oslash
Encoding: 216 216 133
Width: 600
GlyphClass: 2
Flags: W
LayerCount: 2
Fore
SplineSet
141 51 m 1,0,-1
 76 -31 l 2,1,2
 67 -43 67 -43 58 -43 c 0,3,4
 50 -43 50 -43 45 -37.5 c 128,-1,5
 40 -32 40 -32 40 -25 c 0,6,7
 40 -19 40 -19 48 -9 c 2,8,-1
 117 78 l 1,9,10
 51 166 51 166 51 280 c 0,11,12
 51 404 51 404 123.5 490 c 128,-1,13
 196 576 196 576 300 576 c 0,14,15
 386 576 386 576 458 510 c 1,16,-1
 524 593 l 2,17,18
 533 605 533 605 542 605 c 0,19,20
 550 605 550 605 555 599.5 c 128,-1,21
 560 594 560 594 560 587 c 0,22,23
 560 582 560 582 552 571 c 2,24,-1
 482 483 l 1,25,26
 549 400 549 400 549 280 c 0,27,28
 549 156 549 156 476.5 70 c 128,-1,29
 404 -16 404 -16 300 -16 c 0,30,31
 210 -16 210 -16 141 51 c 1,0,-1
144 112 m 1,32,-1
 432 476 l 1,33,34
 373 535 373 535 300 535 c 0,35,36
 214 535 214 535 153 460 c 128,-1,37
 92 385 92 385 92 280 c 0,38,39
 92 189 92 189 144 112 c 1,32,-1
456 449 m 1,40,-1
 167 84 l 1,41,42
 226 25 226 25 300 25 c 0,43,44
 386 25 386 25 447 100 c 128,-1,45
 508 175 508 175 508 280 c 0,46,47
 508 374 508 374 456 449 c 1,40,-1
EndSplineSet
EndChar

StartChar: Udieresis
Encoding: 220 220 137
Width: 600
GlyphClass: 2
Flags: W
LayerCount: 2
Fore
SplineSet
190 707 m 0
 211 707 211 707 225.5 692 c 0
 240 677 240 677 240 656 c 0
 240 636 240 636 225 621.5 c 0
 210 607 210 607 190 607 c 0
 170 607 170 607 155 622 c 0
 140 637 140 637 140 657 c 0
 140 677 140 677 155 692 c 0
 170 707 170 707 190 707 c 0
411 707 m 0
 432 707 432 707 446.5 692 c 0
 461 677 461 677 461 656 c 0
 461 636 461 636 446 621.5 c 0
 431 607 431 607 411 607 c 0
 391 607 391 607 376 622 c 0
 361 637 361 637 361 657 c 0
 361 677 361 677 376 692 c 0
 391 707 391 707 411 707 c 0
EndSplineSet
Refer: 56 85 N 1 0 0 1 0 0 1
EndChar

StartChar: Thorn
Encoding: 222 222 139
Width: 600
GlyphClass: 2
Flags: W
LayerCount: 2
Fore
SplineSet
165 111 m 1,0,-1
 165 41 l 1,1,-1
 303 41 l 2,2,3
 331 41 331 41 331 21 c 0,4,5
 331 0 331 0 303 0 c 2,6,-1
 70 0 l 2,7,8
 43 0 43 0 43 21 c 0,9,10
 43 41 43 41 70 41 c 2,11,-1
 124 41 l 1,12,-1
 124 522 l 1,13,-1
 70 522 l 2,14,15
 43 522 43 522 43 543 c 0,16,17
 43 563 43 563 70 563 c 2,18,-1
 303 563 l 2,19,20
 331 563 331 563 331 543 c 0,21,22
 331 522 331 522 303 522 c 2,23,-1
 165 522 l 1,24,-1
 165 443 l 1,25,-1
 310 443 l 2,26,27
 390 443 390 443 444.5 395.5 c 128,-1,28
 499 348 499 348 499 278 c 128,-1,29
 499 208 499 208 440 159.5 c 128,-1,30
 381 111 381 111 296 111 c 2,31,-1
 165 111 l 1,0,-1
165 152 m 1,32,-1
 299 152 l 2,33,34
 364 152 364 152 411 189 c 128,-1,35
 458 226 458 226 458 278 c 0,36,37
 458 329 458 329 415.5 365.5 c 128,-1,38
 373 402 373 402 314 402 c 2,39,-1
 165 402 l 1,40,-1
 165 152 l 1,32,-1
EndSplineSet
EndChar

StartChar: ssharp
Encoding: 223 223 140
Width: 600
GlyphClass: 2
Flags: W
LayerCount: 2
Fore
SplineSet
456 162 m 0,0,1
 456 210 456 210 434 246 c 128,-1,2
 412 282 412 282 379.5 300 c 128,-1,3
 347 318 347 318 318.5 326 c 128,-1,4
 290 334 290 334 269 334 c 2,5,-1
 264 334 l 2,6,7
 237 334 237 334 237 355 c 0,8,9
 237 375 237 375 260 375 c 2,10,-1
 265 375 l 2,11,12
 303 375 303 375 332 400.5 c 128,-1,13
 361 426 361 426 361 459 c 0,14,15
 361 501 361 501 328 532 c 128,-1,16
 295 563 295 563 251 563 c 0,17,18
 209 563 209 563 177 535 c 128,-1,19
 145 507 145 507 145 470 c 2,20,-1
 145 41 l 1,21,-1
 160 41 l 2,22,23
 187 41 187 41 187 21 c 0,24,25
 187 0 187 0 160 0 c 2,26,-1
 50 0 l 2,27,28
 23 0 23 0 23 21 c 0,29,30
 23 41 23 41 50 41 c 2,31,-1
 104 41 l 1,32,-1
 104 470 l 2,33,34
 104 523 104 523 148.5 563.5 c 128,-1,35
 193 604 193 604 251 604 c 0,36,37
 315 604 315 604 358.5 562.5 c 128,-1,38
 402 521 402 521 402 458 c 0,39,40
 402 398 402 398 344 359 c 1,41,42
 497 313 497 313 497 161 c 0,43,44
 497 77 497 77 461 30.5 c 128,-1,45
 425 -16 425 -16 360 -16 c 0,46,47
 309 -16 309 -16 274 18 c 128,-1,48
 239 52 239 52 239 101 c 0,49,50
 239 124 239 124 259 124 c 0,51,52
 270 124 270 124 277.5 108.5 c 128,-1,53
 285 93 285 93 290 74.5 c 128,-1,54
 295 56 295 56 313 40.5 c 128,-1,55
 331 25 331 25 360 25 c 0,56,57
 406 25 406 25 431 60 c 128,-1,58
 456 95 456 95 456 162 c 0,0,1
EndSplineSet
EndChar

StartChar: adieresis
Encoding: 228 228 145
Width: 600
GlyphClass: 2
Flags: W
LayerCount: 2
Fore
SplineSet
178 591 m 0
 199 591 199 591 213.5 576 c 0
 228 561 228 561 228 540 c 0
 228 520 228 520 213 505.5 c 0
 198 491 198 491 178 491 c 0
 158 491 158 491 143 506 c 0
 128 521 128 521 128 541 c 0
 128 561 128 561 143 576 c 0
 158 591 158 591 178 591 c 0
399 591 m 0
 420 591 420 591 434.5 576 c 0
 449 561 449 561 449 540 c 0
 449 520 449 520 434 505.5 c 0
 419 491 419 491 399 491 c 0
 379 491 379 491 364 506 c 0
 349 521 349 521 349 541 c 0
 349 561 349 561 364 576 c 0
 379 591 379 591 399 591 c 0
EndSplineSet
Refer: 68 97 N 1 0 0 1 0 0 1
EndChar

StartChar: ae
Encoding: 230 230 147
Width: 600
GlyphClass: 2
Flags: W
LayerCount: 2
Fore
SplineSet
71 378 m 0,0,1
 71 399 71 399 120 415 c 128,-1,2
 169 431 169 431 199 431 c 0,3,4
 236 431 236 431 267 408 c 128,-1,5
 298 385 298 385 312 347 c 1,6,7
 330 386 330 386 362 408.5 c 128,-1,8
 394 431 394 431 430 431 c 0,9,10
 503 431 503 431 539 368.5 c 128,-1,11
 575 306 575 306 577 199 c 1,12,-1
 319 199 l 1,13,14
 324 123 324 123 360 74 c 128,-1,15
 396 25 396 25 446 25 c 0,16,17
 471 25 471 25 494 40.5 c 128,-1,18
 517 56 517 56 533.5 71.5 c 128,-1,19
 550 87 550 87 558 87 c 128,-1,20
 566 87 566 87 572 81 c 128,-1,21
 578 75 578 75 578 67 c 0,22,23
 578 50 578 50 531.5 17 c 128,-1,24
 485 -16 485 -16 444 -16 c 0,25,26
 370 -16 370 -16 320 61 c 1,27,-1
 320 27 l 2,28,29
 320 0 320 0 300 0 c 128,-1,30
 280 0 280 0 280 27 c 2,31,-1
 280 52 l 1,32,33
 224 -16 224 -16 160 -16 c 128,-1,34
 96 -16 96 -16 54 26 c 128,-1,35
 12 68 12 68 12 132 c 0,36,37
 12 186 12 186 65.5 221.5 c 128,-1,38
 119 257 119 257 195 257 c 0,39,40
 236 257 236 257 280 245 c 1,41,-1
 280 305 l 2,42,43
 280 340 280 340 254.5 365 c 128,-1,44
 229 390 229 390 192 390 c 0,45,46
 156 390 156 390 125 374 c 128,-1,47
 94 358 94 358 90 358 c 0,48,49
 83 358 83 358 77 364.5 c 128,-1,50
 71 371 71 371 71 378 c 0,0,1
280 110 m 1,51,-1
 280 203 l 1,52,53
 236 216 236 216 201 216 c 0,54,55
 169 216 169 216 132 204 c 128,-1,56
 95 192 95 192 78 176 c 0,57,58
 57 155 57 155 57 121 c 0,59,60
 57 79 57 79 86.5 52 c 128,-1,61
 116 25 116 25 162 25 c 0,62,63
 213 25 213 25 280 110 c 1,51,-1
535 240 m 1,64,65
 531 269 531 269 527 288.5 c 128,-1,66
 523 308 523 308 512 334.5 c 128,-1,67
 501 361 501 361 480 375.5 c 128,-1,68
 459 390 459 390 429 390 c 0,69,70
 340 390 340 390 320 240 c 1,71,-1
 535 240 l 1,64,65
EndSplineSet
EndChar

StartChar: ccedilla
Encoding: 231 231 148
Width: 600
GlyphClass: 2
Flags: W
LayerCount: 2
Fore
SplineSet
535 88 m 0,0,1
 535 81 535 81 527 70 c 128,-1,2
 519 59 519 59 500.5 45 c 128,-1,3
 482 31 482 31 457.5 18 c 128,-1,4
 433 5 433 5 395.5 -4.5 c 128,-1,5
 358 -14 358 -14 315 -16 c 1,6,-1
 315 -47 l 1,7,8
 380 -49 380 -49 380 -108 c 0,9,10
 380 -137 380 -137 358 -155 c 128,-1,11
 336 -173 336 -173 301 -173 c 0,12,13
 275 -173 275 -173 244 -161 c 128,-1,14
 213 -149 213 -149 213 -134 c 0,15,16
 213 -126 213 -126 219 -120 c 128,-1,17
 225 -114 225 -114 233 -114 c 0,18,19
 237 -114 237 -114 259 -124.5 c 128,-1,20
 281 -135 281 -135 299 -135 c 0,21,22
 318 -135 318 -135 330.5 -127 c 128,-1,23
 343 -119 343 -119 343 -106 c 0,24,25
 343 -81 343 -81 298 -81 c 2,26,-1
 277 -81 l 1,27,-1
 277 -14 l 1,28,29
 227 -7 227 -7 189.5 14 c 128,-1,30
 152 35 152 35 132.5 59.5 c 128,-1,31
 113 84 113 84 101.5 115 c 128,-1,32
 90 146 90 146 87 166 c 128,-1,33
 84 186 84 186 84 204 c 0,34,35
 84 303 84 303 149 367 c 128,-1,36
 214 431 214 431 314 431 c 0,37,38
 407 431 407 431 470 376 c 1,39,-1
 470 389 l 2,40,41
 470 417 470 417 491 417 c 0,42,43
 511 417 511 417 511 389 c 2,44,-1
 511 298 l 2,45,46
 511 271 511 271 491 271 c 128,-1,47
 471 271 471 271 470 295 c 0,48,49
 466 335 466 335 420 362.5 c 128,-1,50
 374 390 374 390 311 390 c 0,51,52
 228 390 228 390 176.5 338.5 c 128,-1,53
 125 287 125 287 125 205 c 0,54,55
 125 126 125 126 177 75.5 c 128,-1,56
 229 25 229 25 311 25 c 0,57,58
 420 25 420 25 498 97 c 0,59,60
 508 107 508 107 516 107 c 128,-1,61
 524 107 524 107 529.5 101.5 c 128,-1,62
 535 96 535 96 535 88 c 0,0,1
EndSplineSet
EndChar

StartChar: edieresis
Encoding: 235 235 152
Width: 600
GlyphClass: 2
Flags: W
LayerCount: 2
Fore
SplineSet
194 591 m 0
 215 591 215 591 229.5 576 c 0
 244 561 244 561 244 540 c 0
 244 520 244 520 229 505.5 c 0
 214 491 214 491 194 491 c 0
 174 491 174 491 159 506 c 0
 144 521 144 521 144 541 c 0
 144 561 144 561 159 576 c 0
 174 591 174 591 194 591 c 0
415 591 m 0
 436 591 436 591 450.5 576 c 0
 465 561 465 561 465 540 c 0
 465 520 465 520 450 505.5 c 0
 435 491 435 491 415 491 c 0
 395 491 395 491 380 506 c 0
 365 521 365 521 365 541 c 0
 365 561 365 561 380 576 c 0
 395 591 395 591 415 591 c 0
EndSplineSet
Refer: 72 101 N 1 0 0 1 0 0 1
EndChar

StartChar: idieresis
Encoding: 239 239 156
Width: 600
GlyphClass: 2
Flags: W
LayerCount: 2
Fore
SplineSet
176 591 m 0
 197 591 197 591 211.5 576 c 0
 226 561 226 561 226 540 c 0
 226 520 226 520 211 505.5 c 0
 196 491 196 491 176 491 c 0
 156 491 156 491 141 506 c 0
 126 521 126 521 126 541 c 0
 126 561 126 561 141 576 c 0
 156 591 156 591 176 591 c 0
397 591 m 0
 418 591 418 591 432.5 576 c 0
 447 561 447 561 447 540 c 0
 447 520 447 520 432 505.5 c 0
 417 491 417 491 397 491 c 0
 377 491 377 491 362 506 c 0
 347 521 347 521 347 541 c 0
 347 561 347 561 362 576 c 0
 377 591 377 591 397 591 c 0
EndSplineSet
Refer: 222 305 N 1 0 0 1 0 0 1
EndChar

StartChar: eth
Encoding: 240 240 157
Width: 600
GlyphClass: 2
Flags: W
LayerCount: 2
Fore
SplineSet
277 549 m 1,0,1
 252 560 252 560 229 567.5 c 128,-1,2
 206 575 206 575 194.5 577.5 c 128,-1,3
 183 580 183 580 174 582.5 c 128,-1,4
 165 585 165 585 162 588 c 128,-1,5
 159 591 159 591 159 598 c 0,6,7
 159 608 159 608 165 614 c 128,-1,8
 171 620 171 620 180 620 c 0,9,10
 227 620 227 620 328 572 c 1,11,-1
 423 614 l 1,12,-1
 430 615 l 2,13,14
 438 615 438 615 443.5 609 c 128,-1,15
 449 603 449 603 449 594 c 0,16,17
 449 581 449 581 440 577 c 2,18,-1
 365 543 l 1,19,20
 440 479 440 479 484 391.5 c 128,-1,21
 528 304 528 304 528 221 c 0,22,23
 528 113 528 113 462 48 c 128,-1,24
 396 -17 396 -17 300 -17 c 0,25,26
 205 -17 205 -17 138.5 48 c 128,-1,27
 72 113 72 113 72 207 c 0,28,29
 72 299 72 299 138 364.5 c 128,-1,30
 204 430 204 430 298 430 c 0,31,32
 339 430 339 430 371 418 c 128,-1,33
 403 406 403 406 444 377 c 1,34,35
 391 476 391 476 323 525 c 1,36,-1
 232 483 l 2,37,38
 230 482 230 482 225 482 c 0,39,40
 217 482 217 482 211 489 c 128,-1,41
 205 496 205 496 205 505 c 0,42,43
 205 518 205 518 214 521 c 2,44,-1
 277 549 l 1,0,1
301 390 m 0,45,46
 223 390 223 390 168.5 337 c 128,-1,47
 114 284 114 284 114 208 c 128,-1,48
 114 132 114 132 168.5 78.5 c 128,-1,49
 223 25 223 25 301 25 c 0,50,51
 378 25 378 25 433 78 c 128,-1,52
 488 131 488 131 488 205 c 0,53,54
 488 284 488 284 434 337 c 128,-1,55
 380 390 380 390 301 390 c 0,45,46
EndSplineSet
EndChar

StartChar: odieresis
Encoding: 246 246 163
Width: 600
GlyphClass: 2
Flags: W
LayerCount: 2
Fore
SplineSet
190 591 m 0
 211 591 211 591 225.5 576 c 0
 240 561 240 561 240 540 c 0
 240 520 240 520 225 505.5 c 0
 210 491 210 491 190 491 c 0
 170 491 170 491 155 506 c 0
 140 521 140 521 140 541 c 0
 140 561 140 561 155 576 c 0
 170 591 170 591 190 591 c 0
411 591 m 0
 432 591 432 591 446.5 576 c 0
 461 561 461 561 461 540 c 0
 461 520 461 520 446 505.5 c 0
 431 491 431 491 411 491 c 0
 391 491 391 491 376 506 c 0
 361 521 361 521 361 541 c 0
 361 561 361 561 376 576 c 0
 391 591 391 591 411 591 c 0
EndSplineSet
Refer: 82 111 N 1 0 0 1 0 0 1
EndChar

StartChar: divide
Encoding: 247 247 164
Width: 600
GlyphClass: 2
Flags: W
LayerCount: 2
Fore
SplineSet
501 262 m 2,0,-1
 99 262 l 2,1,2
 72 262 72 262 72 282 c 128,-1,3
 72 302 72 302 99 302 c 2,4,-1
 501 302 l 2,5,6
 528 302 528 302 528 282 c 128,-1,7
 528 262 528 262 501 262 c 2,0,-1
300 124 m 0,8,9
 321 124 321 124 335.5 109.5 c 128,-1,10
 350 95 350 95 350 74 c 0,11,12
 350 54 350 54 335 39.5 c 128,-1,13
 320 25 320 25 300 25 c 128,-1,14
 280 25 280 25 265.5 39.5 c 128,-1,15
 251 54 251 54 251 75 c 0,16,17
 251 95 251 95 265.5 109.5 c 128,-1,18
 280 124 280 124 300 124 c 0,8,9
300 540 m 0,19,20
 321 540 321 540 335.5 525.5 c 128,-1,21
 350 511 350 511 350 490 c 0,22,23
 350 470 350 470 335 455.5 c 128,-1,24
 320 441 320 441 300 441 c 128,-1,25
 280 441 280 441 265.5 455.5 c 128,-1,26
 251 470 251 470 251 491 c 0,27,28
 251 511 251 511 265.5 525.5 c 128,-1,29
 280 540 280 540 300 540 c 0,19,20
EndSplineSet
EndChar

StartChar: oslash
Encoding: 248 248 165
Width: 600
GlyphClass: 2
Flags: W
LayerCount: 2
Fore
SplineSet
154 35 m 1,0,-1
 88 -33 l 2,1,2
 78 -43 78 -43 71 -43 c 128,-1,3
 64 -43 64 -43 58.5 -37.5 c 128,-1,4
 53 -32 53 -32 53 -25 c 128,-1,5
 53 -18 53 -18 63 -8 c 2,6,-1
 129 59 l 1,7,8
 72 125 72 125 72 208 c 0,9,10
 72 301 72 301 138.5 366 c 128,-1,11
 205 431 205 431 300 431 c 0,12,13
 382 431 382 431 444 382 c 1,14,-1
 508 448 l 2,15,16
 519 458 519 458 526 458 c 128,-1,17
 533 458 533 458 538 452.5 c 128,-1,18
 543 447 543 447 543 440 c 128,-1,19
 543 433 543 433 533 423 c 2,20,-1
 469 358 l 1,21,22
 528 293 528 293 528 207 c 0,23,24
 528 114 528 114 461.5 49 c 128,-1,25
 395 -16 395 -16 300 -16 c 0,26,27
 220 -16 220 -16 154 35 c 1,0,-1
441 329 m 1,28,-1
 183 65 l 1,29,30
 234 25 234 25 300 25 c 0,31,32
 378 25 378 25 432.5 78 c 128,-1,33
 487 131 487 131 487 207 c 0,34,35
 487 275 487 275 441 329 c 1,28,-1
158 89 m 1,36,-1
 415 352 l 1,37,38
 365 390 365 390 300 390 c 0,39,40
 222 390 222 390 167.5 337 c 128,-1,41
 113 284 113 284 113 208 c 0,42,43
 113 140 113 140 158 89 c 1,36,-1
EndSplineSet
EndChar

StartChar: udieresis
Encoding: 252 252 169
Width: 600
GlyphClass: 2
Flags: W
LayerCount: 2
Fore
SplineSet
182 591 m 0
 203 591 203 591 217.5 576 c 0
 232 561 232 561 232 540 c 0
 232 520 232 520 217 505.5 c 0
 202 491 202 491 182 491 c 0
 162 491 162 491 147 506 c 0
 132 521 132 521 132 541 c 0
 132 561 132 561 147 576 c 0
 162 591 162 591 182 591 c 0
403 591 m 0
 424 591 424 591 438.5 576 c 0
 453 561 453 561 453 540 c 0
 453 520 453 520 438 505.5 c 0
 423 491 423 491 403 491 c 0
 383 491 383 491 368 506 c 0
 353 521 353 521 353 541 c 0
 353 561 353 561 368 576 c 0
 383 591 383 591 403 591 c 0
EndSplineSet
Refer: 88 117 N 1 0 0 1 0 0 1
EndChar

StartChar: thorn
Encoding: 254 254 171
Width: 600
GlyphClass: 2
Flags: W
LayerCount: 2
Fore
SplineSet
144 590 m 1,0,-1
 144 335 l 1,1,2
 184 387 184 387 225 409 c 128,-1,3
 266 431 266 431 323 431 c 0,4,5
 416 431 416 431 478.5 370.5 c 128,-1,6
 541 310 541 310 541 221 c 128,-1,7
 541 132 541 132 478 71 c 128,-1,8
 415 10 415 10 323 10 c 0,9,10
 211 10 211 10 144 106 c 1,11,-1
 144 -145 l 1,12,-1
 242 -145 l 2,13,14
 269 -145 269 -145 269 -165 c 0,15,16
 269 -186 269 -186 242 -186 c 2,17,-1
 49 -186 l 2,18,19
 22 -186 22 -186 22 -165 c 0,20,21
 22 -145 22 -145 49 -145 c 2,22,-1
 103 -145 l 1,23,-1
 103 549 l 1,24,-1
 49 549 l 2,25,26
 22 549 22 549 22 570 c 0,27,28
 22 590 22 590 49 590 c 2,29,-1
 144 590 l 1,0,-1
322 390 m 0,30,31
 248 390 248 390 196 340.5 c 128,-1,32
 144 291 144 291 144 221 c 0,33,34
 144 150 144 150 196 100.5 c 128,-1,35
 248 51 248 51 322 51 c 128,-1,36
 396 51 396 51 448 100 c 128,-1,37
 500 149 500 149 500 219 c 0,38,39
 500 292 500 292 449 341 c 128,-1,40
 398 390 398 390 322 390 c 0,30,31
EndSplineSet
EndChar

StartChar: ydieresis
Encoding: 255 255 172
Width: 600
GlyphClass: 2
Flags: W
LayerCount: 2
Fore
SplineSet
190 591 m 0
 211 591 211 591 225.5 576 c 0
 240 561 240 561 240 540 c 0
 240 520 240 520 225 505.5 c 0
 210 491 210 491 190 491 c 0
 170 491 170 491 155 506 c 0
 140 521 140 521 140 541 c 0
 140 561 140 561 155 576 c 0
 170 591 170 591 190 591 c 0
411 591 m 0
 432 591 432 591 446.5 576 c 0
 461 561 461 561 461 540 c 0
 461 520 461 520 446 505.5 c 0
 431 491 431 491 411 491 c 0
 391 491 391 491 376 506 c 0
 361 521 361 521 361 541 c 0
 361 561 361 561 376 576 c 0
 391 591 391 591 411 591 c 0
EndSplineSet
Refer: 92 121 N 1 0 0 1 0 0 1
EndChar

StartChar: Aogonek
Encoding: 260 260 177
Width: 600
GlyphClass: 2
Flags: W
LayerCount: 2
Fore
SplineSet
530 -123 m 0,0,1
 552 -123 552 -123 568 -113.5 c 128,-1,2
 584 -104 584 -104 587 -104 c 0,3,4
 592 -104 592 -104 596.5 -108.5 c 128,-1,5
 601 -113 601 -113 601 -119 c 0,6,7
 601 -132 601 -132 576.5 -143.5 c 128,-1,8
 552 -155 552 -155 524 -155 c 0,9,10
 488 -155 488 -155 468 -139 c 128,-1,11
 448 -123 448 -123 448 -94 c 0,12,13
 448 -36 448 -36 525 0 c 1,14,-1
 408 0 l 2,15,16
 381 0 381 0 381 21 c 0,17,18
 381 41 381 41 408 41 c 2,19,-1
 484 41 l 1,20,-1
 428 188 l 1,21,-1
 162 188 l 1,22,-1
 108 41 l 1,23,-1
 187 41 l 2,24,25
 214 41 214 41 214 21 c 0,26,27
 214 0 214 0 187 0 c 2,28,-1
 36 0 l 2,29,30
 9 0 9 0 9 21 c 0,31,32
 9 41 9 41 36 41 c 2,33,-1
 67 41 l 1,34,-1
 246 522 l 1,35,-1
 126 522 l 2,36,37
 99 522 99 522 99 543 c 0,38,39
 99 563 99 563 126 563 c 2,40,-1
 330 563 l 1,41,-1
 527 41 l 1,42,-1
 564 41 l 2,43,44
 591 41 591 41 591 21 c 0,45,46
 591 0 591 0 564 0 c 2,47,-1
 572 0 l 1,48,-1
 545 -15 l 2,49,50
 487 -48 487 -48 487 -89 c 0,51,52
 487 -123 487 -123 530 -123 c 0,0,1
413 229 m 1,53,-1
 301 522 l 1,54,-1
 286 522 l 1,55,-1
 178 229 l 1,56,-1
 413 229 l 1,53,-1
EndSplineSet
EndChar

StartChar: aogonek
Encoding: 261 261 178
Width: 600
GlyphClass: 2
Flags: W
LayerCount: 2
Fore
SplineSet
125 378 m 0,0,1
 125 400 125 400 193 415.5 c 128,-1,2
 261 431 261 431 299 431 c 0,3,4
 369 431 369 431 414.5 396 c 128,-1,5
 460 361 460 361 460 308 c 2,6,-1
 460 41 l 1,7,-1
 514 41 l 2,8,9
 541 41 541 41 541 21 c 0,10,11
 541 12 541 12 525.5 1 c 128,-1,12
 510 -10 510 -10 491.5 -20.5 c 128,-1,13
 473 -31 473 -31 457.5 -49.5 c 128,-1,14
 442 -68 442 -68 442 -89 c 0,15,16
 442 -123 442 -123 485 -123 c 0,17,18
 507 -123 507 -123 523 -113.5 c 128,-1,19
 539 -104 539 -104 542 -104 c 0,20,21
 547 -104 547 -104 551.5 -108.5 c 128,-1,22
 556 -113 556 -113 556 -119 c 0,23,24
 556 -132 556 -132 531.5 -143.5 c 128,-1,25
 507 -155 507 -155 479 -155 c 0,26,27
 443 -155 443 -155 423 -139 c 128,-1,28
 403 -123 403 -123 403 -94 c 0,29,30
 403 -63 403 -63 420.5 -41.5 c 128,-1,31
 438 -20 438 -20 480 0 c 1,32,-1
 419 0 l 1,33,-1
 419 67 l 1,34,35
 330 -16 330 -16 228 -16 c 0,36,37
 158 -16 158 -16 115 19.5 c 128,-1,38
 72 55 72 55 72 112 c 0,39,40
 72 177 72 177 130.5 217.5 c 128,-1,41
 189 258 189 258 283 258 c 0,42,43
 342 258 342 258 419 237 c 1,44,-1
 419 308 l 2,45,46
 419 345 419 345 385 367.5 c 128,-1,47
 351 390 351 390 296 390 c 0,48,49
 250 390 250 390 201 374 c 128,-1,50
 152 358 152 358 144 358 c 128,-1,51
 136 358 136 358 130.5 364 c 128,-1,52
 125 370 125 370 125 378 c 0,0,1
419 112 m 1,53,-1
 419 202 l 1,54,55
 359 217 359 217 291 217 c 0,56,57
 212 217 212 217 162.5 187.5 c 128,-1,58
 113 158 113 158 113 111 c 0,59,60
 113 72 113 72 144 48.5 c 128,-1,61
 175 25 175 25 227 25 c 0,62,63
 280 25 280 25 324.5 45 c 128,-1,64
 369 65 369 65 419 112 c 1,53,-1
EndSplineSet
EndChar

StartChar: dcroat
Encoding: 273 273 190
Width: 600
GlyphClass: 2
Flags: W
LayerCount: 2
Fore
SplineSet
502 520 m 1,0,-1
 556 520 l 2,1,2
 583 520 583 520 583 500 c 0,3,4
 583 479 583 479 556 479 c 2,5,-1
 502 479 l 1,6,-1
 502 41 l 1,7,-1
 556 41 l 2,8,9
 583 41 583 41 583 21 c 0,10,11
 583 0 583 0 556 0 c 2,12,-1
 461 0 l 1,13,-1
 461 81 l 1,14,15
 391 -16 391 -16 280 -16 c 0,16,17
 190 -16 190 -16 126.5 49.5 c 128,-1,18
 63 115 63 115 63 208 c 0,19,20
 63 300 63 300 126.5 365.5 c 128,-1,21
 190 431 190 431 280 431 c 0,22,23
 389 431 389 431 461 335 c 1,24,-1
 461 479 l 1,25,-1
 323 479 l 2,26,27
 296 479 296 479 296 500 c 0,28,29
 296 520 296 520 323 520 c 2,30,-1
 461 520 l 1,31,-1
 461 563 l 1,32,-1
 407 563 l 2,33,34
 380 563 380 563 380 584 c 0,35,36
 380 604 380 604 407 604 c 2,37,-1
 502 604 l 1,38,-1
 502 520 l 1,0,-1
282 390 m 0,39,40
 208 390 208 390 156 337 c 128,-1,41
 104 284 104 284 104 208 c 0,42,43
 104 131 104 131 156 78 c 128,-1,44
 208 25 208 25 283 25 c 0,45,46
 356 25 356 25 408.5 78 c 128,-1,47
 461 131 461 131 461 205 c 0,48,49
 461 284 461 284 409.5 337 c 128,-1,50
 358 390 358 390 282 390 c 0,39,40
EndSplineSet
EndChar

StartChar: Eogonek
Encoding: 280 280 197
Width: 600
GlyphClass: 2
Flags: W
LayerCount: 2
Fore
SplineSet
477 -123 m 0,0,1
 499 -123 499 -123 515 -113.5 c 128,-1,2
 531 -104 531 -104 534 -104 c 0,3,4
 539 -104 539 -104 543.5 -108.5 c 128,-1,5
 548 -113 548 -113 548 -119 c 0,6,7
 548 -132 548 -132 523.5 -143.5 c 128,-1,8
 499 -155 499 -155 471 -155 c 0,9,10
 435 -155 435 -155 415 -139 c 128,-1,11
 395 -123 395 -123 395 -94 c 0,12,13
 395 -36 395 -36 472 0 c 1,14,-1
 70 0 l 2,15,16
 43 0 43 0 43 21 c 0,17,18
 43 41 43 41 70 41 c 2,19,-1
 124 41 l 1,20,-1
 124 522 l 1,21,-1
 70 522 l 2,22,23
 43 522 43 522 43 543 c 0,24,25
 43 563 43 563 70 563 c 2,26,-1
 499 563 l 1,27,-1
 499 424 l 2,28,29
 499 397 499 397 478 397 c 0,30,31
 458 397 458 397 458 424 c 2,32,-1
 458 522 l 1,33,-1
 165 522 l 1,34,-1
 165 313 l 1,35,-1
 310 313 l 1,36,-1
 310 358 l 2,37,38
 310 385 310 385 331 385 c 0,39,40
 351 385 351 385 351 358 c 2,41,-1
 351 227 l 2,42,43
 351 200 351 200 331 200 c 0,44,45
 310 200 310 200 310 227 c 2,46,-1
 310 272 l 1,47,-1
 165 272 l 1,48,-1
 165 41 l 1,49,-1
 479 41 l 1,50,-1
 479 160 l 2,51,52
 479 187 479 187 500 187 c 0,53,54
 520 187 520 187 520 160 c 2,55,-1
 520 0 l 1,56,-1
 492 -15 l 2,57,58
 434 -46 434 -46 434 -89 c 0,59,60
 434 -123 434 -123 477 -123 c 0,0,1
EndSplineSet
EndChar

StartChar: eogonek
Encoding: 281 281 198
Width: 600
GlyphClass: 2
Flags: W
LayerCount: 2
Fore
SplineSet
389 -123 m 0,0,1
 411 -123 411 -123 427 -113.5 c 128,-1,2
 443 -104 443 -104 446 -104 c 0,3,4
 451 -104 451 -104 455.5 -108.5 c 128,-1,5
 460 -113 460 -113 460 -119 c 0,6,7
 460 -132 460 -132 435.5 -143.5 c 128,-1,8
 411 -155 411 -155 383 -155 c 0,9,10
 347 -155 347 -155 327 -139 c 128,-1,11
 307 -123 307 -123 307 -94 c 0,12,13
 307 -44 307 -44 361 -11 c 1,14,15
 331 -16 331 -16 306 -16 c 0,16,17
 204 -16 204 -16 133.5 51.5 c 128,-1,18
 63 119 63 119 63 217 c 0,19,20
 63 308 63 308 129 369.5 c 128,-1,21
 195 431 195 431 291 431 c 0,22,23
 392 431 392 431 456 367.5 c 128,-1,24
 520 304 520 304 520 199 c 1,25,-1
 104 199 l 1,26,27
 115 120 115 120 170 72.5 c 128,-1,28
 225 25 225 25 306 25 c 0,29,30
 353 25 353 25 402 40 c 128,-1,31
 451 55 451 55 481 79 c 0,32,33
 491 86 491 86 497 86 c 0,34,35
 505 86 505 86 510.5 80 c 128,-1,36
 516 74 516 74 516 66 c 0,37,38
 516 54 516 54 489.5 36 c 128,-1,39
 463 18 463 18 431 1 c 128,-1,40
 399 -16 399 -16 372.5 -41 c 128,-1,41
 346 -66 346 -66 346 -89 c 0,42,43
 346 -123 346 -123 389 -123 c 0,0,1
104 240 m 1,44,-1
 478 240 l 1,45,46
 466 308 466 308 415 349 c 128,-1,47
 364 390 364 390 291 390 c 128,-1,48
 218 390 218 390 168 349.5 c 128,-1,49
 118 309 118 309 104 240 c 1,44,-1
EndSplineSet
EndChar

StartChar: Hbar
Encoding: 294 294 211
Width: 600
GlyphClass: 2
Flags: W
LayerCount: 2
Fore
SplineSet
478 421 m 1,0,-1
 503 421 l 2,1,2
 530 421 530 421 530 401 c 128,-1,3
 530 381 530 381 503 381 c 2,4,-1
 478 381 l 1,5,-1
 478 41 l 1,6,-1
 524 41 l 2,7,8
 551 41 551 41 551 21 c 0,9,10
 551 0 551 0 524 0 c 2,11,-1
 383 0 l 2,12,13
 356 0 356 0 356 21 c 0,14,15
 356 41 356 41 383 41 c 2,16,-1
 437 41 l 1,17,-1
 437 272 l 1,18,-1
 167 272 l 1,19,-1
 167 41 l 1,20,-1
 221 41 l 2,21,22
 248 41 248 41 248 21 c 0,23,24
 248 0 248 0 221 0 c 2,25,-1
 81 0 l 2,26,27
 53 0 53 0 53 21 c 0,28,29
 53 41 53 41 81 41 c 2,30,-1
 126 41 l 1,31,-1
 126 381 l 1,32,-1
 101 381 l 2,33,34
 74 381 74 381 74 401 c 128,-1,35
 74 421 74 421 101 421 c 2,36,-1
 126 421 l 1,37,-1
 126 522 l 1,38,-1
 101 522 l 2,39,40
 74 522 74 522 74 543 c 0,41,42
 74 563 74 563 101 563 c 2,43,-1
 221 563 l 2,44,45
 248 563 248 563 248 543 c 0,46,47
 248 522 248 522 221 522 c 2,48,-1
 167 522 l 1,49,-1
 167 421 l 1,50,-1
 437 421 l 1,51,-1
 437 522 l 1,52,-1
 383 522 l 2,53,54
 356 522 356 522 356 543 c 0,55,56
 356 563 356 563 383 563 c 2,57,-1
 503 563 l 2,58,59
 530 563 530 563 530 543 c 0,60,61
 530 522 530 522 503 522 c 2,62,-1
 478 522 l 1,63,-1
 478 421 l 1,0,-1
437 381 m 1,64,-1
 167 381 l 1,65,-1
 167 313 l 1,66,-1
 437 313 l 1,67,-1
 437 381 l 1,64,-1
EndSplineSet
EndChar

StartChar: hbar
Encoding: 295 295 212
Width: 600
GlyphClass: 2
Flags: W
LayerCount: 2
Fore
SplineSet
437 288 m 2,0,1
 437 333 437 333 403 361.5 c 128,-1,2
 369 390 369 390 314 390 c 0,3,4
 272 390 272 390 244.5 373.5 c 128,-1,5
 217 357 217 357 176 309 c 2,6,-1
 165 296 l 1,7,-1
 165 41 l 1,8,-1
 210 41 l 2,9,10
 238 41 238 41 238 21 c 0,11,12
 238 0 238 0 210 0 c 2,13,-1
 78 0 l 2,14,15
 51 0 51 0 51 21 c 0,16,17
 51 41 51 41 78 41 c 2,18,-1
 124 41 l 1,19,-1
 124 469 l 1,20,-1
 70 469 l 2,21,22
 43 469 43 469 43 489 c 128,-1,23
 43 509 43 509 70 509 c 2,24,-1
 124 509 l 1,25,-1
 124 563 l 1,26,-1
 70 563 l 2,27,28
 43 563 43 563 43 584 c 0,29,30
 43 604 43 604 70 604 c 2,31,-1
 165 604 l 1,32,-1
 165 509 l 1,33,-1
 306 509 l 2,34,35
 333 509 333 509 333 489 c 128,-1,36
 333 469 333 469 306 469 c 2,37,-1
 165 469 l 1,38,-1
 165 347 l 1,39,40
 203 393 203 393 238 412 c 128,-1,41
 273 431 273 431 319 431 c 0,42,43
 389 431 389 431 433.5 391.5 c 128,-1,44
 478 352 478 352 478 291 c 2,45,-1
 478 41 l 1,46,-1
 523 41 l 2,47,48
 551 41 551 41 551 21 c 0,49,50
 551 0 551 0 523 0 c 2,51,-1
 392 0 l 2,52,53
 365 0 365 0 365 21 c 0,54,55
 365 41 365 41 392 41 c 2,56,-1
 437 41 l 1,57,-1
 437 288 l 2,0,1
EndSplineSet
EndChar

StartChar: Iogonek
Encoding: 302 302 219
Width: 600
GlyphClass: 2
Flags: W
LayerCount: 2
Fore
SplineSet
429 -123 m 0,0,1
 451 -123 451 -123 467 -113.5 c 128,-1,2
 483 -104 483 -104 486 -104 c 0,3,4
 491 -104 491 -104 495.5 -108.5 c 128,-1,5
 500 -113 500 -113 500 -119 c 0,6,7
 500 -132 500 -132 475.5 -143.5 c 128,-1,8
 451 -155 451 -155 423 -155 c 0,9,10
 387 -155 387 -155 367 -139 c 128,-1,11
 347 -123 347 -123 347 -94 c 0,12,13
 347 -63 347 -63 364.5 -41.5 c 128,-1,14
 382 -20 382 -20 424 0 c 1,15,-1
 140 0 l 2,16,17
 113 0 113 0 113 21 c 0,18,19
 113 41 113 41 140 41 c 2,20,-1
 279 41 l 1,21,-1
 279 522 l 1,22,-1
 140 522 l 2,23,24
 113 522 113 522 113 543 c 0,25,26
 113 563 113 563 140 563 c 2,27,-1
 459 563 l 2,28,29
 487 563 487 563 487 543 c 0,30,31
 487 522 487 522 459 522 c 2,32,-1
 320 522 l 1,33,-1
 320 41 l 1,34,-1
 459 41 l 2,35,36
 487 41 487 41 487 21 c 0,37,38
 487 12 487 12 471 1 c 128,-1,39
 455 -10 455 -10 436.5 -20 c 128,-1,40
 418 -30 418 -30 402 -48.5 c 128,-1,41
 386 -67 386 -67 386 -89 c 0,42,43
 386 -123 386 -123 429 -123 c 0,0,1
EndSplineSet
EndChar

StartChar: iogonek
Encoding: 303 303 220
Width: 600
GlyphClass: 2
Flags: W
LayerCount: 2
Fore
SplineSet
449 -123 m 0,0,1
 471 -123 471 -123 487 -113.5 c 128,-1,2
 503 -104 503 -104 506 -104 c 0,3,4
 511 -104 511 -104 515.5 -108.5 c 128,-1,5
 520 -113 520 -113 520 -119 c 0,6,7
 520 -132 520 -132 495.5 -143.5 c 128,-1,8
 471 -155 471 -155 443 -155 c 0,9,10
 407 -155 407 -155 387 -139 c 128,-1,11
 367 -123 367 -123 367 -94 c 0,12,13
 367 -63 367 -63 384.5 -41.5 c 128,-1,14
 402 -20 402 -20 444 0 c 1,15,-1
 119 0 l 2,16,17
 92 0 92 0 92 21 c 0,18,19
 92 41 92 41 119 41 c 2,20,-1
 279 41 l 1,21,-1
 279 376 l 1,22,-1
 161 376 l 2,23,24
 134 376 134 376 134 397 c 0,25,26
 134 417 134 417 161 417 c 2,27,-1
 320 417 l 1,28,-1
 320 41 l 1,29,-1
 480 41 l 2,30,31
 508 41 508 41 508 21 c 0,32,33
 508 11 508 11 492 0.5 c 128,-1,34
 476 -10 476 -10 457 -20 c 128,-1,35
 438 -30 438 -30 422 -48 c 128,-1,36
 406 -66 406 -66 406 -89 c 0,37,38
 406 -123 406 -123 449 -123 c 0,0,1
318 624 m 1,39,-1
 318 520 l 1,40,-1
 259 520 l 1,41,-1
 259 624 l 1,42,-1
 318 624 l 1,39,-1
EndSplineSet
EndChar

StartChar: dotlessi
Encoding: 305 305 222
Width: 600
GlyphClass: 2
Flags: W
AnchorPoint: "Anchor-3" 294 431 basechar 0
LayerCount: 2
Fore
SplineSet
320 417 m 1,0,-1
 320 41 l 1,1,-1
 480 41 l 2,2,3
 508 41 508 41 508 21 c 0,4,5
 508 0 508 0 480 0 c 2,6,-1
 119 0 l 2,7,8
 92 0 92 0 92 21 c 0,9,10
 92 41 92 41 119 41 c 2,11,-1
 279 41 l 1,12,-1
 279 376 l 1,13,-1
 161 376 l 2,14,15
 134 376 134 376 134 397 c 0,16,17
 134 417 134 417 161 417 c 2,18,-1
 320 417 l 1,0,-1
EndSplineSet
EndChar

StartChar: IJ
Encoding: 306 306 223
Width: 600
GlyphClass: 2
Flags: W
LayerCount: 2
Fore
SplineSet
494 522 m 1,0,-1
 494 165 l 2,1,2
 494 85 494 85 459 34.5 c 128,-1,3
 424 -16 424 -16 351 -16 c 0,4,5
 304 -16 304 -16 273 5 c 128,-1,6
 242 26 242 26 210 74 c 1,7,-1
 210 223 l 2,8,9
 210 250 210 250 231 250 c 0,10,11
 251 250 251 250 251 223 c 2,12,-1
 251 93 l 1,13,14
 275 52 275 52 295 38.5 c 128,-1,15
 315 25 315 25 352 25 c 0,16,17
 408 25 408 25 430.5 62 c 128,-1,18
 453 99 453 99 453 165 c 2,19,-1
 453 522 l 1,20,-1
 358 522 l 2,21,22
 331 522 331 522 331 543 c 0,23,24
 331 563 331 563 358 563 c 2,25,-1
 544 563 l 2,26,27
 571 563 571 563 571 543 c 0,28,29
 571 522 571 522 544 522 c 2,30,-1
 494 522 l 1,0,-1
141 522 m 1,31,-1
 141 41 l 1,32,-1
 185 41 l 2,33,34
 213 41 213 41 213 21 c 0,35,36
 213 0 213 0 185 0 c 2,37,-1
 56 0 l 2,38,39
 29 0 29 0 29 21 c 0,40,41
 29 41 29 41 56 41 c 2,42,-1
 100 41 l 1,43,-1
 100 522 l 1,44,-1
 56 522 l 2,45,46
 29 522 29 522 29 543 c 0,47,48
 29 563 29 563 56 563 c 2,49,-1
 185 563 l 2,50,51
 213 563 213 563 213 543 c 0,52,53
 213 522 213 522 185 522 c 2,54,-1
 141 522 l 1,31,-1
EndSplineSet
EndChar

StartChar: ij
Encoding: 307 307 224
Width: 600
GlyphClass: 2
Flags: W
LayerCount: 2
Fore
SplineSet
435 376 m 1,0,-1
 354 376 l 2,1,2
 327 376 327 376 327 397 c 0,3,4
 327 417 327 417 354 417 c 2,5,-1
 476 417 l 1,6,-1
 476 -28 l 2,7,8
 476 -98 476 -98 432.5 -142 c 128,-1,9
 389 -186 389 -186 321 -186 c 2,10,-1
 192 -186 l 2,11,12
 165 -186 165 -186 165 -165 c 0,13,14
 165 -145 165 -145 192 -145 c 2,15,-1
 320 -145 l 2,16,17
 370 -145 370 -145 402.5 -112 c 128,-1,18
 435 -79 435 -79 435 -28 c 2,19,-1
 435 376 l 1,0,-1
483 624 m 1,20,-1
 483 520 l 1,21,-1
 424 520 l 1,22,-1
 424 624 l 1,23,-1
 483 624 l 1,20,-1
258 417 m 1,24,-1
 258 41 l 1,25,-1
 322 41 l 2,26,27
 350 41 350 41 350 21 c 0,28,29
 350 0 350 0 322 0 c 2,30,-1
 151 0 l 2,31,32
 124 0 124 0 124 21 c 0,33,34
 124 41 124 41 151 41 c 2,35,-1
 217 41 l 1,36,-1
 217 376 l 1,37,-1
 161 376 l 2,38,39
 134 376 134 376 134 397 c 0,40,41
 134 417 134 417 161 417 c 2,42,-1
 258 417 l 1,24,-1
269 624 m 1,43,-1
 269 520 l 1,44,-1
 210 520 l 1,45,-1
 210 624 l 1,46,-1
 269 624 l 1,43,-1
EndSplineSet
EndChar

StartChar: Lslash
Encoding: 321 321 238
Width: 600
GlyphClass: 2
Flags: W
LayerCount: 2
Fore
SplineSet
226 522 m 1,0,-1
 226 310 l 1,1,-1
 360 390 l 2,2,3
 372 395 372 395 377 395 c 0,4,5
 385 395 385 395 391 389 c 128,-1,6
 397 383 397 383 397 375 c 0,7,8
 397 364 397 364 380 355 c 2,9,-1
 226 263 l 1,10,-1
 226 41 l 1,11,-1
 500 41 l 1,12,-1
 500 202 l 2,13,14
 500 229 500 229 521 229 c 0,15,16
 541 229 541 229 541 202 c 2,17,-1
 541 0 l 1,18,-1
 89 0 l 2,19,20
 62 0 62 0 62 21 c 0,21,22
 62 41 62 41 89 41 c 2,23,-1
 185 41 l 1,24,-1
 185 246 l 1,25,-1
 79 184 l 2,26,27
 70 178 70 178 62 178 c 0,28,29
 55 178 55 178 49 184.5 c 128,-1,30
 43 191 43 191 43 199 c 0,31,32
 43 210 43 210 59 219 c 2,33,-1
 185 293 l 1,34,-1
 185 522 l 1,35,-1
 89 522 l 2,36,37
 62 522 62 522 62 543 c 0,38,39
 62 563 62 563 89 563 c 2,40,-1
 322 563 l 2,41,42
 349 563 349 563 349 543 c 0,43,44
 349 522 349 522 322 522 c 2,45,-1
 226 522 l 1,0,-1
EndSplineSet
EndChar

StartChar: lslash
Encoding: 322 322 239
Width: 600
GlyphClass: 2
Flags: W
LayerCount: 2
Fore
SplineSet
319 604 m 1,0,-1
 319 343 l 1,1,-1
 407 394 l 2,2,3
 418 400 418 400 424 400 c 0,4,5
 432 400 432 400 437.5 394 c 128,-1,6
 443 388 443 388 443 380 c 0,7,8
 443 368 443 368 427 359 c 2,9,-1
 319 297 l 1,10,-1
 319 41 l 1,11,-1
 481 41 l 2,12,13
 508 41 508 41 508 21 c 0,14,15
 508 0 508 0 481 0 c 2,16,-1
 119 0 l 2,17,18
 92 0 92 0 92 21 c 0,19,20
 92 41 92 41 119 41 c 2,21,-1
 278 41 l 1,22,-1
 278 280 l 1,23,-1
 191 230 l 2,24,25
 180 224 180 224 174 224 c 0,26,27
 167 224 167 224 161 230.5 c 128,-1,28
 155 237 155 237 155 245 c 0,29,30
 155 257 155 257 171 266 c 2,31,-1
 278 327 l 1,32,-1
 278 563 l 1,33,-1
 161 563 l 2,34,35
 134 563 134 563 134 584 c 0,36,37
 134 604 134 604 161 604 c 2,38,-1
 319 604 l 1,0,-1
EndSplineSet
EndChar

StartChar: Eng
Encoding: 330 330 247
Width: 600
GlyphClass: 2
Flags: W
LayerCount: 2
Fore
SplineSet
480 299 m 0,0,1
 480 412 480 412 440 474 c 128,-1,2
 400 536 400 536 339 536 c 0,3,4
 242 536 242 536 167 440 c 1,5,-1
 167 41 l 1,6,-1
 212 41 l 2,7,8
 239 41 239 41 239 21 c 0,9,10
 239 0 239 0 212 0 c 2,11,-1
 81 0 l 2,12,13
 53 0 53 0 53 21 c 0,14,15
 53 41 53 41 81 41 c 2,16,-1
 126 41 l 1,17,-1
 126 522 l 1,18,-1
 92 522 l 2,19,20
 65 522 65 522 65 543 c 0,21,22
 65 563 65 563 92 563 c 2,23,-1
 167 563 l 1,24,-1
 167 494 l 1,25,26
 242 577 242 577 343 577 c 0,27,28
 416 577 416 577 468.5 507.5 c 128,-1,29
 521 438 521 438 521 306 c 0,30,31
 521 -11 521 -11 374 -11 c 0,32,33
 349 -11 349 -11 318 -3 c 128,-1,34
 287 5 287 5 287 23 c 0,35,36
 287 31 287 31 292.5 37 c 128,-1,37
 298 43 298 43 305 43 c 0,38,39
 308 43 308 43 331 36.5 c 128,-1,40
 354 30 354 30 375 30 c 0,41,42
 480 30 480 30 480 299 c 0,0,1
EndSplineSet
Substitution2: "'locl' Localized Forms in Latin lookup 4 subtable" Engsami
EndChar

StartChar: eng
Encoding: 331 331 248
Width: 600
GlyphClass: 2
Flags: W
LayerCount: 2
Fore
SplineSet
264 -145 m 0,0,1
 268 -145 268 -145 290 -151.5 c 128,-1,2
 312 -158 312 -158 334 -158 c 0,3,4
 380 -158 380 -158 409.5 -125.5 c 128,-1,5
 439 -93 439 -93 439 -42 c 2,6,-1
 439 288 l 2,7,8
 439 331 439 331 406.5 360.5 c 128,-1,9
 374 390 374 390 319 390 c 0,10,11
 301 390 301 390 284.5 386.5 c 128,-1,12
 268 383 268 383 253.5 375.5 c 128,-1,13
 239 368 239 368 229 361.5 c 128,-1,14
 219 355 219 355 207.5 343 c 128,-1,15
 196 331 196 331 191.5 325.5 c 128,-1,16
 187 320 187 320 177.5 307.5 c 128,-1,17
 168 295 168 295 167 294 c 2,18,-1
 167 41 l 1,19,-1
 212 41 l 2,20,21
 239 41 239 41 239 21 c 0,22,23
 239 0 239 0 212 0 c 2,24,-1
 81 0 l 2,25,26
 53 0 53 0 53 21 c 0,27,28
 53 41 53 41 81 41 c 2,29,-1
 126 41 l 1,30,-1
 126 376 l 1,31,-1
 92 376 l 2,32,33
 65 376 65 376 65 397 c 0,34,35
 65 417 65 417 92 417 c 2,36,-1
 167 417 l 1,37,-1
 167 348 l 1,38,39
 210 396 210 396 243 413.5 c 128,-1,40
 276 431 276 431 323 431 c 0,41,42
 390 431 390 431 435 392 c 128,-1,43
 480 353 480 353 480 295 c 2,44,-1
 480 -48 l 2,45,46
 480 -111 480 -111 437 -155 c 128,-1,47
 394 -199 394 -199 333 -199 c 0,48,49
 308 -199 308 -199 277 -191 c 128,-1,50
 246 -183 246 -183 246 -165 c 0,51,52
 246 -157 246 -157 251.5 -151 c 128,-1,53
 257 -145 257 -145 264 -145 c 0,0,1
EndSplineSet
EndChar

StartChar: OE
Encoding: 338 338 255
Width: 600
GlyphClass: 2
Flags: W
LayerCount: 2
Fore
SplineSet
338 272 m 1,0,-1
 338 41 l 1,1,-1
 549 41 l 1,2,-1
 549 133 l 2,3,4
 549 160 549 160 569 160 c 0,5,6
 590 160 590 160 590 133 c 2,7,-1
 590 0 l 1,8,-1
 263 0 l 2,9,10
 149 0 149 0 79.5 77.5 c 128,-1,11
 10 155 10 155 10 282 c 0,12,13
 10 407 10 407 78 485 c 128,-1,14
 146 563 146 563 255 563 c 2,15,-1
 570 563 l 1,16,-1
 570 409 l 2,17,18
 570 382 570 382 550 382 c 0,19,20
 529 382 529 382 529 409 c 2,21,-1
 529 522 l 1,22,-1
 338 522 l 1,23,-1
 338 313 l 1,24,-1
 416 313 l 1,25,-1
 416 340 l 2,26,27
 416 367 416 367 437 367 c 0,28,29
 457 367 457 367 457 340 c 2,30,-1
 457 244 l 2,31,32
 457 217 457 217 437 217 c 0,33,34
 416 217 416 217 416 244 c 2,35,-1
 416 272 l 1,36,-1
 338 272 l 1,0,-1
51 281 m 0,37,38
 51 240 51 240 61 201 c 128,-1,39
 71 162 71 162 93.5 124.5 c 128,-1,40
 116 87 116 87 160 64 c 128,-1,41
 204 41 204 41 265 41 c 2,42,-1
 297 41 l 1,43,-1
 297 522 l 1,44,-1
 265 522 l 2,45,46
 204 522 204 522 160 499 c 128,-1,47
 116 476 116 476 93.5 438.5 c 128,-1,48
 71 401 71 401 61 362 c 128,-1,49
 51 323 51 323 51 281 c 0,37,38
EndSplineSet
EndChar

StartChar: oe
Encoding: 339 339 256
Width: 600
GlyphClass: 2
Flags: W
LayerCount: 2
Fore
SplineSet
299 317 m 1,0,1
 344 431 344 431 431 431 c 0,2,3
 455 431 455 431 478.5 420.5 c 128,-1,4
 502 410 502 410 525.5 385.5 c 128,-1,5
 549 361 549 361 563 313 c 128,-1,6
 577 265 577 265 577 199 c 1,7,-1
 319 199 l 1,8,9
 325 125 325 125 361.5 75 c 128,-1,10
 398 25 398 25 446 25 c 0,11,12
 471 25 471 25 494 40.5 c 128,-1,13
 517 56 517 56 533.5 71.5 c 128,-1,14
 550 87 550 87 558 87 c 128,-1,15
 566 87 566 87 572 80.5 c 128,-1,16
 578 74 578 74 578 67 c 0,17,18
 578 50 578 50 531.5 17 c 128,-1,19
 485 -16 485 -16 444 -16 c 0,20,21
 399 -16 399 -16 360.5 16 c 128,-1,22
 322 48 322 48 299 103 c 1,23,24
 277 46 277 46 242.5 15 c 128,-1,25
 208 -16 208 -16 166 -16 c 0,26,27
 104 -16 104 -16 58 52 c 128,-1,28
 12 120 12 120 12 212 c 0,29,30
 12 301 12 301 57.5 366 c 128,-1,31
 103 431 103 431 165 431 c 0,32,33
 206 431 206 431 242 400 c 128,-1,34
 278 369 278 369 299 317 c 1,0,1
536 240 m 1,35,36
 532 269 532 269 527.5 288 c 128,-1,37
 523 307 523 307 512.5 334 c 128,-1,38
 502 361 502 361 480.5 375.5 c 128,-1,39
 459 390 459 390 429 390 c 0,40,41
 340 390 340 390 320 240 c 1,42,-1
 536 240 l 1,35,36
166 390 m 0,43,44
 121 390 121 390 87 335.5 c 128,-1,45
 53 281 53 281 53 208 c 128,-1,46
 53 135 53 135 87 80 c 128,-1,47
 121 25 121 25 167 25 c 0,48,49
 211 25 211 25 245.5 80 c 128,-1,50
 280 135 280 135 280 206 c 0,51,52
 280 280 280 280 246 335 c 128,-1,53
 212 390 212 390 166 390 c 0,43,44
EndSplineSet
EndChar

StartChar: Scedilla
Encoding: 350 350 267
Width: 600
GlyphClass: 2
Flags: W
LayerCount: 2
Fore
SplineSet
159 420 m 0,0,1
 159 381 159 381 185 357 c 128,-1,2
 211 333 211 333 249.5 324.5 c 128,-1,3
 288 316 288 316 333.5 304.5 c 128,-1,4
 379 293 379 293 417.5 281 c 128,-1,5
 456 269 456 269 482 235.5 c 128,-1,6
 508 202 508 202 508 151 c 0,7,8
 508 81 508 81 454 35 c 128,-1,9
 400 -11 400 -11 312 -16 c 1,10,-1
 312 -47 l 1,11,12
 377 -49 377 -49 377 -108 c 0,13,14
 377 -137 377 -137 355 -155 c 128,-1,15
 333 -173 333 -173 298 -173 c 0,16,17
 272 -173 272 -173 241 -161.5 c 128,-1,18
 210 -150 210 -150 210 -133 c 0,19,20
 210 -125 210 -125 216 -119.5 c 128,-1,21
 222 -114 222 -114 230 -114 c 0,22,23
 234 -114 234 -114 256.5 -124.5 c 128,-1,24
 279 -135 279 -135 297 -135 c 0,25,26
 316 -135 316 -135 328.5 -127 c 128,-1,27
 341 -119 341 -119 341 -106 c 0,28,29
 341 -81 341 -81 294 -81 c 2,30,-1
 274 -81 l 1,31,-1
 274 -15 l 1,32,33
 182 -4 182 -4 133 56 c 1,34,-1
 133 27 l 2,35,36
 133 0 133 0 112 0 c 0,37,38
 92 0 92 0 92 27 c 2,39,-1
 92 139 l 2,40,41
 92 166 92 166 113 166 c 0,42,43
 132 166 132 166 133 142 c 0,44,45
 135 93 135 93 184 59 c 128,-1,46
 233 25 233 25 301 25 c 0,47,48
 372 25 372 25 418 61.5 c 128,-1,49
 464 98 464 98 464 153 c 0,50,51
 464 195 464 195 438 221 c 128,-1,52
 412 247 412 247 373.5 255.5 c 128,-1,53
 335 264 335 264 289.5 274.5 c 128,-1,54
 244 285 244 285 205.5 296.5 c 128,-1,55
 167 308 167 308 141 339.5 c 128,-1,56
 115 371 115 371 115 421 c 0,57,58
 115 487 115 487 167.5 531.5 c 128,-1,59
 220 576 220 576 299 576 c 0,60,61
 385 576 385 576 445 517 c 1,62,-1
 445 536 l 2,63,64
 445 563 445 563 466 563 c 0,65,66
 486 563 486 563 486 536 c 2,67,-1
 486 433 l 2,68,69
 486 406 486 406 466 406 c 256,70,71
 446 406 446 406 445 430 c 0,72,73
 442 475 442 475 401 505 c 128,-1,74
 360 535 360 535 302 535 c 0,75,76
 240 535 240 535 199.5 502 c 128,-1,77
 159 469 159 469 159 420 c 0,0,1
EndSplineSet
EndChar

StartChar: scedilla
Encoding: 351 351 268
Width: 600
GlyphClass: 2
Flags: W
LayerCount: 2
Fore
SplineSet
452 117 m 0,0,1
 452 154 452 154 418 174 c 128,-1,2
 384 194 384 194 336 201 c 128,-1,3
 288 208 288 208 240 216 c 128,-1,4
 192 224 192 224 158 249 c 128,-1,5
 124 274 124 274 124 318 c 0,6,7
 124 367 124 367 172.5 399 c 128,-1,8
 221 431 221 431 294 431 c 0,9,10
 380 431 380 431 432 385 c 1,11,-1
 432 389 l 2,12,13
 432 417 432 417 453 417 c 0,14,15
 473 417 473 417 473 389 c 2,16,-1
 473 320 l 2,17,18
 473 293 473 293 453 293 c 0,19,20
 435 293 435 293 432 316 c 0,21,22
 429 349 429 349 392 369.5 c 128,-1,23
 355 390 355 390 299 390 c 128,-1,24
 243 390 243 390 206 368.5 c 128,-1,25
 169 347 169 347 169 315 c 0,26,27
 169 285 169 285 200 270 c 128,-1,28
 231 255 231 255 271.5 251.5 c 128,-1,29
 312 248 312 248 364 237 c 128,-1,30
 416 226 416 226 447 206 c 0,31,32
 497 172 497 172 497 116 c 128,-1,33
 497 60 497 60 446 24 c 128,-1,34
 395 -12 395 -12 312 -16 c 1,35,-1
 312 -47 l 1,36,37
 377 -49 377 -49 377 -108 c 0,38,39
 377 -137 377 -137 355 -155 c 128,-1,40
 333 -173 333 -173 298 -173 c 0,41,42
 272 -173 272 -173 241 -161.5 c 128,-1,43
 210 -150 210 -150 210 -133 c 0,44,45
 210 -125 210 -125 215.5 -119.5 c 128,-1,46
 221 -114 221 -114 229 -114 c 0,47,48
 234 -114 234 -114 256 -124.5 c 128,-1,49
 278 -135 278 -135 296 -135 c 0,50,51
 315 -135 315 -135 327.5 -127 c 128,-1,52
 340 -119 340 -119 340 -106 c 0,53,54
 340 -81 340 -81 294 -81 c 2,55,-1
 274 -81 l 1,56,-1
 274 -15 l 1,57,58
 190 -6 190 -6 144 38 c 1,59,-1
 144 27 l 2,60,61
 144 0 144 0 124 0 c 0,62,63
 103 0 103 0 103 27 c 2,64,-1
 103 110 l 2,65,66
 103 137 103 137 124 137 c 0,67,68
 144 137 144 137 144 115 c 2,69,-1
 144 108 l 2,70,71
 144 74 144 74 189 49.5 c 128,-1,72
 234 25 234 25 298 25 c 0,73,74
 364 25 364 25 408 51 c 128,-1,75
 452 77 452 77 452 117 c 0,0,1
EndSplineSet
EndChar

StartChar: Tcedilla
Encoding: 354 354 271
Width: 600
GlyphClass: 2
Flags: W
LayerCount: 2
Fore
SplineSet
236 -114 m 0,0,1
 240 -114 240 -114 262 -124.5 c 128,-1,2
 284 -135 284 -135 302 -135 c 0,3,4
 321 -135 321 -135 333.5 -127 c 128,-1,5
 346 -119 346 -119 346 -106 c 0,6,7
 346 -81 346 -81 300 -81 c 2,8,-1
 280 -81 l 1,9,-1
 280 0 l 1,10,-1
 175 0 l 2,11,12
 148 0 148 0 148 21 c 0,13,14
 148 41 148 41 175 41 c 2,15,-1
 280 41 l 1,16,-1
 280 522 l 1,17,-1
 113 522 l 1,18,-1
 113 449 l 2,19,20
 113 422 113 422 92 422 c 0,21,22
 72 422 72 422 72 449 c 2,23,-1
 72 563 l 1,24,-1
 528 563 l 1,25,-1
 528 449 l 2,26,27
 528 422 528 422 508 422 c 0,28,29
 499 422 499 422 493 429.5 c 128,-1,30
 487 437 487 437 487 449 c 2,31,-1
 487 522 l 1,32,-1
 321 522 l 1,33,-1
 321 41 l 1,34,-1
 426 41 l 2,35,36
 453 41 453 41 453 21 c 0,37,38
 453 0 453 0 426 0 c 2,39,-1
 318 0 l 1,40,-1
 318 -47 l 1,41,42
 383 -49 383 -49 383 -108 c 0,43,44
 383 -137 383 -137 361 -155 c 128,-1,45
 339 -173 339 -173 304 -173 c 0,46,47
 278 -173 278 -173 247 -161.5 c 128,-1,48
 216 -150 216 -150 216 -133 c 0,49,50
 216 -125 216 -125 222 -119.5 c 128,-1,51
 228 -114 228 -114 236 -114 c 0,0,1
EndSplineSet
EndChar

StartChar: Tbar
Encoding: 358 358 275
Width: 600
GlyphClass: 2
Flags: W
LayerCount: 2
Fore
SplineSet
321 337 m 1,0,-1
 420 337 l 2,1,2
 447 337 447 337 447 317 c 128,-1,3
 447 297 447 297 420 297 c 2,4,-1
 321 297 l 1,5,-1
 321 41 l 1,6,-1
 426 41 l 2,7,8
 453 41 453 41 453 21 c 0,9,10
 453 0 453 0 426 0 c 2,11,-1
 175 0 l 2,12,13
 148 0 148 0 148 21 c 0,14,15
 148 41 148 41 175 41 c 2,16,-1
 280 41 l 1,17,-1
 280 297 l 1,18,-1
 184 297 l 2,19,20
 157 297 157 297 157 317 c 128,-1,21
 157 337 157 337 184 337 c 2,22,-1
 280 337 l 1,23,-1
 280 522 l 1,24,-1
 113 522 l 1,25,-1
 113 449 l 2,26,27
 113 422 113 422 92 422 c 0,28,29
 72 422 72 422 72 449 c 2,30,-1
 72 563 l 1,31,-1
 528 563 l 1,32,-1
 528 449 l 2,33,34
 528 422 528 422 508 422 c 0,35,36
 499 422 499 422 493 429.5 c 128,-1,37
 487 437 487 437 487 449 c 2,38,-1
 487 522 l 1,39,-1
 321 522 l 1,40,-1
 321 337 l 1,0,-1
EndSplineSet
EndChar

StartChar: tbar
Encoding: 359 359 276
Width: 600
GlyphClass: 2
Flags: W
LayerCount: 2
Fore
SplineSet
145 275 m 1,0,-1
 145 376 l 1,1,-1
 71 376 l 2,2,3
 43 376 43 376 43 397 c 0,4,5
 43 417 43 417 71 417 c 2,6,-1
 145 417 l 1,7,-1
 145 536 l 2,8,9
 145 563 145 563 166 563 c 0,10,11
 186 563 186 563 186 536 c 2,12,-1
 186 417 l 1,13,-1
 406 417 l 2,14,15
 433 417 433 417 433 397 c 0,16,17
 433 376 433 376 406 376 c 2,18,-1
 186 376 l 1,19,-1
 186 275 l 1,20,-1
 406 275 l 2,21,22
 433 275 433 275 433 255 c 128,-1,23
 433 235 433 235 406 235 c 2,24,-1
 186 235 l 1,25,-1
 186 109 l 2,26,27
 186 71 186 71 216 48 c 128,-1,28
 246 25 246 25 298 25 c 0,29,30
 340 25 340 25 387.5 36.5 c 128,-1,31
 435 48 435 48 464 65 c 0,32,33
 474 71 474 71 480 71 c 0,34,35
 487 71 487 71 493 65 c 128,-1,36
 499 59 499 59 499 51 c 0,37,38
 499 29 499 29 431.5 6.5 c 128,-1,39
 364 -16 364 -16 300 -16 c 0,40,41
 229 -16 229 -16 187 17.5 c 128,-1,42
 145 51 145 51 145 107 c 2,43,-1
 145 235 l 1,44,-1
 70 235 l 2,45,46
 43 235 43 235 43 255 c 128,-1,47
 43 275 43 275 70 275 c 2,48,-1
 145 275 l 1,0,-1
EndSplineSet
EndChar

StartChar: Uogonek
Encoding: 370 370 287
Width: 600
GlyphClass: 2
Flags: W
LayerCount: 2
Fore
SplineSet
383 -123 m 0,0,1
 404 -123 404 -123 420 -113.5 c 128,-1,2
 436 -104 436 -104 439 -104 c 0,3,4
 444 -104 444 -104 448.5 -108.5 c 128,-1,5
 453 -113 453 -113 453 -119 c 0,6,7
 453 -132 453 -132 428.5 -143.5 c 128,-1,8
 404 -155 404 -155 376 -155 c 0,9,10
 341 -155 341 -155 320.5 -138.5 c 128,-1,11
 300 -122 300 -122 300 -94 c 0,12,13
 300 -44 300 -44 360 -8 c 1,14,15
 321 -16 321 -16 299 -16 c 0,16,17
 215 -16 215 -16 158 42 c 128,-1,18
 101 100 101 100 101 185 c 2,19,-1
 101 522 l 1,20,-1
 67 522 l 2,21,22
 40 522 40 522 40 543 c 0,23,24
 40 563 40 563 67 563 c 2,25,-1
 216 563 l 2,26,27
 243 563 243 563 243 543 c 0,28,29
 243 522 243 522 216 522 c 2,30,-1
 142 522 l 1,31,-1
 142 185 l 2,32,33
 142 117 142 117 187.5 71 c 128,-1,34
 233 25 233 25 300 25 c 0,35,36
 366 25 366 25 412 71.5 c 128,-1,37
 458 118 458 118 458 185 c 2,38,-1
 458 522 l 1,39,-1
 384 522 l 2,40,41
 357 522 357 522 357 543 c 0,42,43
 357 563 357 563 384 563 c 2,44,-1
 533 563 l 2,45,46
 560 563 560 563 560 543 c 0,47,48
 560 522 560 522 533 522 c 2,49,-1
 499 522 l 1,50,-1
 499 185 l 2,51,52
 499 140 499 140 482.5 103 c 128,-1,53
 466 66 466 66 442.5 42.5 c 128,-1,54
 419 19 419 19 395.5 -1 c 128,-1,55
 372 -21 372 -21 355.5 -43 c 128,-1,56
 339 -65 339 -65 339 -89 c 0,57,58
 339 -123 339 -123 383 -123 c 0,0,1
EndSplineSet
EndChar

StartChar: uogonek
Encoding: 371 371 288
Width: 600
GlyphClass: 2
Flags: W
LayerCount: 2
Fore
SplineSet
485 -123 m 0,0,1
 507 -123 507 -123 523 -113.5 c 128,-1,2
 539 -104 539 -104 542 -104 c 0,3,4
 547 -104 547 -104 551.5 -108.5 c 128,-1,5
 556 -113 556 -113 556 -119 c 0,6,7
 556 -132 556 -132 531.5 -143.5 c 128,-1,8
 507 -155 507 -155 479 -155 c 0,9,10
 443 -155 443 -155 423 -139 c 128,-1,11
 403 -123 403 -123 403 -94 c 0,12,13
 403 -63 403 -63 420.5 -41.5 c 128,-1,14
 438 -20 438 -20 480 0 c 1,15,-1
 439 0 l 1,16,-1
 439 66 l 1,17,18
 355 -16 355 -16 257 -16 c 0,19,20
 197 -16 197 -16 160.5 20 c 128,-1,21
 124 56 124 56 124 115 c 2,22,-1
 124 376 l 1,23,-1
 70 376 l 2,24,25
 43 376 43 376 43 397 c 0,26,27
 43 417 43 417 70 417 c 2,28,-1
 165 417 l 1,29,-1
 165 115 l 2,30,31
 165 77 165 77 191.5 51 c 128,-1,32
 218 25 218 25 256 25 c 0,33,34
 356 25 356 25 439 115 c 1,35,-1
 439 376 l 1,36,-1
 365 376 l 2,37,38
 337 376 337 376 337 397 c 0,39,40
 337 417 337 417 365 417 c 2,41,-1
 480 417 l 1,42,-1
 480 41 l 1,43,-1
 514 41 l 2,44,45
 541 41 541 41 541 21 c 0,46,47
 541 12 541 12 525.5 1 c 128,-1,48
 510 -10 510 -10 491.5 -20.5 c 128,-1,49
 473 -31 473 -31 457.5 -49.5 c 128,-1,50
 442 -68 442 -68 442 -89 c 0,51,52
 442 -123 442 -123 485 -123 c 0,0,1
EndSplineSet
EndChar

StartChar: Ydieresis
Encoding: 376 376 293
Width: 600
GlyphClass: 2
Flags: W
LayerCount: 2
Fore
SplineSet
190 722 m 0
 211 722 211 722 225.5 707 c 0
 240 692 240 692 240 671 c 0
 240 651 240 651 225 636.5 c 0
 210 622 210 622 190 622 c 0
 170 622 170 622 155 637 c 0
 140 652 140 652 140 672 c 0
 140 692 140 692 155 707 c 0
 170 722 170 722 190 722 c 0
411 722 m 0
 432 722 432 722 446.5 707 c 0
 461 692 461 692 461 671 c 0
 461 651 461 651 446 636.5 c 0
 431 622 431 622 411 622 c 0
 391 622 391 622 376 637 c 0
 361 652 361 652 361 672 c 0
 361 692 361 692 376 707 c 0
 391 722 391 722 411 722 c 0
EndSplineSet
Refer: 60 89 N 1 0 0 1 0 0 1
EndChar

StartChar: longs
Encoding: 383 383 300
Width: 600
GlyphClass: 2
Flags: W
LayerCount: 2
Fore
SplineSet
520 551 m 0,0,1
 518 551 518 551 495 554 c 128,-1,2
 472 557 472 557 439.5 560 c 128,-1,3
 407 563 407 563 382 563 c 0,4,5
 333 563 333 563 302 539.5 c 128,-1,6
 271 516 271 516 271 478 c 2,7,-1
 271 41 l 1,8,-1
 449 41 l 2,9,10
 476 41 476 41 476 21 c 0,11,12
 476 0 476 0 449 0 c 2,13,-1
 132 0 l 2,14,15
 105 0 105 0 105 21 c 0,16,17
 105 41 105 41 132 41 c 2,18,-1
 230 41 l 1,19,-1
 230 376 l 1,20,-1
 142 376 l 2,21,22
 115 376 115 376 115 397 c 0,23,24
 115 417 115 417 142 417 c 2,25,-1
 230 417 l 1,26,-1
 230 478 l 2,27,28
 230 533 230 533 273.5 568.5 c 128,-1,29
 317 604 317 604 384 604 c 0,30,31
 454 604 454 604 523 591 c 0,32,33
 541 586 541 586 541 571 c 0,34,35
 541 551 541 551 520 551 c 0,0,1
EndSplineSet
EndChar

StartChar: bbar
Encoding: 384 384 301
Width: 600
GlyphClass: 2
Flags: W
LayerCount: 2
Fore
SplineSet
322 390 m 0,0,1
 248 390 248 390 196 337 c 128,-1,2
 144 284 144 284 144 208 c 128,-1,3
 144 132 144 132 196 78.5 c 128,-1,4
 248 25 248 25 322 25 c 0,5,6
 395 25 395 25 447.5 78 c 128,-1,7
 500 131 500 131 500 205 c 0,8,9
 500 283 500 283 448.5 336.5 c 128,-1,10
 397 390 397 390 322 390 c 0,0,1
103 520 m 1,11,-1
 103 563 l 1,12,-1
 49 563 l 2,13,14
 22 563 22 563 22 584 c 0,15,16
 22 604 22 604 49 604 c 2,17,-1
 144 604 l 1,18,-1
 144 520 l 1,19,-1
 282 520 l 2,20,21
 309 520 309 520 309 500 c 0,22,23
 309 479 309 479 282 479 c 2,24,-1
 144 479 l 1,25,-1
 144 328 l 1,26,27
 217 431 217 431 324 431 c 0,28,29
 415 431 415 431 478 367 c 128,-1,30
 541 303 541 303 541 210 c 0,31,32
 541 116 541 116 477.5 50 c 128,-1,33
 414 -16 414 -16 324 -16 c 0,34,35
 214 -16 214 -16 144 88 c 1,36,-1
 144 0 l 1,37,-1
 49 0 l 2,38,39
 22 0 22 0 22 21 c 0,40,41
 22 41 22 41 49 41 c 2,42,-1
 103 41 l 1,43,-1
 103 479 l 1,44,-1
 49 479 l 2,45,46
 22 479 22 479 22 500 c 0,47,48
 22 520 22 520 49 520 c 2,49,-1
 103 520 l 1,11,-1
EndSplineSet
EndChar

StartChar: Bhook
Encoding: 385 385 302
Width: 600
GlyphClass: 2
Flags: W
LayerCount: 2
Fore
SplineSet
165 313 m 1,0,-1
 312 313 l 2,1,2
 376 313 376 313 417 343 c 128,-1,3
 458 373 458 373 458 419 c 0,4,5
 458 463 458 463 421 492.5 c 128,-1,6
 384 522 384 522 329 522 c 2,7,-1
 165 522 l 1,8,-1
 165 313 l 1,0,-1
500 153 m 0,9,10
 500 174 500 174 491.5 193 c 128,-1,11
 483 212 483 212 464 230.5 c 128,-1,12
 445 249 445 249 406.5 260.5 c 128,-1,13
 368 272 368 272 314 272 c 2,14,-1
 165 272 l 1,15,-1
 165 41 l 1,16,-1
 373 41 l 2,17,18
 426 41 426 41 463 73.5 c 128,-1,19
 500 106 500 106 500 153 c 0,9,10
70 563 m 2,20,-1
 328 563 l 2,21,22
 401 563 401 563 450 521.5 c 128,-1,23
 499 480 499 480 499 418 c 0,24,25
 499 344 499 344 414 298 c 1,26,27
 541 253 541 253 541 153 c 0,28,29
 541 90 541 90 492.5 45 c 128,-1,30
 444 0 444 0 376 0 c 2,31,-1
 70 0 l 2,32,33
 43 0 43 0 43 21 c 0,34,35
 43 41 43 41 70 41 c 2,36,-1
 124 41 l 1,37,-1
 124 522 l 1,38,-1
 70 522 l 2,39,40
 52 522 52 522 33.5 505.5 c 128,-1,41
 15 489 15 489 15 470 c 2,42,-1
 15 468 l 2,43,44
 15 446 15 446 31.5 430.5 c 128,-1,45
 48 415 48 415 68 415 c 0,46,47
 77 415 77 415 83 409 c 128,-1,48
 89 403 89 403 89 394 c 0,49,50
 89 386 89 386 83 380 c 128,-1,51
 77 374 77 374 68 374 c 0,52,53
 31 374 31 374 2.5 401.5 c 128,-1,54
 -26 429 -26 429 -26 470 c 128,-1,55
 -26 511 -26 511 4 537 c 128,-1,56
 34 563 34 563 70 563 c 2,20,-1
EndSplineSet
EndChar

StartChar: btopbar
Encoding: 387 387 304
Width: 600
GlyphClass: 2
Flags: W
LayerCount: 2
Fore
SplineSet
322 390 m 0,0,1
 248 390 248 390 196 337 c 128,-1,2
 144 284 144 284 144 208 c 128,-1,3
 144 132 144 132 196 78.5 c 128,-1,4
 248 25 248 25 322 25 c 0,5,6
 395 25 395 25 447.5 78 c 128,-1,7
 500 131 500 131 500 205 c 0,8,9
 500 283 500 283 448.5 336.5 c 128,-1,10
 397 390 397 390 322 390 c 0,0,1
144 563 m 1,11,-1
 144 328 l 1,12,13
 217 431 217 431 324 431 c 0,14,15
 415 431 415 431 478 367 c 128,-1,16
 541 303 541 303 541 210 c 0,17,18
 541 116 541 116 477.5 50 c 128,-1,19
 414 -16 414 -16 324 -16 c 0,20,21
 214 -16 214 -16 144 88 c 1,22,-1
 144 0 l 1,23,-1
 49 0 l 2,24,25
 22 0 22 0 22 21 c 0,26,27
 22 41 22 41 49 41 c 2,28,-1
 103 41 l 1,29,-1
 103 563 l 1,30,-1
 49 563 l 2,31,32
 22 563 22 563 22 584 c 0,33,34
 22 604 22 604 49 604 c 2,35,-1
 473 604 l 2,36,37
 500 604 500 604 500 584 c 0,38,39
 500 563 500 563 473 563 c 2,40,-1
 144 563 l 1,11,-1
EndSplineSet
EndChar

StartChar: Tonesix
Encoding: 388 388 305
Width: 600
GlyphClass: 2
Flags: W
LayerCount: 2
Fore
SplineSet
508 153 m 0,0,1
 508 174 508 174 499.5 193 c 128,-1,2
 491 212 491 212 472 230.5 c 128,-1,3
 453 249 453 249 414.5 260.5 c 128,-1,4
 376 272 376 272 322 272 c 2,5,-1
 173 272 l 1,6,-1
 173 41 l 1,7,-1
 381 41 l 2,8,9
 434 41 434 41 471 73.5 c 128,-1,10
 508 106 508 106 508 153 c 0,0,1
173 476 m 1,11,-1
 173 313 l 1,12,-1
 320 313 l 2,13,14
 385 313 385 313 432.5 298 c 128,-1,15
 480 283 480 283 504 258 c 128,-1,16
 528 233 528 233 538.5 207 c 128,-1,17
 549 181 549 181 549 153 c 0,18,19
 549 90 549 90 500.5 45 c 128,-1,20
 452 0 452 0 384 0 c 2,21,-1
 78 0 l 2,22,23
 51 0 51 0 51 21 c 0,24,25
 51 41 51 41 78 41 c 2,26,-1
 132 41 l 1,27,-1
 132 448 l 1,28,-1
 82 413 l 2,29,30
 71 407 71 407 65 407 c 0,31,32
 58 407 58 407 52 413.5 c 128,-1,33
 46 420 46 420 46 428 c 0,34,35
 46 440 46 440 62 449 c 2,36,-1
 132 497 l 1,37,-1
 132 563 l 2,38,39
 132 590 132 590 152 590 c 0,40,41
 173 590 173 590 173 563 c 2,42,-1
 173 526 l 1,43,-1
 247 577 l 2,44,45
 259 583 259 583 264 583 c 0,46,47
 272 583 272 583 277.5 577 c 128,-1,48
 283 571 283 571 283 563 c 0,49,50
 283 551 283 551 267 542 c 2,51,-1
 173 476 l 1,11,-1
EndSplineSet
EndChar

StartChar: tonesix
Encoding: 389 389 306
Width: 600
GlyphClass: 2
Flags: W
LayerCount: 2
Fore
SplineSet
144 208 m 128,-1,1
 144 132 144 132 196 78.5 c 128,-1,2
 248 25 248 25 322 25 c 0,3,4
 395 25 395 25 447.5 78 c 128,-1,5
 500 131 500 131 500 205 c 0,6,7
 500 283 500 283 448.5 336.5 c 128,-1,8
 397 390 397 390 322 390 c 0,9,10
 248 390 248 390 196 337 c 128,-1,0
 144 284 144 284 144 208 c 128,-1,1
144 475 m 1,11,-1
 144 328 l 1,12,13
 217 431 217 431 324 431 c 0,14,15
 415 431 415 431 478 367 c 128,-1,16
 541 303 541 303 541 210 c 0,17,18
 541 116 541 116 477.5 50 c 128,-1,19
 414 -16 414 -16 324 -16 c 0,20,21
 214 -16 214 -16 144 88 c 1,22,-1
 144 0 l 1,23,-1
 49 0 l 2,24,25
 22 0 22 0 22 21 c 0,26,27
 22 41 22 41 49 41 c 2,28,-1
 103 41 l 1,29,-1
 103 446 l 1,30,-1
 58 415 l 2,31,32
 47 409 47 409 41 409 c 0,33,34
 34 409 34 409 28 415.5 c 128,-1,35
 22 422 22 422 22 430 c 0,36,37
 22 442 22 442 38 451 c 2,38,-1
 103 496 l 1,39,-1
 103 563 l 2,40,41
 103 590 103 590 123 590 c 0,42,43
 144 590 144 590 144 563 c 2,44,-1
 144 524 l 1,45,-1
 223 579 l 2,46,47
 235 585 235 585 240 585 c 0,48,49
 248 585 248 585 253.5 579 c 128,-1,50
 259 573 259 573 259 565 c 0,51,52
 259 553 259 553 243 544 c 2,53,-1
 144 475 l 1,11,-1
EndSplineSet
EndChar

StartChar: Oopen
Encoding: 390 390 307
Width: 600
GlyphClass: 2
Flags: W
LayerCount: 2
Fore
SplineSet
83 125 m 0,0,1
 92 125 92 125 107 109.5 c 128,-1,2
 122 94 122 94 139.5 75 c 128,-1,3
 157 56 157 56 193 40.5 c 128,-1,4
 229 25 229 25 275 25 c 0,5,6
 363 25 363 25 428 91.5 c 128,-1,7
 493 158 493 158 493 248 c 2,8,-1
 493 319 l 2,9,10
 493 408 493 408 434 471.5 c 128,-1,11
 375 535 375 535 292 535 c 0,12,13
 225 535 225 535 173.5 501 c 128,-1,14
 122 467 122 467 119 421 c 0,15,16
 118 397 118 397 99 397 c 0,17,18
 78 397 78 397 78 424 c 2,19,-1
 78 536 l 2,20,21
 78 563 78 563 98 563 c 0,22,23
 119 563 119 563 119 536 c 2,24,-1
 119 507 l 1,25,26
 191 576 191 576 292 576 c 0,27,28
 347 576 347 576 391.5 555.5 c 128,-1,29
 436 535 436 535 461.5 505 c 128,-1,30
 487 475 487 475 504.5 438.5 c 128,-1,31
 522 402 522 402 528 374 c 128,-1,32
 534 346 534 346 534 325 c 2,33,-1
 534 242 l 2,34,35
 534 141 534 141 455.5 62.5 c 128,-1,36
 377 -16 377 -16 275 -16 c 0,37,38
 232 -16 232 -16 190.5 -0.5 c 128,-1,39
 149 15 149 15 122.5 36 c 128,-1,40
 96 57 96 57 79.5 76.5 c 128,-1,41
 63 96 63 96 63 106 c 0,42,43
 63 125 63 125 83 125 c 0,0,1
EndSplineSet
EndChar

StartChar: Chook
Encoding: 391 391 308
Width: 600
GlyphClass: 2
Flags: W
LayerCount: 2
Fore
SplineSet
63 325 m 2,0,1
 63 344 63 344 68.5 371.5 c 128,-1,2
 74 399 74 399 91 436 c 128,-1,3
 108 473 108 473 133 503 c 128,-1,4
 158 533 158 533 203 554.5 c 128,-1,5
 248 576 248 576 305 576 c 0,6,7
 406 576 406 576 478 507 c 1,8,-1
 478 536 l 2,9,10
 478 573 478 573 504 602.5 c 128,-1,11
 530 632 530 632 571 632 c 128,-1,12
 612 632 612 632 639.5 604 c 128,-1,13
 667 576 667 576 667 538 c 0,14,15
 667 530 667 530 661 524 c 128,-1,16
 655 518 655 518 647 518 c 0,17,18
 638 518 638 518 632 524 c 128,-1,19
 626 530 626 530 626 538 c 0,20,21
 626 559 626 559 610 575.5 c 128,-1,22
 594 592 594 592 570 592 c 0,23,24
 551 591 551 591 535 573 c 128,-1,25
 519 555 519 555 519 536 c 2,26,-1
 519 424 l 2,27,28
 519 397 519 397 498 397 c 0,29,30
 480 397 480 397 478 421 c 0,31,32
 475 467 475 467 423.5 501 c 128,-1,33
 372 535 372 535 305 535 c 0,34,35
 222 535 222 535 163 471.5 c 128,-1,36
 104 408 104 408 104 319 c 2,37,-1
 104 248 l 2,38,39
 104 158 104 158 169 91.5 c 128,-1,40
 234 25 234 25 322 25 c 0,41,42
 374 25 374 25 415 46 c 128,-1,43
 456 67 456 67 496 115 c 0,44,45
 505 125 505 125 514 125 c 0,46,47
 534 125 534 125 534 106 c 0,48,49
 534 97 534 97 518 78 c 128,-1,50
 502 59 502 59 476 37.5 c 128,-1,51
 450 16 450 16 408 0 c 128,-1,52
 366 -16 366 -16 322 -16 c 0,53,54
 220 -16 220 -16 141.5 62.5 c 128,-1,55
 63 141 63 141 63 242 c 2,56,-1
 63 325 l 2,0,1
EndSplineSet
EndChar

StartChar: chook
Encoding: 392 392 309
Width: 600
GlyphClass: 2
Flags: W
LayerCount: 2
Fore
SplineSet
535 88 m 0,0,1
 535 79 535 79 518 62.5 c 128,-1,2
 501 46 501 46 473.5 28 c 128,-1,3
 446 10 446 10 401 -3 c 128,-1,4
 356 -16 356 -16 309 -16 c 0,5,6
 211 -16 211 -16 147.5 46 c 128,-1,7
 84 108 84 108 84 204 c 0,8,9
 84 303 84 303 149 367 c 128,-1,10
 214 431 214 431 314 431 c 0,11,12
 407 431 407 431 470 376 c 1,13,-1
 470 389 l 2,14,15
 470 426 470 426 496 455.5 c 128,-1,16
 522 485 522 485 563 485 c 128,-1,17
 604 485 604 485 631.5 457 c 128,-1,18
 659 429 659 429 659 391 c 0,19,20
 659 383 659 383 653 377 c 128,-1,21
 647 371 647 371 639 371 c 0,22,23
 630 371 630 371 624 377 c 128,-1,24
 618 383 618 383 618 391 c 0,25,26
 618 412 618 412 602 428.5 c 128,-1,27
 586 445 586 445 562 445 c 0,28,29
 543 444 543 444 527 426 c 128,-1,30
 511 408 511 408 511 389 c 2,31,-1
 511 298 l 2,32,33
 511 271 511 271 491 271 c 0,34,35
 473 271 473 271 470 295 c 0,36,37
 467 335 467 335 420.5 362.5 c 128,-1,38
 374 390 374 390 311 390 c 0,39,40
 228 390 228 390 176.5 338.5 c 128,-1,41
 125 287 125 287 125 205 c 0,42,43
 125 126 125 126 177 75.5 c 128,-1,44
 229 25 229 25 311 25 c 0,45,46
 420 25 420 25 498 97 c 0,47,48
 508 107 508 107 516 107 c 128,-1,49
 524 107 524 107 529.5 101.5 c 128,-1,50
 535 96 535 96 535 88 c 0,0,1
EndSplineSet
EndChar

StartChar: Dhook
Encoding: 394 394 311
Width: 600
GlyphClass: 2
Flags: W
LayerCount: 2
Fore
SplineSet
479 318 m 2,0,1
 479 338 479 338 470 368 c 128,-1,2
 461 398 461 398 441.5 434.5 c 128,-1,3
 422 471 422 471 381.5 496.5 c 128,-1,4
 341 522 341 522 288 522 c 2,5,-1
 145 522 l 1,6,-1
 145 41 l 1,7,-1
 295 41 l 2,8,9
 367 41 367 41 423 103 c 128,-1,10
 479 165 479 165 479 245 c 2,11,-1
 479 318 l 2,0,1
34 563 m 2,12,-1
 290 563 l 2,13,14
 387 563 387 563 453.5 489.5 c 128,-1,15
 520 416 520 416 520 310 c 2,16,-1
 520 254 l 2,17,18
 520 147 520 147 453.5 73.5 c 128,-1,19
 387 0 387 0 290 0 c 2,20,-1
 70 0 l 2,21,22
 43 0 43 0 43 21 c 0,23,24
 43 41 43 41 70 41 c 2,25,-1
 104 41 l 1,26,-1
 104 522 l 1,27,-1
 34 522 l 2,28,29
 15 522 15 522 -3 506 c 128,-1,30
 -21 490 -21 490 -22 471 c 0,31,32
 -22 447 -22 447 -5.5 431 c 128,-1,33
 11 415 11 415 32 415 c 0,34,35
 40 415 40 415 46 409 c 128,-1,36
 52 403 52 403 52 394 c 0,37,38
 52 386 52 386 46 380 c 128,-1,39
 40 374 40 374 32 374 c 0,40,41
 -6 374 -6 374 -34 401.5 c 128,-1,42
 -62 429 -62 429 -62 470 c 128,-1,43
 -62 511 -62 511 -32 537 c 128,-1,44
 -2 563 -2 563 34 563 c 2,12,-1
EndSplineSet
EndChar

StartChar: Dtopbar
Encoding: 395 395 312
Width: 600
GlyphClass: 2
Flags: W
LayerCount: 2
Fore
SplineSet
287 323 m 2,0,-1
 434 323 l 1,1,-1
 434 522 l 1,2,-1
 130 522 l 1,3,-1
 130 424 l 2,4,5
 130 397 130 397 110 397 c 0,6,7
 89 397 89 397 89 424 c 2,8,-1
 89 563 l 1,9,-1
 529 563 l 2,10,11
 556 563 556 563 556 543 c 0,12,13
 556 522 556 522 529 522 c 2,14,-1
 475 522 l 1,15,-1
 475 41 l 1,16,-1
 529 41 l 2,17,18
 556 41 556 41 556 21 c 0,19,20
 556 0 556 0 529 0 c 2,21,-1
 223 0 l 2,22,23
 155 0 155 0 106.5 47 c 128,-1,24
 58 94 58 94 58 158 c 0,25,26
 58 186 58 186 68.5 212.5 c 128,-1,27
 79 239 79 239 103 265 c 128,-1,28
 127 291 127 291 174.5 307 c 128,-1,29
 222 323 222 323 287 323 c 2,0,-1
99 158 m 0,30,31
 99 111 99 111 136 76 c 128,-1,32
 173 41 173 41 226 41 c 2,33,-1
 434 41 l 1,34,-1
 434 282 l 1,35,-1
 285 282 l 2,36,37
 180 282 180 282 139.5 244 c 128,-1,38
 99 206 99 206 99 158 c 0,30,31
EndSplineSet
EndChar

StartChar: dtopbar
Encoding: 396 396 313
Width: 600
GlyphClass: 2
Flags: W
LayerCount: 2
Fore
SplineSet
241 390 m 0,0,1
 166 390 166 390 114.5 336.5 c 128,-1,2
 63 283 63 283 63 205 c 0,3,4
 63 131 63 131 115.5 78 c 128,-1,5
 168 25 168 25 241 25 c 0,6,7
 315 25 315 25 367 78.5 c 128,-1,8
 419 132 419 132 419 208 c 128,-1,9
 419 284 419 284 367 337 c 128,-1,10
 315 390 315 390 241 390 c 0,0,1
419 563 m 1,11,-1
 90 563 l 2,12,13
 63 563 63 563 63 584 c 0,14,15
 63 604 63 604 90 604 c 2,16,-1
 514 604 l 2,17,18
 541 604 541 604 541 584 c 0,19,20
 541 563 541 563 514 563 c 2,21,-1
 460 563 l 1,22,-1
 460 41 l 1,23,-1
 514 41 l 2,24,25
 541 41 541 41 541 21 c 0,26,27
 541 0 541 0 514 0 c 2,28,-1
 419 0 l 1,29,-1
 419 88 l 1,30,31
 349 -16 349 -16 239 -16 c 0,32,33
 149 -16 149 -16 85.5 50 c 128,-1,34
 22 116 22 116 22 210 c 0,35,36
 22 303 22 303 85 367 c 128,-1,37
 148 431 148 431 239 431 c 0,38,39
 346 431 346 431 419 328 c 1,40,-1
 419 563 l 1,11,-1
EndSplineSet
EndChar

StartChar: Ereversed
Encoding: 398 398 315
Width: 600
GlyphClass: 2
Flags: W
LayerCount: 2
Fore
SplineSet
398 272 m 1,0,-1
 253 272 l 1,1,-1
 253 227 l 2,2,3
 253 200 253 200 232 200 c 0,4,5
 212 200 212 200 212 227 c 2,6,-1
 212 358 l 2,7,8
 212 385 212 385 232 385 c 0,9,10
 253 385 253 385 253 358 c 2,11,-1
 253 313 l 1,12,-1
 398 313 l 1,13,-1
 398 522 l 1,14,-1
 105 522 l 1,15,-1
 105 424 l 2,16,17
 105 397 105 397 85 397 c 0,18,19
 64 397 64 397 64 424 c 2,20,-1
 64 563 l 1,21,-1
 493 563 l 2,22,23
 520 563 520 563 520 543 c 0,24,25
 520 522 520 522 493 522 c 2,26,-1
 439 522 l 1,27,-1
 439 41 l 1,28,-1
 493 41 l 2,29,30
 520 41 520 41 520 21 c 0,31,32
 520 0 520 0 493 0 c 2,33,-1
 43 0 l 1,34,-1
 43 160 l 2,35,36
 43 187 43 187 63 187 c 0,37,38
 84 187 84 187 84 160 c 2,39,-1
 84 41 l 1,40,-1
 398 41 l 1,41,-1
 398 272 l 1,0,-1
EndSplineSet
EndChar

StartChar: Epsilonlatin
Encoding: 400 400 317
Width: 600
GlyphClass: 2
Flags: W
LayerCount: 2
Fore
SplineSet
297 270 m 2,0,1
 224 270 224 270 180 238 c 128,-1,2
 136 206 136 206 136 153 c 0,3,4
 136 98 136 98 182.5 61.5 c 128,-1,5
 229 25 229 25 299 25 c 0,6,7
 367 25 367 25 416 59 c 128,-1,8
 465 93 465 93 467 142 c 0,9,10
 468 166 468 166 487 166 c 0,11,12
 508 166 508 166 508 139 c 2,13,-1
 508 27 l 2,14,15
 508 0 508 0 488 0 c 0,16,17
 467 0 467 0 467 27 c 2,18,-1
 467 56 l 1,19,20
 404 -16 404 -16 298 -16 c 0,21,22
 208 -16 208 -16 150 31 c 128,-1,23
 92 78 92 78 92 151 c 0,24,25
 92 204 92 204 122 240 c 128,-1,26
 152 276 152 276 202 291 c 1,27,-1
 202 298 l 1,28,29
 163 312 163 312 138.5 344.5 c 128,-1,30
 114 377 114 377 114 421 c 0,31,32
 114 487 114 487 166.5 531.5 c 128,-1,33
 219 576 219 576 298 576 c 0,34,35
 384 576 384 576 444 517 c 1,36,-1
 444 536 l 2,37,38
 444 563 444 563 465 563 c 0,39,40
 485 563 485 563 485 536 c 2,41,-1
 485 433 l 2,42,43
 485 406 485 406 465 406 c 0,44,45
 446 406 446 406 444 430 c 0,46,47
 441 475 441 475 400 505 c 128,-1,48
 359 535 359 535 301 535 c 0,49,50
 239 535 239 535 198.5 502 c 128,-1,51
 158 469 158 469 158 420 c 128,-1,52
 158 371 158 371 201.5 341 c 128,-1,53
 245 311 245 311 310 311 c 2,54,-1
 358 311 l 2,55,56
 385 311 385 311 385 291 c 0,57,58
 385 270 385 270 358 270 c 2,59,-1
 297 270 l 2,0,1
EndSplineSet
EndChar

StartChar: Fhook
Encoding: 401 401 318
Width: 600
GlyphClass: 2
Flags: W
LayerCount: 2
Fore
SplineSet
26 -39 m 0,0,1
 30 -39 30 -39 52 -45.5 c 128,-1,2
 74 -52 74 -52 96 -52 c 0,3,4
 129 -52 129 -52 149 -19.5 c 128,-1,5
 169 13 169 13 169 64 c 2,6,-1
 169 522 l 1,7,-1
 115 522 l 2,8,9
 88 522 88 522 88 543 c 0,10,11
 88 563 88 563 115 563 c 2,12,-1
 565 563 l 1,13,-1
 565 424 l 2,14,15
 565 397 565 397 544 397 c 0,16,17
 524 397 524 397 524 424 c 2,18,-1
 524 522 l 1,19,-1
 210 522 l 1,20,-1
 210 313 l 1,21,-1
 355 313 l 1,22,-1
 355 358 l 2,23,24
 355 385 355 385 375 385 c 0,25,26
 396 385 396 385 396 358 c 2,27,-1
 396 227 l 2,28,29
 396 200 396 200 375 200 c 0,30,31
 355 200 355 200 355 227 c 2,32,-1
 355 272 l 1,33,-1
 210 272 l 1,34,-1
 210 41 l 1,35,36
 204 -18 204 -18 174 -55 c 128,-1,37
 144 -92 144 -92 95 -93 c 0,38,39
 70 -93 70 -93 39 -85 c 128,-1,40
 8 -77 8 -77 8 -59 c 0,41,42
 8 -51 8 -51 13.5 -45 c 128,-1,43
 19 -39 19 -39 26 -39 c 0,0,1
EndSplineSet
EndChar

StartChar: florin
Encoding: 402 402 319
Width: 600
GlyphClass: 2
Flags: W
LayerCount: 2
Fore
SplineSet
499 566 m 0,0,1
 497 566 497 566 476.5 571.5 c 128,-1,2
 456 577 456 577 435 577 c 0,3,4
 384 577 384 577 352.5 545 c 128,-1,5
 321 513 321 513 321 462 c 2,6,-1
 321 375 l 1,7,-1
 417 375 l 2,8,9
 444 375 444 375 444 355 c 0,10,11
 444 334 444 334 417 334 c 2,12,-1
 321 334 l 1,13,-1
 321 58 l 2,14,15
 321 -5 321 -5 278 -49 c 128,-1,16
 235 -93 235 -93 174 -93 c 0,17,18
 149 -93 149 -93 118 -85 c 128,-1,19
 87 -77 87 -77 87 -59 c 0,20,21
 87 -51 87 -51 92.5 -45 c 128,-1,22
 98 -39 98 -39 105 -39 c 0,23,24
 108 -39 108 -39 131 -45.5 c 128,-1,25
 154 -52 154 -52 175 -52 c 0,26,27
 221 -52 221 -52 250.5 -19.5 c 128,-1,28
 280 13 280 13 280 64 c 2,29,-1
 280 334 l 1,30,-1
 184 334 l 2,31,32
 157 334 157 334 157 355 c 0,33,34
 157 375 157 375 184 375 c 2,35,-1
 280 375 l 1,36,-1
 280 462 l 2,37,38
 280 527 280 527 323.5 572.5 c 128,-1,39
 367 618 367 618 431 618 c 0,40,41
 456 618 456 618 487 610.5 c 128,-1,42
 518 603 518 603 518 586 c 0,43,44
 518 578 518 578 512.5 572 c 128,-1,45
 507 566 507 566 499 566 c 0,0,1
EndSplineSet
EndChar

StartChar: Ghook
Encoding: 403 403 320
Width: 600
GlyphClass: 2
Flags: W
LayerCount: 2
Fore
SplineSet
63 318 m 2,0,1
 63 423 63 423 133.5 499.5 c 128,-1,2
 204 576 204 576 313 576 c 0,3,4
 412 576 412 576 479 522 c 1,5,-1
 479 536 l 2,6,7
 479 573 479 573 505 602.5 c 128,-1,8
 531 632 531 632 572 632 c 128,-1,9
 613 632 613 632 640.5 604 c 128,-1,10
 668 576 668 576 668 538 c 0,11,12
 668 530 668 530 662 524 c 128,-1,13
 656 518 656 518 648 518 c 0,14,15
 639 518 639 518 633 524 c 128,-1,16
 627 530 627 530 627 538 c 0,17,18
 627 559 627 559 611 575.5 c 128,-1,19
 595 592 595 592 571 592 c 0,20,21
 552 591 552 591 536 573 c 128,-1,22
 520 555 520 555 520 536 c 2,23,-1
 520 445 l 2,24,25
 520 418 520 418 500 418 c 0,26,27
 481 418 481 418 480 443 c 0,28,29
 477 481 477 481 429 508 c 128,-1,30
 381 535 381 535 315 535 c 0,31,32
 253 535 253 535 208 508 c 128,-1,33
 163 481 163 481 142.5 442 c 128,-1,34
 122 403 122 403 113 371 c 128,-1,35
 104 339 104 339 104 317 c 2,36,-1
 104 244 l 2,37,38
 104 142 104 142 166 83.5 c 128,-1,39
 228 25 228 25 336 25 c 0,40,41
 406 25 406 25 479 59 c 1,42,-1
 479 209 l 1,43,-1
 340 209 l 2,44,45
 313 209 313 209 313 230 c 0,46,47
 313 250 313 250 340 250 c 2,48,-1
 534 250 l 2,49,50
 562 250 562 250 562 230 c 0,51,52
 562 209 562 209 534 209 c 2,53,-1
 520 209 l 1,54,-1
 520 36 l 1,55,56
 430 -16 430 -16 333 -16 c 0,57,58
 210 -16 210 -16 136.5 55 c 128,-1,59
 63 126 63 126 63 244 c 2,60,-1
 63 318 l 2,0,1
EndSplineSet
EndChar

StartChar: Gammalatin
Encoding: 404 404 321
Width: 600
GlyphClass: 2
Flags: W
LayerCount: 2
Fore
SplineSet
300 227 m 1,0,1
 293 216 293 216 279 197 c 128,-1,2
 265 178 265 178 258.5 168 c 128,-1,3
 252 158 252 158 246 141 c 128,-1,4
 240 124 240 124 240 106 c 2,5,-1
 240 104 l 2,6,7
 240 67 240 67 253.5 40.5 c 128,-1,8
 267 14 267 14 300 14 c 0,9,10
 360 14 360 14 360 104 c 0,11,12
 360 114 360 114 357 125 c 128,-1,13
 354 136 354 136 351.5 143.5 c 128,-1,14
 349 151 349 151 341.5 164 c 128,-1,15
 334 177 334 177 330 182.5 c 128,-1,16
 326 188 326 188 315 204.5 c 128,-1,17
 304 221 304 221 300 227 c 1,0,1
277 261 m 2,18,-1
 99 522 l 1,19,-1
 75 522 l 2,20,21
 48 522 48 522 48 543 c 0,22,23
 48 563 48 563 75 563 c 2,24,-1
 186 563 l 2,25,26
 213 563 213 563 213 543 c 0,27,28
 213 522 213 522 186 522 c 2,29,-1
 148 522 l 1,30,-1
 300 295 l 1,31,-1
 449 522 l 1,32,-1
 409 522 l 2,33,34
 381 522 381 522 381 543 c 0,35,36
 381 563 381 563 409 563 c 2,37,-1
 519 563 l 2,38,39
 546 563 546 563 546 543 c 0,40,41
 546 522 546 522 519 522 c 2,42,-1
 495 522 l 1,43,-1
 323 262 l 2,44,45
 324 260 324 260 335.5 245.5 c 128,-1,46
 347 231 347 231 353 223 c 128,-1,47
 359 215 359 215 369.5 198 c 128,-1,48
 380 181 380 181 386 168 c 128,-1,49
 392 155 392 155 396.5 137.5 c 128,-1,50
 401 120 401 120 401 104 c 0,51,52
 401 46 401 46 374.5 9.5 c 128,-1,53
 348 -27 348 -27 300 -27 c 0,54,55
 253 -27 253 -27 226 12 c 128,-1,56
 199 51 199 51 199 104 c 0,57,58
 199 132 199 132 209.5 159 c 128,-1,59
 220 186 220 186 229 200 c 128,-1,60
 238 214 238 214 257 236.5 c 128,-1,61
 276 259 276 259 277 261 c 2,18,-1
EndSplineSet
EndChar

StartChar: hv
Encoding: 405 405 322
Width: 600
GlyphClass: 2
Flags: W
LayerCount: 2
Fore
SplineSet
581 116 m 2,0,1
 580 60 580 60 544.5 22 c 128,-1,2
 509 -16 509 -16 450 -16 c 0,3,4
 386 -16 386 -16 340 41 c 0,5,6
 332 52 332 52 327 70.5 c 128,-1,7
 322 89 322 89 322 102 c 2,8,-1
 321 115 l 1,9,-1
 321 297 l 2,10,11
 321 390 321 390 253 390 c 2,12,-1
 230 390 l 2,13,14
 194 390 194 390 168.5 363.5 c 128,-1,15
 143 337 143 337 136 316 c 2,16,-1
 129 296 l 1,17,-1
 129 41 l 1,18,-1
 174 41 l 2,19,20
 202 41 202 41 202 21 c 0,21,22
 202 0 202 0 174 0 c 2,23,-1
 42 0 l 2,24,25
 15 0 15 0 15 21 c 0,26,27
 15 41 15 41 42 41 c 2,28,-1
 88 41 l 1,29,-1
 88 563 l 1,30,-1
 34 563 l 2,31,32
 7 563 7 563 7 584 c 0,33,34
 7 604 7 604 34 604 c 2,35,-1
 129 604 l 1,36,-1
 128 360 l 1,37,38
 146 397 146 397 168.5 414 c 128,-1,39
 191 431 191 431 232 431 c 0,40,41
 362 431 362 431 362 291 c 2,42,-1
 362 115 l 2,43,44
 362 77 362 77 388.5 51 c 128,-1,45
 415 25 415 25 453 25 c 0,46,47
 498 25 498 25 518.5 55 c 128,-1,48
 539 85 539 85 539 118 c 2,49,-1
 539 376 l 1,50,-1
 465 376 l 2,51,52
 437 376 437 376 437 397 c 0,53,54
 437 417 437 417 465 417 c 2,55,-1
 580 417 l 1,56,-1
 581 116 l 2,0,1
EndSplineSet
EndChar

StartChar: Iotalatin
Encoding: 406 406 323
Width: 600
GlyphClass: 2
Flags: W
LayerCount: 2
Fore
SplineSet
502 68 m 0,0,1
 502 59 502 59 487 42 c 128,-1,2
 472 25 472 25 439.5 8.5 c 128,-1,3
 407 -8 407 -8 370 -8 c 0,4,5
 320 -8 320 -8 290.5 27.5 c 128,-1,6
 261 63 261 63 261 120 c 2,7,-1
 261 523 l 1,8,-1
 200 523 l 2,9,10
 173 523 173 523 173 543 c 128,-1,11
 173 563 173 563 200 563 c 2,12,-1
 302 563 l 1,13,-1
 302 120 l 2,14,15
 302 33 302 33 370 33 c 0,16,17
 396 33 396 33 416.5 41.5 c 128,-1,18
 437 50 437 50 447 60.5 c 128,-1,19
 457 71 457 71 466.5 79.5 c 128,-1,20
 476 88 476 88 482 88 c 0,21,22
 485 88 485 88 489.5 86.5 c 128,-1,23
 494 85 494 85 498 80 c 128,-1,24
 502 75 502 75 502 68 c 0,0,1
EndSplineSet
EndChar

StartChar: Ibar
Encoding: 407 407 324
Width: 600
GlyphClass: 2
Flags: W
LayerCount: 2
Fore
SplineSet
279 321 m 1,0,-1
 279 522 l 1,1,-1
 140 522 l 2,2,3
 113 522 113 522 113 543 c 0,4,5
 113 563 113 563 140 563 c 2,6,-1
 459 563 l 2,7,8
 487 563 487 563 487 543 c 0,9,10
 487 522 487 522 459 522 c 2,11,-1
 320 522 l 1,12,-1
 320 321 l 1,13,-1
 420 321 l 2,14,15
 447 321 447 321 447 301 c 128,-1,16
 447 281 447 281 420 281 c 2,17,-1
 320 281 l 1,18,-1
 320 41 l 1,19,-1
 459 41 l 2,20,21
 487 41 487 41 487 21 c 0,22,23
 487 0 487 0 459 0 c 2,24,-1
 140 0 l 2,25,26
 113 0 113 0 113 21 c 0,27,28
 113 41 113 41 140 41 c 2,29,-1
 279 41 l 1,30,-1
 279 281 l 1,31,-1
 184 281 l 2,32,33
 157 281 157 281 157 301 c 128,-1,34
 157 321 157 321 184 321 c 2,35,-1
 279 321 l 1,0,-1
EndSplineSet
EndChar

StartChar: Khook
Encoding: 408 408 325
Width: 600
GlyphClass: 2
Flags: W
LayerCount: 2
Fore
SplineSet
502 522 m 1,0,-1
 280 324 l 1,1,2
 353 294 353 294 393 239.5 c 128,-1,3
 433 185 433 185 489 41 c 1,4,-1
 545 41 l 2,5,6
 572 41 572 41 572 21 c 0,7,8
 572 0 572 0 545 0 c 2,9,-1
 458 0 l 1,10,11
 403 152 403 152 360 211.5 c 128,-1,12
 317 271 317 271 246 294 c 1,13,-1
 165 221 l 1,14,-1
 165 41 l 1,15,-1
 240 41 l 2,16,17
 267 41 267 41 267 21 c 0,18,19
 267 0 267 0 240 0 c 2,20,-1
 70 0 l 2,21,22
 43 0 43 0 43 21 c 0,23,24
 43 41 43 41 70 41 c 2,25,-1
 124 41 l 1,26,-1
 124 522 l 1,27,-1
 70 522 l 2,28,29
 43 522 43 522 43 543 c 0,30,31
 43 563 43 563 70 563 c 2,32,-1
 240 563 l 2,33,34
 267 563 267 563 267 543 c 0,35,36
 267 522 267 522 240 522 c 2,37,-1
 165 522 l 1,38,-1
 165 273 l 1,39,-1
 445 522 l 1,40,-1
 400 522 l 2,41,42
 372 522 372 522 372 543 c 0,43,44
 372 563 372 563 400 563 c 2,45,-1
 518 563 l 2,46,47
 554 563 554 563 584 537 c 128,-1,48
 614 511 614 511 614 470 c 128,-1,49
 614 429 614 429 586 401.5 c 128,-1,50
 558 374 558 374 520 374 c 0,51,52
 512 374 512 374 506 380 c 128,-1,53
 500 386 500 386 500 394 c 0,54,55
 500 403 500 403 506 409 c 128,-1,56
 512 415 512 415 520 415 c 0,57,58
 541 415 541 415 557.5 431 c 128,-1,59
 574 447 574 447 574 471 c 0,60,61
 573 490 573 490 555 506 c 128,-1,62
 537 522 537 522 518 522 c 2,63,-1
 502 522 l 1,0,-1
EndSplineSet
EndChar

StartChar: khook
Encoding: 409 409 326
Width: 600
GlyphClass: 2
Flags: W
LayerCount: 2
Fore
SplineSet
363 566 m 0,0,1
 361 566 361 566 340.5 571.5 c 128,-1,2
 320 577 320 577 299 577 c 0,3,4
 248 577 248 577 216.5 545 c 128,-1,5
 185 513 185 513 185 462 c 2,6,-1
 185 229 l 1,7,-1
 358 376 l 1,8,-1
 336 376 l 2,9,10
 309 376 309 376 309 397 c 0,11,12
 309 417 309 417 336 417 c 2,13,-1
 466 417 l 2,14,15
 493 417 493 417 493 397 c 0,16,17
 493 376 493 376 466 376 c 2,18,-1
 419 376 l 1,19,-1
 262 245 l 1,20,-1
 469 41 l 1,21,-1
 514 41 l 2,22,23
 541 41 541 41 541 21 c 0,24,25
 541 0 541 0 514 0 c 2,26,-1
 383 0 l 2,27,28
 356 0 356 0 356 21 c 0,29,30
 356 41 356 41 383 41 c 2,31,-1
 411 41 l 1,32,-1
 231 219 l 1,33,-1
 185 180 l 1,34,-1
 185 0 l 1,35,-1
 90 0 l 2,36,37
 63 0 63 0 63 21 c 0,38,39
 63 41 63 41 90 41 c 2,40,-1
 144 41 l 1,41,-1
 144 462 l 2,42,43
 144 527 144 527 187.5 572.5 c 128,-1,44
 231 618 231 618 295 618 c 0,45,46
 320 618 320 618 351 610.5 c 128,-1,47
 382 603 382 603 382 586 c 0,48,49
 382 578 382 578 376.5 572 c 128,-1,50
 371 566 371 566 363 566 c 0,0,1
EndSplineSet
EndChar

StartChar: lbar
Encoding: 410 410 327
Width: 600
GlyphClass: 2
Flags: W
LayerCount: 2
Fore
SplineSet
445 297 m 0,0,1
 445 293 445 293 443 288.5 c 128,-1,2
 441 284 441 284 434.5 279 c 128,-1,3
 428 274 428 274 418 274 c 2,4,-1
 320 274 l 1,5,-1
 320 41 l 1,6,-1
 480 41 l 2,7,8
 508 41 508 41 508 21 c 0,9,10
 508 0 508 0 480 0 c 2,11,-1
 119 0 l 2,12,13
 92 0 92 0 92 21 c 0,14,15
 92 41 92 41 119 41 c 2,16,-1
 279 41 l 1,17,-1
 279 274 l 1,18,-1
 182 274 l 2,19,20
 155 274 155 274 155 294 c 128,-1,21
 155 314 155 314 182 314 c 2,22,-1
 279 314 l 1,23,-1
 279 563 l 1,24,-1
 162 563 l 2,25,26
 135 563 135 563 135 584 c 0,27,28
 135 604 135 604 162 604 c 2,29,-1
 320 604 l 1,30,-1
 320 314 l 1,31,-1
 418 314 l 2,32,33
 445 314 445 314 445 297 c 0,0,1
EndSplineSet
EndChar

StartChar: lambdastroke
Encoding: 411 411 328
Width: 600
GlyphClass: 2
Flags: W
LayerCount: 2
Fore
SplineSet
203 614 m 2,0,1
 222 614 222 614 235 604.5 c 128,-1,2
 248 595 248 595 252 586.5 c 128,-1,3
 256 578 256 578 256 573 c 2,4,-1
 271 541 l 1,5,-1
 343 590 l 2,6,7
 355 596 355 596 360 596 c 0,8,9
 368 596 368 596 373.5 590 c 128,-1,10
 379 584 379 584 379 576 c 0,11,12
 379 564 379 564 363 555 c 2,13,-1
 289 503 l 1,14,-1
 510 39 l 1,15,-1
 527 39 l 2,16,17
 544 39 544 39 546 31 c 2,18,-1
 550 18 l 1,19,20
 550 -2 550 -2 522 -2 c 2,21,-1
 412 -2 l 2,22,23
 387 -2 387 -2 387 18 c 0,24,25
 387 39 387 39 412 39 c 2,26,-1
 468 39 l 1,27,-1
 305 379 l 1,28,-1
 142 39 l 1,29,-1
 195 39 l 2,30,31
 222 39 222 39 222 18 c 0,32,33
 222 -2 222 -2 195 -2 c 2,34,-1
 85 -2 l 2,35,36
 76 -2 76 -2 70 0 c 0,37,38
 66 0 66 0 62 7 c 128,-1,39
 58 14 58 14 58 18 c 0,40,41
 58 39 58 39 85 39 c 2,42,-1
 97 39 l 1,43,-1
 283 424 l 1,44,-1
 256 480 l 1,45,-1
 178 426 l 2,46,47
 167 420 167 420 161 420 c 0,48,49
 154 420 154 420 148 426.5 c 128,-1,50
 142 433 142 433 142 441 c 0,51,52
 142 453 142 453 158 462 c 2,53,-1
 238 518 l 1,54,-1
 212 573 l 1,55,-1
 118 573 l 2,56,57
 91 573 91 573 91 594 c 0,58,59
 91 614 91 614 118 614 c 2,60,-1
 203 614 l 2,0,1
EndSplineSet
EndChar

StartChar: Mturned
Encoding: 412 412 329
Width: 600
GlyphClass: 2
Flags: W
LayerCount: 2
Fore
SplineSet
492 0 m 1,0,-1
 492 52 l 1,1,2
 467 16 467 16 443 1 c 128,-1,3
 419 -14 419 -14 387 -14 c 0,4,5
 323 -14 323 -14 290 57 c 1,6,7
 235 -14 235 -14 177 -14 c 0,8,9
 134 -14 134 -14 103 18 c 128,-1,10
 72 50 72 50 72 94 c 2,11,-1
 72 522 l 1,12,-1
 38 522 l 2,13,14
 11 522 11 522 11 542 c 0,15,16
 11 563 11 563 38 563 c 2,17,-1
 112 563 l 1,18,-1
 112 98 l 2,19,20
 112 70 112 70 132 48.5 c 128,-1,21
 152 27 152 27 178 27 c 0,22,23
 228 27 228 27 282 109 c 1,24,-1
 282 522 l 1,25,-1
 248 522 l 2,26,27
 221 522 221 522 221 542 c 0,28,29
 221 563 221 563 248 563 c 2,30,-1
 322 563 l 1,31,-1
 322 101 l 2,32,33
 322 72 322 72 341.5 49.5 c 128,-1,34
 361 27 361 27 387 27 c 0,35,36
 437 27 437 27 492 109 c 1,37,-1
 492 522 l 1,38,-1
 458 522 l 2,39,40
 431 522 431 522 431 542 c 0,41,42
 431 563 431 563 458 563 c 2,43,-1
 567 563 l 2,44,45
 593 563 593 563 593 542 c 0,46,47
 593 522 593 522 566 522 c 2,48,-1
 532 522 l 1,49,-1
 532 41 l 1,50,-1
 566 41 l 2,51,52
 593 41 593 41 593 20 c 0,53,54
 593 0 593 0 566 0 c 2,55,-1
 492 0 l 1,0,-1
EndSplineSet
EndChar

StartChar: Nhook
Encoding: 413 413 330
Width: 600
GlyphClass: 2
Flags: W
LayerCount: 2
Fore
SplineSet
210 58 m 2,0,1
 210 -6 210 -6 178.5 -49 c 128,-1,2
 147 -92 147 -92 95 -93 c 0,3,4
 70 -93 70 -93 39 -85 c 128,-1,5
 8 -77 8 -77 8 -59 c 0,6,7
 8 -51 8 -51 13.5 -45 c 128,-1,8
 19 -39 19 -39 26 -39 c 0,9,10
 30 -39 30 -39 52 -45.5 c 128,-1,11
 74 -52 74 -52 96 -52 c 0,12,13
 129 -52 129 -52 149 -19.5 c 128,-1,14
 169 13 169 13 169 64 c 2,15,-1
 169 522 l 1,16,-1
 115 522 l 2,17,18
 88 522 88 522 88 543 c 0,19,20
 88 563 88 563 115 563 c 2,21,-1
 221 563 l 1,22,-1
 494 59 l 1,23,-1
 494 522 l 1,24,-1
 420 522 l 2,25,26
 392 522 392 522 392 543 c 0,27,28
 392 563 392 563 420 563 c 2,29,-1
 569 563 l 2,30,31
 596 563 596 563 596 543 c 0,32,33
 596 522 596 522 569 522 c 2,34,-1
 535 522 l 1,35,-1
 535 0 l 1,36,-1
 483 0 l 1,37,-1
 210 504 l 1,38,-1
 210 58 l 2,0,1
EndSplineSet
EndChar

StartChar: nleg
Encoding: 414 414 331
Width: 600
GlyphClass: 2
Flags: W
LayerCount: 2
Fore
SplineSet
319 390 m 0,0,1
 301 390 301 390 284.5 386.5 c 128,-1,2
 268 383 268 383 253.5 375.5 c 128,-1,3
 239 368 239 368 229 361.5 c 128,-1,4
 219 355 219 355 207.5 343 c 128,-1,5
 196 331 196 331 191.5 325.5 c 128,-1,6
 187 320 187 320 177.5 307.5 c 128,-1,7
 168 295 168 295 167 294 c 2,8,-1
 167 41 l 1,9,-1
 212 41 l 2,10,11
 239 41 239 41 239 21 c 0,12,13
 239 0 239 0 212 0 c 2,14,-1
 81 0 l 2,15,16
 53 0 53 0 53 21 c 0,17,18
 53 41 53 41 81 41 c 2,19,-1
 126 41 l 1,20,-1
 126 376 l 1,21,-1
 92 376 l 2,22,23
 65 376 65 376 65 397 c 0,24,25
 65 417 65 417 92 417 c 2,26,-1
 167 417 l 1,27,-1
 167 348 l 1,28,29
 210 396 210 396 243 413.5 c 128,-1,30
 276 431 276 431 323 431 c 0,31,32
 390 431 390 431 435 392 c 128,-1,33
 480 353 480 353 480 295 c 2,34,-1
 480 -143 l 1,35,-1
 514 -143 l 2,36,37
 541 -143 541 -143 541 -163 c 0,38,39
 541 -184 541 -184 514 -184 c 2,40,-1
 405 -184 l 2,41,42
 378 -184 378 -184 378 -163 c 0,43,44
 378 -143 378 -143 405 -143 c 2,45,-1
 439 -143 l 1,46,-1
 439 288 l 2,47,48
 439 331 439 331 406.5 360.5 c 128,-1,49
 374 390 374 390 319 390 c 0,0,1
EndSplineSet
EndChar

StartChar: Ohorn
Encoding: 416 416 333
Width: 600
GlyphClass: 3
Flags: W
AnchorPoint: "Anchor-3" 301 563 basechar 0
LayerCount: 2
Fore
SplineSet
300 535 m 0,0,1
 214 535 214 535 153 460 c 128,-1,2
 92 385 92 385 92 280 c 128,-1,3
 92 175 92 175 153 100 c 128,-1,4
 214 25 214 25 300 25 c 0,5,6
 385 25 385 25 446.5 99.5 c 128,-1,7
 508 174 508 174 508 277 c 0,8,9
 508 385 508 385 447.5 460 c 128,-1,10
 387 535 387 535 300 535 c 0,0,1
443 524 m 1,11,-1
 501 524 l 2,12,13
 520 524 520 524 538 540 c 128,-1,14
 556 556 556 556 557 575 c 0,15,16
 557 599 557 599 540.5 615 c 128,-1,17
 524 631 524 631 503 631 c 0,18,19
 495 631 495 631 489 637 c 128,-1,20
 483 643 483 643 483 652 c 0,21,22
 483 660 483 660 489 666 c 128,-1,23
 495 672 495 672 503 672 c 0,24,25
 541 672 541 672 569 644.5 c 128,-1,26
 597 617 597 617 597 576 c 128,-1,27
 597 535 597 535 567.5 509 c 128,-1,28
 538 483 538 483 501 483 c 2,29,-1
 483 483 l 1,30,31
 549 398 549 398 549 276 c 0,32,33
 549 155 549 155 476 69.5 c 128,-1,34
 403 -16 403 -16 300 -16 c 0,35,36
 196 -16 196 -16 123.5 70 c 128,-1,37
 51 156 51 156 51 280 c 128,-1,38
 51 404 51 404 123.5 490 c 128,-1,39
 196 576 196 576 300 576 c 0,40,41
 380 576 380 576 443 524 c 1,11,-1
EndSplineSet
Ligature2: "'ccmp' Glyph Composition/Decomposition in Latin lookup 2 per glyph data 0" O horncmb
EndChar

StartChar: ohorn
Encoding: 417 417 334
Width: 600
GlyphClass: 3
Flags: W
AnchorPoint: "Anchor-3" 261 431 basechar 0
LayerCount: 2
Fore
SplineSet
300 390 m 0,0,1
 222 390 222 390 167.5 337 c 128,-1,2
 113 284 113 284 113 208 c 128,-1,3
 113 132 113 132 167.5 78.5 c 128,-1,4
 222 25 222 25 300 25 c 0,5,6
 377 25 377 25 432 78 c 128,-1,7
 487 131 487 131 487 205 c 0,8,9
 487 284 487 284 433 337 c 128,-1,10
 379 390 379 390 300 390 c 0,0,1
431 391 m 1,11,-1
 494 391 l 2,12,13
 513 391 513 391 531 407 c 128,-1,14
 549 423 549 423 550 442 c 0,15,16
 550 466 550 466 533.5 482 c 128,-1,17
 517 498 517 498 496 498 c 0,18,19
 488 498 488 498 482 504 c 128,-1,20
 476 510 476 510 476 519 c 0,21,22
 476 527 476 527 482 533 c 128,-1,23
 488 539 488 539 496 539 c 0,24,25
 534 539 534 539 562 511.5 c 128,-1,26
 590 484 590 484 590 443 c 128,-1,27
 590 402 590 402 560.5 376 c 128,-1,28
 531 350 531 350 494 350 c 2,29,-1
 476 350 l 1,30,31
 528 289 528 289 528 205 c 0,32,33
 528 113 528 113 461 48.5 c 128,-1,34
 394 -16 394 -16 300 -16 c 0,35,36
 205 -16 205 -16 138.5 49 c 128,-1,37
 72 114 72 114 72 208 c 0,38,39
 72 300 72 300 138.5 365.5 c 128,-1,40
 205 431 205 431 300 431 c 0,41,42
 372 431 372 431 431 391 c 1,11,-1
EndSplineSet
Ligature2: "'ccmp' Glyph Composition/Decomposition in Latin lookup 2 per glyph data 0" o horncmb
EndChar

StartChar: Oi
Encoding: 418 418 335
Width: 600
GlyphClass: 2
Flags: W
LayerCount: 2
Fore
SplineSet
217 535 m 0,0,1
 133 535 133 535 88.5 462.5 c 128,-1,2
 44 390 44 390 44 277 c 0,3,4
 44 169 44 169 90 97 c 128,-1,5
 136 25 136 25 217 25 c 0,6,7
 299 25 299 25 344.5 97.5 c 128,-1,8
 390 170 390 170 390 280 c 0,9,10
 390 391 390 391 345 463 c 128,-1,11
 300 535 300 535 217 535 c 0,0,1
281 565 m 1,12,13
 322 638 322 638 424 638 c 0,14,15
 487 638 487 638 516 601 c 128,-1,16
 545 564 545 564 545 522 c 2,17,-1
 545 41 l 1,18,-1
 566 41 l 2,19,20
 594 41 594 41 594 21 c 0,21,22
 594 0 594 0 566 0 c 2,23,-1
 479 0 l 2,24,25
 452 0 452 0 452 21 c 0,26,27
 452 41 452 41 479 41 c 2,28,-1
 504 41 l 1,29,-1
 504 522 l 2,30,31
 504 533 504 533 501 543.5 c 128,-1,32
 498 554 498 554 489 566.5 c 128,-1,33
 480 579 480 579 460 586.5 c 128,-1,34
 440 594 440 594 410 594 c 0,35,36
 377 594 377 594 357 584 c 128,-1,37
 337 574 337 574 317 546 c 1,38,39
 368 512 368 512 398 448 c 128,-1,40
 428 384 428 384 429 313 c 2,41,-1
 430 272 l 1,42,43
 428 146 428 146 372 65 c 128,-1,44
 316 -16 316 -16 217 -16 c 128,-1,45
 118 -16 118 -16 60.5 67 c 128,-1,46
 3 150 3 150 3 276 c 0,47,48
 3 409 3 409 59 492.5 c 128,-1,49
 115 576 115 576 217 576 c 0,50,51
 250 576 250 576 281 565 c 1,12,13
EndSplineSet
EndChar

StartChar: oi
Encoding: 419 419 336
Width: 600
GlyphClass: 2
Flags: W
LayerCount: 2
Fore
SplineSet
200 390 m 128,-1,1
 142 390 142 390 105 336 c 128,-1,2
 68 282 68 282 68 202 c 0,3,4
 68 127 68 127 105.5 76 c 128,-1,5
 143 25 143 25 200 25 c 0,6,7
 258 25 258 25 296 78 c 128,-1,8
 334 131 334 131 334 208 c 128,-1,9
 334 285 334 285 296 337.5 c 128,-1,0
 258 390 258 390 200 390 c 128,-1,1
280 408 m 1,10,11
 330 468 330 468 424 468 c 0,12,13
 465 468 465 468 493.5 438.5 c 128,-1,14
 522 409 522 409 522 360 c 2,15,-1
 522 41 l 1,16,-1
 568 41 l 2,17,18
 596 41 596 41 596 21 c 0,19,20
 596 0 596 0 568 0 c 2,21,-1
 436 0 l 2,22,23
 410 0 410 0 410 21 c 0,24,25
 410 41 410 41 436 41 c 2,26,-1
 482 41 l 1,27,-1
 482 360 l 2,28,29
 482 393 482 393 464.5 412.5 c 128,-1,30
 447 432 447 432 414 432 c 0,31,32
 353 432 353 432 308 386 c 1,33,34
 371 326 371 326 371 225 c 2,35,-1
 370 184 l 1,36,-1
 370 182 l 2,37,38
 370 101 370 101 318.5 42.5 c 128,-1,39
 267 -16 267 -16 200 -16 c 0,40,41
 129 -16 129 -16 79 49 c 128,-1,42
 29 114 29 114 29 205 c 0,43,44
 29 300 29 300 78.5 365.5 c 128,-1,45
 128 431 128 431 200 431 c 0,46,47
 243 431 243 431 280 408 c 1,10,11
EndSplineSet
EndChar

StartChar: Phook
Encoding: 420 420 337
Width: 600
GlyphClass: 2
Flags: W
LayerCount: 2
Fore
SplineSet
165 522 m 1,0,-1
 165 272 l 1,1,-1
 299 272 l 2,2,3
 364 272 364 272 411 309 c 128,-1,4
 458 346 458 346 458 398 c 0,5,6
 458 449 458 449 415.5 485.5 c 128,-1,7
 373 522 373 522 314 522 c 2,8,-1
 165 522 l 1,0,-1
124 522 m 1,9,-1
 70 522 l 2,10,11
 51 522 51 522 33 506 c 128,-1,12
 15 490 15 490 14 471 c 0,13,14
 14 447 14 447 30.5 431 c 128,-1,15
 47 415 47 415 68 415 c 0,16,17
 76 415 76 415 82 409 c 128,-1,18
 88 403 88 403 88 394 c 0,19,20
 88 386 88 386 82 380 c 128,-1,21
 76 374 76 374 68 374 c 0,22,23
 30 374 30 374 2 401.5 c 128,-1,24
 -26 429 -26 429 -26 470 c 128,-1,25
 -26 511 -26 511 4 537 c 128,-1,26
 34 563 34 563 70 563 c 2,27,-1
 310 563 l 2,28,29
 390 563 390 563 444.5 515.5 c 128,-1,30
 499 468 499 468 499 398 c 128,-1,31
 499 328 499 328 440 279.5 c 128,-1,32
 381 231 381 231 296 231 c 2,33,-1
 165 231 l 1,34,-1
 165 41 l 1,35,-1
 303 41 l 2,36,37
 331 41 331 41 331 21 c 0,38,39
 331 0 331 0 303 0 c 2,40,-1
 70 0 l 2,41,42
 43 0 43 0 43 21 c 0,43,44
 43 41 43 41 70 41 c 2,45,-1
 124 41 l 1,46,-1
 124 522 l 1,9,-1
EndSplineSet
EndChar

StartChar: phook
Encoding: 421 421 338
Width: 600
GlyphClass: 2
Flags: W
LayerCount: 2
Fore
SplineSet
144 221 m 0,0,1
 144 150 144 150 196 100.5 c 128,-1,2
 248 51 248 51 322 51 c 128,-1,3
 396 51 396 51 448 100 c 128,-1,4
 500 149 500 149 500 219 c 0,5,6
 500 292 500 292 449 341 c 128,-1,7
 398 390 398 390 322 390 c 0,8,9
 248 390 248 390 196 340.5 c 128,-1,10
 144 291 144 291 144 221 c 0,0,1
322 566 m 0,11,12
 320 566 320 566 299.5 571.5 c 128,-1,13
 279 577 279 577 258 577 c 0,14,15
 207 577 207 577 175.5 545 c 128,-1,16
 144 513 144 513 144 462 c 2,17,-1
 144 335 l 1,18,19
 184 387 184 387 225 409 c 128,-1,20
 266 431 266 431 323 431 c 0,21,22
 416 431 416 431 478.5 370.5 c 128,-1,23
 541 310 541 310 541 221 c 128,-1,24
 541 132 541 132 478 71 c 128,-1,25
 415 10 415 10 323 10 c 0,26,27
 211 10 211 10 144 106 c 1,28,-1
 144 -145 l 1,29,-1
 242 -145 l 2,30,31
 269 -145 269 -145 269 -165 c 0,32,33
 269 -186 269 -186 242 -186 c 2,34,-1
 49 -186 l 2,35,36
 22 -186 22 -186 22 -165 c 0,37,38
 22 -145 22 -145 49 -145 c 2,39,-1
 103 -145 l 1,40,-1
 103 462 l 2,41,42
 103 527 103 527 146.5 572.5 c 128,-1,43
 190 618 190 618 254 618 c 0,44,45
 279 618 279 618 310 610.5 c 128,-1,46
 341 603 341 603 341 586 c 0,47,48
 341 578 341 578 335.5 572 c 128,-1,49
 330 566 330 566 322 566 c 0,11,12
EndSplineSet
EndChar

StartChar: yr
Encoding: 422 422 339
Width: 600
GlyphClass: 2
Flags: W
LayerCount: 2
Fore
SplineSet
170 221 m 1,0,-1
 267 221 l 2,1,2
 329 221 329 221 374 244 c 128,-1,3
 419 267 419 267 419 302 c 0,4,5
 419 332 419 332 382.5 353 c 128,-1,6
 346 374 346 374 302 374 c 2,7,-1
 170 374 l 1,8,-1
 170 221 l 1,0,-1
170 417 m 1,9,-1
 301 417 l 2,10,11
 368 417 368 417 414 384 c 128,-1,12
 460 351 460 351 460 301 c 0,13,14
 460 259 460 259 431 233 c 128,-1,15
 402 207 402 207 338 194 c 1,16,17
 381 170 381 170 404.5 108 c 128,-1,18
 428 46 428 46 447 -31.5 c 128,-1,19
 466 -109 466 -109 489 -145 c 1,20,-1
 516 -145 l 2,21,22
 527 -145 527 -145 533.5 -151 c 128,-1,23
 540 -157 540 -157 540 -165 c 0,24,25
 540 -186 540 -186 516 -186 c 2,26,-1
 466 -186 l 1,27,28
 442 -155 442 -155 421.5 -93.5 c 128,-1,29
 401 -32 401 -32 389 21 c 128,-1,30
 377 74 377 74 349.5 121.5 c 128,-1,31
 322 169 322 169 283 181 c 1,32,-1
 170 181 l 1,33,-1
 170 41 l 1,34,-1
 233 41 l 2,35,36
 244 41 244 41 250.5 35 c 128,-1,37
 257 29 257 29 257 21 c 0,38,39
 257 0 257 0 233 0 c 2,40,-1
 84 0 l 2,41,42
 60 0 60 0 60 21 c 0,43,44
 60 29 60 29 66.5 35 c 128,-1,45
 73 41 73 41 84 41 c 2,46,-1
 129 41 l 1,47,-1
 129 522 l 1,48,-1
 84 522 l 2,49,50
 73 522 73 522 66.5 528 c 128,-1,51
 60 534 60 534 60 542 c 0,52,53
 60 563 60 563 84 563 c 2,54,-1
 233 563 l 2,55,56
 257 563 257 563 257 542 c 0,57,58
 257 534 257 534 250.5 528 c 128,-1,59
 244 522 244 522 233 522 c 2,60,-1
 170 522 l 1,61,-1
 170 417 l 1,9,-1
EndSplineSet
EndChar

StartChar: Tonetwo
Encoding: 423 423 340
Width: 600
GlyphClass: 2
Flags: W
LayerCount: 2
Fore
SplineSet
92 151 m 0,0,1
 92 202 92 202 118 235.5 c 128,-1,2
 144 269 144 269 182.5 281 c 128,-1,3
 221 293 221 293 266.5 304.5 c 128,-1,4
 312 316 312 316 350.5 324.5 c 128,-1,5
 389 333 389 333 415 357 c 128,-1,6
 441 381 441 381 441 420 c 0,7,8
 441 469 441 469 400.5 502 c 128,-1,9
 360 535 360 535 298 535 c 0,10,11
 240 535 240 535 199 505 c 128,-1,12
 158 475 158 475 155 430 c 0,13,14
 154 406 154 406 134 406 c 256,15,16
 114 406 114 406 114 433 c 2,17,-1
 114 536 l 2,18,19
 114 563 114 563 134 563 c 0,20,21
 155 563 155 563 155 536 c 2,22,-1
 155 517 l 1,23,24
 215 576 215 576 301 576 c 0,25,26
 380 576 380 576 432.5 531.5 c 128,-1,27
 485 487 485 487 485 421 c 0,28,29
 485 371 485 371 459 339.5 c 128,-1,30
 433 308 433 308 394.5 296.5 c 128,-1,31
 356 285 356 285 310.5 274.5 c 128,-1,32
 265 264 265 264 226.5 255.5 c 128,-1,33
 188 247 188 247 162 221 c 128,-1,34
 136 195 136 195 136 153 c 0,35,36
 136 98 136 98 182.5 61.5 c 128,-1,37
 229 25 229 25 299 25 c 0,38,39
 367 25 367 25 416 59 c 128,-1,40
 465 93 465 93 467 142 c 0,41,42
 468 166 468 166 487 166 c 0,43,44
 508 166 508 166 508 139 c 2,45,-1
 508 27 l 2,46,47
 508 0 508 0 488 0 c 0,48,49
 467 0 467 0 467 27 c 2,50,-1
 467 56 l 1,51,52
 404 -16 404 -16 298 -16 c 0,53,54
 208 -16 208 -16 150 31 c 128,-1,55
 92 78 92 78 92 151 c 0,0,1
EndSplineSet
EndChar

StartChar: tonetwo
Encoding: 424 424 341
Width: 600
GlyphClass: 2
Flags: W
LayerCount: 2
Fore
SplineSet
476 318 m 0,0,1
 476 273 476 273 442 248.5 c 128,-1,2
 408 224 408 224 360 216 c 128,-1,3
 312 208 312 208 264 201 c 128,-1,4
 216 194 216 194 182 174.5 c 128,-1,5
 148 155 148 155 148 117 c 0,6,7
 148 77 148 77 192 51 c 128,-1,8
 236 25 236 25 302 25 c 0,9,10
 366 25 366 25 411 49.5 c 128,-1,11
 456 74 456 74 456 108 c 2,12,-1
 456 115 l 2,13,14
 456 137 456 137 476 137 c 0,15,16
 497 137 497 137 497 110 c 2,17,-1
 497 27 l 2,18,19
 497 0 497 0 476 0 c 0,20,21
 456 0 456 0 456 27 c 2,22,-1
 456 38 l 1,23,24
 395 -16 395 -16 299 -16 c 0,25,26
 214 -16 214 -16 158.5 21.5 c 128,-1,27
 103 59 103 59 103 116 c 0,28,29
 103 158 103 158 127.5 185 c 128,-1,30
 152 212 152 212 190.5 224 c 128,-1,31
 229 236 229 236 268.5 242 c 128,-1,32
 308 248 308 248 346 254 c 128,-1,33
 384 260 384 260 399 270 c 0,34,35
 431 288 431 288 431 315 c 0,36,37
 431 347 431 347 394 368.5 c 128,-1,38
 357 390 357 390 301 390 c 0,39,40
 244 390 244 390 208 370 c 128,-1,41
 172 350 172 350 168 316 c 0,42,43
 165 293 165 293 147 293 c 0,44,45
 127 293 127 293 127 320 c 2,46,-1
 127 389 l 2,47,48
 127 417 127 417 147 417 c 0,49,50
 168 417 168 417 168 389 c 2,51,-1
 168 385 l 1,52,53
 220 431 220 431 305 431 c 0,54,55
 379 431 379 431 427.5 399 c 128,-1,56
 476 367 476 367 476 318 c 0,0,1
EndSplineSet
EndChar

StartChar: eshlooprev
Encoding: 426 426 343
Width: 600
GlyphClass: 2
Flags: W
LayerCount: 2
Fore
SplineSet
174 585 m 128,-1,1
 149 585 149 585 131.5 568 c 128,-1,2
 114 551 114 551 114 528 c 0,3,4
 114 504 114 504 131.5 487 c 128,-1,5
 149 470 149 470 174 470 c 128,-1,6
 199 470 199 470 216.5 487 c 128,-1,7
 234 504 234 504 234 527 c 0,8,9
 234 551 234 551 216.5 568 c 128,-1,0
 199 585 199 585 174 585 c 128,-1,1
518 -59 m 0,10,11
 518 -77 518 -77 487 -85 c 128,-1,12
 456 -93 456 -93 431 -93 c 0,13,14
 370 -93 370 -93 327 -49 c 128,-1,15
 284 -5 284 -5 284 58 c 2,16,-1
 284 462 l 2,17,18
 284 500 284 500 267 532 c 1,19,-1
 267 526 l 2,20,21
 267 490 267 490 239.5 463.5 c 128,-1,22
 212 437 212 437 174 437 c 128,-1,23
 136 437 136 437 108.5 464 c 128,-1,24
 81 491 81 491 81 528 c 128,-1,25
 81 565 81 565 108.5 591.5 c 128,-1,26
 136 618 136 618 174 618 c 0,27,28
 238 618 238 618 281.5 572.5 c 128,-1,29
 325 527 325 527 325 462 c 2,30,-1
 325 64 l 2,31,32
 325 13 325 13 354.5 -19.5 c 128,-1,33
 384 -52 384 -52 430 -52 c 0,34,35
 452 -52 452 -52 474 -45.5 c 128,-1,36
 496 -39 496 -39 500 -39 c 0,37,38
 507 -39 507 -39 512.5 -45 c 128,-1,39
 518 -51 518 -51 518 -59 c 0,10,11
EndSplineSet
EndChar

StartChar: tpalatalhook
Encoding: 427 427 344
Width: 600
GlyphClass: 2
Flags: W
LayerCount: 2
Fore
SplineSet
283 -145 m 0,0,1
 286 -145 286 -145 309 -151.5 c 128,-1,2
 332 -158 332 -158 353 -158 c 0,3,4
 399 -158 399 -158 428.5 -125.5 c 128,-1,5
 458 -93 458 -93 458 -42 c 2,6,-1
 458 17 l 1,7,8
 383 -16 383 -16 300 -16 c 0,9,10
 229 -16 229 -16 187 17.5 c 128,-1,11
 145 51 145 51 145 107 c 2,12,-1
 145 376 l 1,13,-1
 71 376 l 2,14,15
 43 376 43 376 43 397 c 0,16,17
 43 417 43 417 71 417 c 2,18,-1
 145 417 l 1,19,-1
 145 536 l 2,20,21
 145 563 145 563 166 563 c 0,22,23
 186 563 186 563 186 536 c 2,24,-1
 186 417 l 1,25,-1
 406 417 l 2,26,27
 433 417 433 417 433 397 c 0,28,29
 433 376 433 376 406 376 c 2,30,-1
 186 376 l 1,31,-1
 186 109 l 2,32,33
 186 71 186 71 216 48 c 128,-1,34
 246 25 246 25 298 25 c 0,35,36
 340 25 340 25 387.5 36.5 c 128,-1,37
 435 48 435 48 464 65 c 0,38,39
 474 71 474 71 480 71 c 0,40,41
 487 71 487 71 493 65 c 128,-1,42
 499 59 499 59 499 51 c 2,43,-1
 499 -48 l 2,44,45
 499 -111 499 -111 456 -155 c 128,-1,46
 413 -199 413 -199 352 -199 c 0,47,48
 327 -199 327 -199 296 -191 c 128,-1,49
 265 -183 265 -183 265 -165 c 0,50,51
 265 -157 265 -157 270.5 -151 c 128,-1,52
 276 -145 276 -145 283 -145 c 0,0,1
EndSplineSet
EndChar

StartChar: Thook
Encoding: 428 428 345
Width: 600
GlyphClass: 2
Flags: W
LayerCount: 2
Fore
SplineSet
113 522 m 2,0,1
 94 522 94 522 76 506 c 128,-1,2
 58 490 58 490 57 471 c 0,3,4
 57 447 57 447 73.5 431 c 128,-1,5
 90 415 90 415 111 415 c 0,6,7
 119 415 119 415 125 409 c 128,-1,8
 131 403 131 403 131 394 c 0,9,10
 131 386 131 386 125 380 c 128,-1,11
 119 374 119 374 111 374 c 0,12,13
 73 374 73 374 45 401.5 c 128,-1,14
 17 429 17 429 17 470 c 128,-1,15
 17 511 17 511 47 537 c 128,-1,16
 77 563 77 563 113 563 c 2,17,-1
 528 563 l 1,18,-1
 528 449 l 2,19,20
 528 422 528 422 508 422 c 0,21,22
 499 422 499 422 493 429.5 c 128,-1,23
 487 437 487 437 487 449 c 2,24,-1
 487 522 l 1,25,-1
 321 522 l 1,26,-1
 321 41 l 1,27,-1
 426 41 l 2,28,29
 453 41 453 41 453 21 c 0,30,31
 453 0 453 0 426 0 c 2,32,-1
 175 0 l 2,33,34
 148 0 148 0 148 21 c 0,35,36
 148 41 148 41 175 41 c 2,37,-1
 280 41 l 1,38,-1
 280 522 l 1,39,-1
 113 522 l 2,0,1
EndSplineSet
EndChar

StartChar: thook
Encoding: 429 429 346
Width: 600
GlyphClass: 2
Flags: W
LayerCount: 2
Fore
SplineSet
364 566 m 0,0,1
 362 566 362 566 341.5 571.5 c 128,-1,2
 321 577 321 577 300 577 c 0,3,4
 249 577 249 577 217.5 545 c 128,-1,5
 186 513 186 513 186 462 c 2,6,-1
 186 417 l 1,7,-1
 406 417 l 2,8,9
 433 417 433 417 433 397 c 0,10,11
 433 376 433 376 406 376 c 2,12,-1
 186 376 l 1,13,-1
 186 109 l 2,14,15
 186 71 186 71 216 48 c 128,-1,16
 246 25 246 25 298 25 c 0,17,18
 340 25 340 25 387.5 36.5 c 128,-1,19
 435 48 435 48 464 65 c 0,20,21
 474 71 474 71 480 71 c 0,22,23
 487 71 487 71 493 65 c 128,-1,24
 499 59 499 59 499 51 c 0,25,26
 499 29 499 29 431.5 6.5 c 128,-1,27
 364 -16 364 -16 300 -16 c 0,28,29
 229 -16 229 -16 187 17.5 c 128,-1,30
 145 51 145 51 145 107 c 2,31,-1
 145 376 l 1,32,-1
 71 376 l 2,33,34
 43 376 43 376 43 397 c 0,35,36
 43 417 43 417 71 417 c 2,37,-1
 145 417 l 1,38,-1
 145 462 l 2,39,40
 145 527 145 527 188.5 572.5 c 128,-1,41
 232 618 232 618 296 618 c 0,42,43
 321 618 321 618 352 610.5 c 128,-1,44
 383 603 383 603 383 586 c 0,45,46
 383 578 383 578 377.5 572 c 128,-1,47
 372 566 372 566 364 566 c 0,0,1
EndSplineSet
EndChar

StartChar: uni01AE
Encoding: 430 430 347
Width: 600
GlyphClass: 2
Flags: W
LayerCount: 2
Fore
SplineSet
514 -165 m 0,0,1
 514 -183 514 -183 483 -191 c 128,-1,2
 452 -199 452 -199 427 -199 c 0,3,4
 366 -199 366 -199 323 -155 c 128,-1,5
 280 -111 280 -111 280 -48 c 2,6,-1
 280 522 l 1,7,-1
 113 522 l 1,8,-1
 113 449 l 2,9,10
 113 422 113 422 92 422 c 0,11,12
 72 422 72 422 72 449 c 2,13,-1
 72 563 l 1,14,-1
 528 563 l 1,15,-1
 528 449 l 2,16,17
 528 422 528 422 508 422 c 0,18,19
 499 422 499 422 493 429.5 c 128,-1,20
 487 437 487 437 487 449 c 2,21,-1
 487 522 l 1,22,-1
 321 522 l 1,23,-1
 321 -42 l 2,24,25
 321 -93 321 -93 350.5 -125.5 c 128,-1,26
 380 -158 380 -158 426 -158 c 0,27,28
 448 -158 448 -158 470 -151.5 c 128,-1,29
 492 -145 492 -145 496 -145 c 0,30,31
 503 -145 503 -145 508.5 -151 c 128,-1,32
 514 -157 514 -157 514 -165 c 0,0,1
EndSplineSet
EndChar

StartChar: Uhorn
Encoding: 431 431 348
Width: 600
GlyphClass: 3
Flags: W
AnchorPoint: "Anchor-3" 296 563 basechar 0
LayerCount: 2
Fore
SplineSet
499 522 m 1,0,-1
 499 185 l 2,1,2
 499 100 499 100 441.5 42 c 128,-1,3
 384 -16 384 -16 300 -16 c 0,4,5
 215 -16 215 -16 158 41.5 c 128,-1,6
 101 99 101 99 101 185 c 2,7,-1
 101 522 l 1,8,-1
 67 522 l 2,9,10
 40 522 40 522 40 543 c 0,11,12
 40 563 40 563 67 563 c 2,13,-1
 216 563 l 2,14,15
 243 563 243 563 243 543 c 0,16,17
 243 522 243 522 216 522 c 2,18,-1
 142 522 l 1,19,-1
 142 185 l 2,20,21
 142 117 142 117 187.5 71 c 128,-1,22
 233 25 233 25 300 25 c 0,23,24
 366 25 366 25 412 71.5 c 128,-1,25
 458 118 458 118 458 185 c 2,26,-1
 458 522 l 1,27,-1
 384 522 l 2,28,29
 357 522 357 522 357 543 c 0,30,31
 357 563 357 563 384 563 c 2,32,-1
 533 563 l 2,33,34
 552 563 552 563 570 579 c 128,-1,35
 588 595 588 595 589 614 c 0,36,37
 589 638 589 638 572.5 654 c 128,-1,38
 556 670 556 670 535 670 c 0,39,40
 527 670 527 670 521 676 c 128,-1,41
 515 682 515 682 515 691 c 0,42,43
 515 699 515 699 521 705 c 128,-1,44
 527 711 527 711 535 711 c 0,45,46
 573 711 573 711 601 683.5 c 128,-1,47
 629 656 629 656 629 615 c 128,-1,48
 629 574 629 574 599.5 548 c 128,-1,49
 570 522 570 522 533 522 c 2,50,-1
 499 522 l 1,0,-1
EndSplineSet
Ligature2: "'ccmp' Glyph Composition/Decomposition in Latin lookup 2 per glyph data 0" U horncmb
EndChar

StartChar: uhorn
Encoding: 432 432 349
Width: 600
GlyphClass: 3
Flags: W
AnchorPoint: "Anchor-3" 241 431 basechar 0
LayerCount: 2
Fore
SplineSet
480 376 m 1,0,-1
 480 41 l 1,1,-1
 514 41 l 2,2,3
 541 41 541 41 541 21 c 0,4,5
 541 0 541 0 514 0 c 2,6,-1
 439 0 l 1,7,-1
 439 66 l 1,8,9
 355 -16 355 -16 257 -16 c 0,10,11
 197 -16 197 -16 160.5 20 c 128,-1,12
 124 56 124 56 124 115 c 2,13,-1
 124 376 l 1,14,-1
 70 376 l 2,15,16
 43 376 43 376 43 397 c 0,17,18
 43 417 43 417 70 417 c 2,19,-1
 165 417 l 1,20,-1
 165 115 l 2,21,22
 165 77 165 77 191.5 51 c 128,-1,23
 218 25 218 25 256 25 c 0,24,25
 356 25 356 25 439 115 c 1,26,-1
 439 376 l 1,27,-1
 365 376 l 2,28,29
 337 376 337 376 337 397 c 0,30,31
 337 417 337 417 365 417 c 2,32,-1
 480 417 l 2,33,34
 498 417 498 417 515.5 433 c 128,-1,35
 533 449 533 449 534 468 c 0,36,37
 534 492 534 492 517.5 508 c 128,-1,38
 501 524 501 524 480 524 c 0,39,40
 472 524 472 524 466 530 c 128,-1,41
 460 536 460 536 460 545 c 0,42,43
 460 553 460 553 466 559 c 128,-1,44
 472 565 472 565 480 565 c 0,45,46
 518 565 518 565 546 537.5 c 128,-1,47
 574 510 574 510 574 469 c 0,48,49
 574 429 574 429 545 403 c 128,-1,50
 516 377 516 377 480 376 c 1,0,-1
EndSplineSet
Ligature2: "'ccmp' Glyph Composition/Decomposition in Latin lookup 2 per glyph data 0" u horncmb
EndChar

StartChar: Upsilonlatin
Encoding: 433 433 350
Width: 600
GlyphClass: 2
Flags: W
LayerCount: 2
Fore
SplineSet
87 214 m 0,0,1
 87 273 87 273 106 318.5 c 128,-1,2
 125 364 125 364 153 386 c 128,-1,3
 181 408 181 408 203.5 419 c 128,-1,4
 226 430 226 430 243 431 c 1,5,-1
 243 528 l 1,6,-1
 118 528 l 1,7,-1
 118 427 l 2,8,9
 118 400 118 400 99 400 c 0,10,11
 78 400 78 400 78 427 c 2,12,-1
 78 571 l 1,13,-1
 285 571 l 1,14,-1
 285 396 l 1,15,16
 208 389 208 389 167 341 c 128,-1,17
 126 293 126 293 126 216 c 128,-1,18
 126 139 126 139 167.5 91 c 128,-1,19
 209 43 209 43 258 38 c 1,20,-1
 350 38 l 1,21,22
 393 43 393 43 423.5 66 c 128,-1,23
 454 89 454 89 466.5 120.5 c 128,-1,24
 479 152 479 152 484 175 c 128,-1,25
 489 198 489 198 489 216 c 0,26,27
 489 276 489 276 456.5 326.5 c 128,-1,28
 424 377 424 377 356 392 c 1,29,-1
 328 396 l 1,30,-1
 328 571 l 1,31,-1
 540 571 l 1,32,-1
 540 427 l 2,33,34
 540 416 540 416 534 408 c 128,-1,35
 528 400 528 400 518 400 c 0,36,37
 499 400 499 400 499 427 c 2,38,-1
 499 528 l 1,39,-1
 370 528 l 1,40,-1
 370 431 l 1,41,42
 435 417 435 417 482.5 360 c 128,-1,43
 530 303 530 303 530 221 c 0,44,45
 530 168 530 168 514.5 126.5 c 128,-1,46
 499 85 499 85 477.5 61.5 c 128,-1,47
 456 38 456 38 429 23 c 128,-1,48
 402 8 402 8 383 3 c 128,-1,49
 364 -2 364 -2 350 -2 c 2,50,-1
 260 -2 l 2,51,52
 243 0 243 0 224.5 6 c 128,-1,53
 206 12 206 12 180 27.5 c 128,-1,54
 154 43 154 43 134.5 65 c 128,-1,55
 115 87 115 87 101 126 c 128,-1,56
 87 165 87 165 87 214 c 0,0,1
EndSplineSet
EndChar

StartChar: Vcursive
Encoding: 434 434 351
Width: 600
GlyphClass: 2
Flags: W
LayerCount: 2
Fore
SplineSet
300 29 m 0,0,1
 323 29 323 29 343 33.5 c 128,-1,2
 363 38 363 38 384.5 49.5 c 128,-1,3
 406 61 406 61 418.5 85 c 128,-1,4
 431 109 431 109 431 144 c 2,5,-1
 431 563 l 1,6,-1
 525 563 l 2,7,8
 553 563 553 563 553 541 c 0,9,10
 553 529 553 529 547 525.5 c 128,-1,11
 541 522 541 522 525 522 c 2,12,-1
 473 522 l 1,13,-1
 473 144 l 2,14,15
 473 -12 473 -12 302 -12 c 0,16,17
 217 -12 217 -12 170.5 27 c 128,-1,18
 124 66 124 66 124 146 c 2,19,-1
 124 522 l 1,20,-1
 71 522 l 2,21,22
 43 522 43 522 43 543 c 0,23,24
 43 563 43 563 71 563 c 2,25,-1
 212 563 l 2,26,27
 243 563 243 563 243 543 c 0,28,29
 243 522 243 522 214 522 c 2,30,-1
 165 522 l 1,31,-1
 165 148 l 2,32,33
 165 90 165 90 203.5 59.5 c 128,-1,34
 242 29 242 29 300 29 c 0,0,1
EndSplineSet
EndChar

